<svg xmlns="http://www.w3.org/2000/svg" width="24" height="24" viewBox="0 0 24 24">
  <path d="M9,4.5 C7.61928813,4.5 6.5,5.61928813 6.5,7 L6.5,18.966922 C6.5,19.0346354 6.51375387,19.1016432 6.54042748,19.1638816 C6.6492053,19.4176965 6.94314476,19.5352723 7.19695965,19.4264945 L12,17.3680486 L16.8030404,19.4264945 C16.8652788,19.4531681 16.9322866,19.466922 17,19.466922 C17.2761424,19.466922 17.5,19.2430643 17.5,18.966922 L17.5,7 C17.5,5.61928813 16.3807119,4.5 15,4.5 L9,4.5 Z M9,3 L15,3 C17.209139,3 19,4.790861 19,7 L19,18.966922 C19,20.0714915 18.1045695,20.966922 17,20.966922 C16.7291464,20.966922 16.4611151,20.9119065 16.2121614,20.805212 L12,19 L7.7878386,20.805212 C6.77257903,21.2403233 5.59682118,20.7700201 5.16170994,19.7547606 C5.0550155,19.5058069 5,19.2377755 5,18.966922 L5,7 C5,4.790861 6.790861,3 9,3 Z"/>
</svg>
