<svg xmlns="http://www.w3.org/2000/svg" width="24" height="24" viewBox="0 0 24 24">
  <path d="M8.6249713,20.039 C8.3139713,20.325 7.8529713,20.384 7.4799713,20.188 C7.2439713,20.062 7.0699713,19.853 6.9919713,19.597 C6.9129713,19.342 6.9379713,19.072 7.0629713,18.835 L10.4179713,12.5 L7.7809713,12.5 C7.5489713,12.5 7.3169713,12.445 7.1099713,12.341 C6.7519713,12.163 6.4839713,11.854 6.3569713,11.474 C6.2309713,11.094 6.2599713,10.687 6.4389713,10.329 L9.4389713,4.329 C9.6949713,3.817 10.2089713,3.5 10.7809713,3.5 L14.4269713,3.5 C14.7129713,3.5 14.9899713,3.583 15.2279713,3.742 C15.8899713,4.183 16.0689713,5.082 15.6279713,5.744 L13.1239713,9.5 L16.2349713,9.5 C16.6529713,9.5 17.0559713,9.676 17.3389713,9.984 C17.8979713,10.592 17.8589713,11.543 17.2509713,12.104 L8.6249713,20.039 Z"/>
</svg>
