<svg width="24" height="24" viewBox="0 0 24 24" xmlns="http://www.w3.org/2000/svg">
    <g id="Page-1" stroke="none" stroke-width="1" fill="none" fill-rule="evenodd">
        <g id="058_ic_champagne" fill-rule="nonzero" fill="#000000">
            <path d="M15.93216,2.15712 L15.93216,3.51456 C15.93216,3.77952 16.14672,3.99456 16.41216,3.99456 C16.6776,3.99456 16.89216,3.77952 16.89216,3.51456 L16.89216,2.15712 C16.89216,1.89216 16.6776,1.67712 16.41216,1.67712 C16.14672,1.67712 15.93216,1.89216 15.93216,2.15712 Z" id="Shape"></path>
            <path d="M18.78816,4.53264 L18.10944,5.21136 C17.92176,5.39904 17.92176,5.7024 18.10944,5.89008 C18.20304,5.98368 18.32592,6.03072 18.4488,6.03072 C18.57168,6.03072 18.69456,5.98368 18.78816,5.89008 L19.46688,5.21136 C19.65456,5.02368 19.65456,4.72032 19.46688,4.53264 C19.2792,4.34496 18.97536,4.34544 18.78816,4.53264 Z" id="Shape"></path>
            <path d="M22.18224,0.45984 C22.00224,0.27984 21.68352,0.27984 21.50352,0.45984 L20.14608,1.81776 C19.9584,2.00544 19.9584,2.3088 20.14608,2.49648 L21.50352,3.85392 C21.59712,3.94752 21.72,3.99456 21.84288,3.99456 C21.96576,3.99456 22.08864,3.94752 22.18224,3.85392 L23.53968,2.49648 C23.72736,2.3088 23.72736,2.00544 23.53968,1.81776 L22.18224,0.45984 Z M21.84288,2.83584 L21.16416,2.15712 L21.84288,1.47792 L22.5216,2.15712 L21.84288,2.83584 Z" id="Shape"></path>
            <path d="M15.39408,5.89056 C15.2568,5.75328 15.05088,5.71296 14.87088,5.7864 C14.69136,5.8608 14.57472,6.036 14.57472,6.22992 L14.57472,7.38864 L14.09184,7.87152 C13.42032,8.20752 8.61408,10.63392 7.24848,12 L4.54128,14.70768 C4.5384,14.71056 4.53552,14.71296 4.53312,14.71584 C4.53024,14.71872 4.52784,14.72112 4.52496,14.724 L2.50752,16.74192 C2.50368,16.74528 2.50032,16.74864 2.49696,16.752 C2.4936,16.75536 2.48976,16.7592 2.4864,16.76256 L0.4608,18.78864 C0.27312,18.97632 0.27312,19.27968 0.4608,19.46736 L4.53312,23.54016 C4.62336,23.6304 4.74528,23.6808 4.87248,23.6808 C4.99968,23.6808 5.12208,23.6304 5.21184,23.54016 L9.28416,19.46784 C9.28416,19.46832 9.28512,19.46688 9.28512,19.46688 L12,16.75152 C13.36608,15.38544 15.79248,10.5792 16.12848,9.90768 L16.61136,9.4248 L17.77008,9.4248 C17.964,9.4248 18.13968,9.30768 18.2136,9.12864 C18.288,8.94912 18.24672,8.74272 18.10944,8.60544 L15.39408,5.89056 Z M4.872,22.52208 L1.4784,19.128 L2.83632,17.77056 L6.2304,21.16416 L4.872,22.52208 Z M6.90912,20.48544 L3.51504,17.09136 L4.87248,15.73392 L8.26656,19.128 L6.90912,20.48544 Z M8.94528,18.44928 L5.5512,15.0552 L7.58784,13.01856 L8.46528,13.89648 L8.46528,15.0552 C8.46528,15.32064 8.68032,15.5352 8.94528,15.5352 L10.10448,15.5352 L10.98192,16.41264 L8.94528,18.44928 Z M16.41216,8.46528 C16.28448,8.46528 16.16256,8.51568 16.0728,8.60592 L15.39408,9.28464 C15.35712,9.3216 15.3264,9.36432 15.30384,9.41088 C15.27936,9.46032 13.02816,13.98384 11.63952,15.7128 L10.64256,14.71584 C10.55232,14.6256 10.4304,14.5752 10.3032,14.5752 L9.42528,14.5752 L9.42528,13.69776 C9.42528,13.57008 9.37488,13.44816 9.28464,13.3584 L8.28768,12.36096 C10.01616,10.97232 14.54016,8.72112 14.5896,8.69664 C14.63664,8.6736 14.67936,8.64288 14.71584,8.60592 L15.39456,7.9272 C15.4848,7.83696 15.5352,7.71504 15.5352,7.58784 L15.5352,7.38912 L16.61136,8.46528 L16.41216,8.46528 L16.41216,8.46528 Z" id="Shape"></path>
            <path d="M21.84288,7.10784 L20.48544,7.10784 C20.22,7.10784 20.00544,7.32288 20.00544,7.58784 C20.00544,7.8528 20.22,8.06784 20.48544,8.06784 L21.84288,8.06784 C22.10832,8.06784 22.32288,7.8528 22.32288,7.58784 C22.32288,7.32288 22.10832,7.10784 21.84288,7.10784 Z" id="Shape"></path>
        </g>
    </g>
</svg>
