<svg width="24" height="24" viewBox="0 0 24 24" xmlns="http://www.w3.org/2000/svg">
    <g id="Page-1" stroke="none" stroke-width="1" fill="none" fill-rule="evenodd">
        <g id="Artboard" fill-rule="nonzero">
            <g id="060_ic_check_rounded" transform="translate(0.000000, 3.000000)">
                <path d="M22.630664,0.441706667 C22.398486,0.450875593 22.179126,0.550584678 22.0195529,0.719484444 C17.2248862,5.58175111 12.427864,10.4125422 7.630664,15.2750311 L1.85288622,11.0389422 C1.59486376,10.8503231 1.25580781,10.8137031 0.963461613,10.9428792 C0.671115421,11.0720553 0.469903357,11.3473981 0.435634394,11.6651691 C0.401365432,11.98294 0.539247017,12.2948513 0.797330667,12.4833867 L7.20013067,17.16392 C7.55247777,17.423795 8.04158034,17.3884375 8.35288622,17.0805867 C13.3293751,12.0340978 18.3182196,7.01877333 23.2973307,1.96948444 C23.5650042,1.71160082 23.6439831,1.31441023 23.495328,0.973742194 C23.3466728,0.633074155 23.0017679,0.420851057 22.630664,0.441706667 L22.630664,0.441706667 Z" id="Shape"></path>
            </g>
        </g>
    </g>
</svg>
