<svg xmlns="http://www.w3.org/2000/svg" width="24" height="24" viewBox="0 0 24 24">
  <path d="M13.0606602,12 L18.363961,17.3033009 C18.6568542,17.5961941 18.6568542,18.0710678 18.363961,18.363961 C18.0710678,18.6568542 17.5961941,18.6568542 17.3033009,18.363961 L12,13.0606602 L6.69669914,18.363961 C6.40380592,18.6568542 5.92893219,18.6568542 5.63603897,18.363961 C5.34314575,18.0710678 5.34314575,17.5961941 5.63603897,17.3033009 L10.9393398,12 L5.63603897,6.69669914 C5.34314575,6.40380592 5.34314575,5.92893219 5.63603897,5.63603897 C5.92893219,5.34314575 6.40380592,5.34314575 6.69669914,5.63603897 L12,10.9393398 L17.3033009,5.63603897 C17.5961941,5.34314575 18.0710678,5.34314575 18.363961,5.63603897 C18.6568542,5.92893219 18.6568542,6.40380592 18.363961,6.69669914 L13.0606602,12 Z"/>
</svg>
