<svg xmlns="http://www.w3.org/2000/svg" width="24" height="24" viewBox="0 0 24 24">
  <path d="M12,19 L10,19 L10,17 L12,17 L12,19 Z M8,19 L6,19 L6,17 L8,17 L8,19 Z M24,11 C24,11 22.822,10.047 21,8.904 L21,5 C21,4.687 20.853,4.392 20.603,4.203 C20.353,4.014 20.028,3.952 19.727,4.038 C18.444,4.401 17.096,5.754 16.429,6.498 C14.393,5.641 12.159,5 10,5 C3.372,5 0,7.687 0,11 C0,13.09 1.345,14.929 4,16.003 L4,19 C4,20.104 4.896,21 6,21 L12,21 C13.104,21 14,20.104 14,19 L14,16.369 C14.829,16.128 15.643,15.833 16.428,15.502 C17.096,16.246 18.444,17.599 19.727,17.962 C20.028,18.048 20.353,17.986 20.603,17.797 C20.853,17.608 21,17.313 21,17 L21,13.096 C22.822,11.953 24,11 24,11 L24,11 Z"/>
</svg>
