<svg xmlns="http://www.w3.org/2000/svg" width="24" height="24" viewBox="0 0 24 24">
  <path d="M12,2.25 C17.3666603,2.25 21.75,6.14555435 21.75,11 C21.75,14.1742136 19.1742136,16.75 16,16.75 L14.23,16.75 C13.8142136,16.75 13.48,17.0842136 13.48,17.5 C13.48,17.6782941 13.5501194,17.855577 13.670557,17.9917271 C14.0400653,18.4074239 14.25,18.9361485 14.25,19.5 C14.25,20.7442136 13.2442136,21.75 12,21.75 C6.61578644,21.75 2.25,17.3842136 2.25,12 C2.25,6.61578644 6.61578644,2.25 12,2.25 Z M12,3.75 C7.44421356,3.75 3.75,7.44421356 3.75,12 C3.75,16.5557864 7.44421356,20.25 12,20.25 C12.4157864,20.25 12.75,19.9157864 12.75,19.5 C12.75,19.3116293 12.6798683,19.1350013 12.5482526,18.9869304 C12.1889593,18.5807727 11.98,18.0524607 11.98,17.5 C11.98,16.2557864 12.9857864,15.25 14.23,15.25 L16,15.25 C18.3457864,15.25 20.25,13.3457864 20.25,11 C20.25,7.01598056 16.5750668,3.75 12,3.75 Z M7,13 C6.17,13 5.5,12.33 5.5,11.5 C5.5,10.67 6.17,10 7,10 C7.83,10 8.5,10.67 8.5,11.5 C8.5,12.33 7.83,13 7,13 Z M9.5,9 C8.67,9 8,8.33 8,7.5 C8,6.67 8.67,6 9.5,6 C10.33,6 11,6.67 11,7.5 C11,8.33 10.33,9 9.5,9 Z M14.5,9 C13.67,9 13,8.33 13,7.5 C13,6.67 13.67,6 14.5,6 C15.33,6 16,6.67 16,7.5 C16,8.33 15.33,9 14.5,9 Z M17,13 C16.17,13 15.5,12.33 15.5,11.5 C15.5,10.67 16.17,10 17,10 C17.83,10 18.5,10.67 18.5,11.5 C18.5,12.33 17.83,13 17,13 Z"/>
</svg>
