<svg xmlns="http://www.w3.org/2000/svg" width="24" height="24" viewBox="0 0 24 24">
  <g fill="none" fill-rule="evenodd">
    <polygon points="0 0 24 0 24 24 0 24"/>
    <path fill="#000" fill-rule="nonzero" d="M4,10 C2.9,10 2,10.9 2,12 C2,13.1 2.9,14 4,14 C5.1,14 6,13.1 6,12 C6,10.9 5.1,10 4,10 Z M20,10 C18.9,10 18,10.9 18,12 C18,13.1 18.9,14 20,14 C21.1,14 22,13.1 22,12 C22,10.9 21.1,10 20,10 Z M12,10 C10.9,10 10,10.9 10,12 C10,13.1 10.9,14 12,14 C13.1,14 14,13.1 14,12 C14,10.9 13.1,10 12,10 Z"/>
  </g>
</svg>
