<svg xmlns="http://www.w3.org/2000/svg" width="24" height="24" viewBox="0 0 24 24">
  <g fill-rule="evenodd">
    <path fill-rule="nonzero" d="M7,4.5 C5.61928813,4.5 4.5,5.61928813 4.5,7 L4.5,17 C4.5,18.3807119 5.61928813,19.5 7,19.5 L17,19.5 C18.3807119,19.5 19.5,18.3807119 19.5,17 L19.5,7 C19.5,5.61928813 18.3807119,4.5 17,4.5 L7,4.5 Z M7,3 L17,3 C19.209139,3 21,4.790861 21,7 L21,17 C21,19.209139 19.209139,21 17,21 L7,21 C4.790861,21 3,19.209139 3,17 L3,7 C3,4.790861 4.790861,3 7,3 Z"/>
    <circle cx="7.5" cy="8.25" r="1.5"/>
    <path d="M11.25 6L17.25 6C17.6642136 6 18 6.33578644 18 6.75 18 7.16421356 17.6642136 7.5 17.25 7.5L11.25 7.5C10.8357864 7.5 10.5 7.16421356 10.5 6.75 10.5 6.33578644 10.8357864 6 11.25 6zM11.25 9L17.25 9C17.6642136 9 18 9.33578644 18 9.75 18 10.1642136 17.6642136 10.5 17.25 10.5L11.25 10.5C10.8357864 10.5 10.5 10.1642136 10.5 9.75 10.5 9.33578644 10.8357864 9 11.25 9zM7.25 12L16.75 12C17.4403559 12 18 12.5596441 18 13.25L18 16.75C18 17.4403559 17.4403559 18 16.75 18L7.25 18C6.55964406 18 6 17.4403559 6 16.75L6 13.25C6 12.5596441 6.55964406 12 7.25 12z"/>
  </g>
</svg>
