<svg xmlns="http://www.w3.org/2000/svg" width="24" height="24" viewBox="0 0 24 24">
  <path d="M20.25,19 L20.25,5 C20.25,4.31421356 19.6857864,3.75 19,3.75 L5,3.75 C4.31421356,3.75 3.75,4.31421356 3.75,5 L3.75,19 C3.75,19.6857864 4.31421356,20.25 5,20.25 L19,20.25 C19.6857864,20.25 20.25,19.6857864 20.25,19 Z M21.75,19 C21.75,20.5142136 20.5142136,21.75 19,21.75 L5,21.75 C3.48578644,21.75 2.25,20.5142136 2.25,19 L2.25,5 C2.25,3.48578644 3.48578644,2.25 5,2.25 L19,2.25 C20.5142136,2.25 21.75,3.48578644 21.75,5 L21.75,19 Z M14.1231537,9.2040338 L18.4381517,16.7537871 C18.7122026,17.2332812 18.5456579,17.84415 18.0661638,18.1182009 C17.9150484,18.2045696 17.7440067,18.25 17.5699509,18.25 L6.4400071,18.25 C5.88772236,18.25 5.4400071,17.8022847 5.4400071,17.25 C5.4400071,17.0687264 5.48928103,16.8908621 5.58255908,16.7354294 L8.78375459,11.4011586 L10.8872709,12.9784839 L14.1231537,9.2040338 Z M7.32319216,16.75 L16.7082765,16.75 L13.8768401,11.7959662 L11.1115362,15.0215161 L9.21426131,13.5988414 L7.32319216,16.75 Z M7.5,9 C6.67,9 6,8.33 6,7.5 C6,6.67 6.67,6 7.5,6 C8.33,6 9,6.67 9,7.5 C9,8.33 8.33,9 7.5,9 Z"/>
</svg>
