<svg xmlns="http://www.w3.org/2000/svg" xmlns:xlink="http://www.w3.org/1999/xlink" width="24" height="24" viewBox="0 0 24 24">
    <path id="ic_insert-photo-a" d="M7,3 L17,3 C19.209139,3 21,4.790861 21,7 L21,17 C21,19.209139 19.209139,21 17,21 L7,21 C4.790861,21 3,19.209139 3,17 L3,7 C3,4.790861 4.790861,3 7,3 Z M7,4.5 C5.61928813,4.5 4.5,5.61928813 4.5,7 L4.5,17 C4.5,18.3807119 5.61928813,19.5 7,19.5 L17,19.5 C18.3807119,19.5 19.5,18.3807119 19.5,17 L19.5,7 C19.5,5.61928813 18.3807119,4.5 17,4.5 L7,4.5 Z M19.5,11.4393398 L19.5,13.5606602 L16,10.0606602 L11.0606602,15 L12.5303301,16.4696699 L11.4696699,17.5303301 L8,14.0606602 L4.55182019,17.50884 C4.51784925,17.3445473 4.5,17.1743581 4.5,17 L4.5,15.4393398 L8,11.9393398 L10,13.9393398 L16,7.93933983 L19.5,11.4393398 Z M8,9.5 C7.17157288,9.5 6.5,8.82842712 6.5,8 C6.5,7.17157288 7.17157288,6.5 8,6.5 C8.82842712,6.5 9.5,7.17157288 9.5,8 C9.5,8.82842712 8.82842712,9.5 8,9.5 Z"/>
</svg>
