<svg xmlns="http://www.w3.org/2000/svg" width="24" height="24" viewBox="0 0 24 24">
  <path d="M7.65303443,19.8824995 L9.52381973,18.0117142 C10.2870047,18.3264063 11.1232298,18.5 12,18.5 C15.5898509,18.5 18.5,15.5898509 18.5,12 C18.5,11.1232298 18.3264063,10.2870047 18.0117142,9.52381973 L19.8824995,7.65303443 C20.5946547,8.94165922 21,10.4234929 21,12 C21,16.9705627 16.9705627,21 12,21 C10.4234929,21 8.94165922,20.5946547 7.65303443,19.8824995 L7.65303443,19.8824995 Z M4.11750053,16.3469656 C3.40534531,15.0583408 3,13.5765071 3,12 C3,7.02943725 7.02943725,3 12,3 C13.5765071,3 15.0583408,3.40534531 16.3469656,4.11750053 L14.4761803,5.98828582 C13.7129953,5.67359369 12.8767702,5.5 12,5.5 C8.41014913,5.5 5.5,8.41014913 5.5,12 C5.5,12.8767702 5.67359369,13.7129953 5.98828582,14.4761803 L4.11750053,16.3469656 L4.11750053,16.3469656 Z M12,15 C13.6568542,15 15,13.6568542 15,12 C15,10.3431458 13.6568542,9 12,9 C10.3431458,9 9,10.3431458 9,12 C9,13.6568542 10.3431458,15 12,15 Z"/>
</svg>
