<svg xmlns="http://www.w3.org/2000/svg" width="24" height="24" viewBox="0 0 24 24">
  <g>
    <path d="M6.48522021,20.3432069 L7.9360653,18.8923618 C9.12709181,19.5961412 10.5163828,20 12,20 C16.418278,20 20,16.418278 20,12 C20,10.5163828 19.5961412,9.12709181 18.8923618,7.9360653 L20.3432069,6.48522021 C21.3902465,8.06608623 22,9.96183533 22,12 C22,17.5228475 17.5228475,22 12,22 C9.96183533,22 8.06608623,21.3902465 6.48522021,20.3432069 L6.48522021,20.3432069 Z M3.65679308,17.5147798 C2.60975353,15.9339138 2,14.0381647 2,12 C2,6.4771525 6.4771525,2 12,2 C14.0381647,2 15.9339138,2.60975353 17.5147798,3.65679308 L16.0639347,5.10763818 C14.8729082,4.40385879 13.4836172,4 12,4 C7.581722,4 4,7.581722 4,12 C4,13.4836172 4.40385879,14.8729082 5.10763818,16.0639347 L3.65679308,17.5147798 Z"/>
    <circle cx="12" cy="12" r="3"/>
  </g>
</svg>
