<svg xmlns="http://www.w3.org/2000/svg" width="24" height="24" viewBox="0 0 24 24">
  <path d="M13.5,4.68902623 C16.0878408,5.35509042 18,7.70424086 18,10.5 C18,10.573484 18.0013202,10.7401506 18.0039607,11 L18.0039607,12.763932 C18.0039607,12.9191771 18.0401058,13.0722902 18.1095335,13.2111456 L19.5039607,16 C19.6478808,16.2878402 19.7228078,16.6052358 19.7228078,16.927051 C19.7228078,18.0719091 18.7947169,19 17.6498588,19 L6.3580627,19 C6.03624753,19 5.71885195,18.9250731 5.43101171,18.7811529 C4.40701947,18.2691568 3.99196461,17.0239922 4.50396073,16 L5.89838792,13.2111456 C5.96781564,13.0722902 6.00396073,12.9191771 6.00396073,12.763932 L6.00396073,11 C6.00132024,10.7495056 6,10.582839 6,10.5 C6,7.70424086 7.91215918,5.35509042 10.5,4.68902623 L10.5,4 C10.5,3.17157288 11.1715729,2.5 12,2.5 C12.8284271,2.5 13.5,3.17157288 13.5,4 L13.5,4.68902623 Z M7.5038774,10.9841892 L7.50396073,12.763932 C7.50396073,13.1520448 7.413598,13.5348274 7.24002871,13.881966 L5.84560152,16.6708204 C5.70408927,16.9538449 5.81880761,17.2979999 6.10183211,17.4395122 C6.18138919,17.4792907 6.26911517,17.5 6.3580627,17.5 L17.6498588,17.5 C17.9662898,17.5 18.2228078,17.243482 18.2228078,16.927051 C18.2228078,16.8381035 18.2020985,16.7503775 18.1623199,16.6708204 L16.7678928,13.881966 C16.5943235,13.5348274 16.5039607,13.1520448 16.5039607,12.763932 L16.5040382,11.0152416 C16.5013422,10.749931 16.5,10.5804943 16.5,10.5 C16.5,8.01471863 14.4852814,6 12,6 C9.51471863,6 7.5,8.01471863 7.5,10.5 C7.5,10.5757995 7.50129263,10.7389809 7.5038774,10.9841892 Z M12,22 C10.9,22 10,21.1 10,20 L14,20 C14,21.1 13.1,22 12,22 Z"/>
</svg>
