<svg xmlns="http://www.w3.org/2000/svg" width="24" height="24" viewBox="0 0 24 24">
  <path d="M6,9 L6,13.6666667 C6,14.5321475 5.71928851,15.374282 5.2,16.0666667 L4.5,17 C4.08578644,17.5522847 4.19771525,18.3357864 4.75,18.75 C4.96637021,18.9122777 5.22953723,19 5.5,19 L18.5,19 C19.1903559,19 19.75,18.4403559 19.75,17.75 C19.75,17.4795372 19.6622777,17.2163702 19.5,17 L18.8,16.0666667 C18.2807115,15.374282 18,14.5321475 18,13.6666667 L18,9 C18,6.02583528 15.8360134,3.55709672 12.9966539,3.08239805 C12.9988701,3.05522493 13,3.02774441 13,3 C13,2.44771525 12.5522847,2 12,2 C11.4477153,2 11,2.44771525 11,3 C11,3.02774441 11.0011299,3.05522493 11.0033461,3.08239805 C8.16398661,3.55709672 6,6.02583528 6,9 Z M10,20 L14,20 C14,21.1045695 13.1045695,22 12,22 C10.8954305,22 10,21.1045695 10,20 Z"/>
</svg>
