<svg xmlns="http://www.w3.org/2000/svg" width="24" height="24" viewBox="0 0 24 24">
  <path d="M12,3 C7.02944,3 3,7.0294 3,12 C3,16.9706 7.02944,21 12,21 C16.9706,21 21,16.9706 21,12 C21.0001,11.4908 20.957,10.9824 20.8711,10.4805 C20.6032,10.0066 20,10 20,10 L18,10 L18,9 C18,8 17,8 17,8 L15,8 L15,7 C15,6 14,6 14,6 L13,6 L13,4 C13,3 12,3 12,3 Z M9.5,6 C10.3284,6 11,6.6716 11,7.5 C11,8.3284 10.3284,9 9.5,9 C8.67157,9 8,8.3284 8,7.5 C8,6.6716 8.67157,6 9.5,6 Z M6.5,10 C7.32843,10 8,10.6716 8,11.5 C8,12.3284 7.32843,13 6.5,13 C5.67157,13 5,12.3284 5,11.5 C5,10.6716 5.67157,10 6.5,10 Z M11.5,11 C12.3284,11 13,11.6716 13,12.5 C13,13.3284 12.3284,14 11.5,14 C10.6716,14 10,13.3284 10,12.5 C10,11.6716 10.6716,11 11.5,11 Z M16.5,13 C17.3284,13 18,13.6716 18,14.5 C18,15.3284 17.3284,16 16.5,16 L16.5,16 C15.6716,16 15,15.3284 15,14.5 L15,14.5 C15,13.6716 15.6716,13 16.5,13 Z M11,16 C11.8284,16 12.5,16.6716 12.5,17.5 C12.5,18.3284 11.8284,19 11,19 C10.1716,19 9.5,18.3284 9.5,17.5 C9.5,16.6716 10.1716,16 11,16 Z"/>
</svg>
