<svg xmlns="http://www.w3.org/2000/svg" width="24" height="24" viewBox="0 0 24 24">
  <path d="M12,5.5 C10.6184271,5.5 9.5,6.61842712 9.5,8 C9.5,9.38157288 10.6184271,10.5 12,10.5 C13.3815729,10.5 14.5,9.38157288 14.5,8 C14.5,6.61842712 13.3815729,5.5 12,5.5 Z M12,4 C14.21,4 16,5.79 16,8 C16,10.21 14.21,12 12,12 C9.79,12 8,10.21 8,8 C8,5.79 9.79,4 12,4 Z M12,14.5 C9.09725559,14.5 5.5,15.9410611 5.5,17 L5.5,18 C5.5,18.2761424 5.72385763,18.5 6,18.5 L18,18.5 C18.2761424,18.5 18.5,18.2761424 18.5,18 L18.5,17 C18.5,15.9410611 14.9027444,14.5 12,14.5 Z M12,13 C14.67,13 20,14.34 20,17 L20,18 C20,19.1045695 19.1045695,20 18,20 L6,20 C4.8954305,20 4,19.1045695 4,18 L4,17 C4,14.34 9.33,13 12,13 Z"/>
</svg>
