<svg width="24" height="24" viewBox="0 0 24 24" xmlns="http://www.w3.org/2000/svg">
    <g id="Page-1" stroke="none" stroke-width="1" fill="none" fill-rule="evenodd">
        <g id="Artboard" fill-rule="nonzero" fill="#000000">
            <g id="061_ic_streamers">
                <path d="M7.82222222,5.3037037 L8,5.57037037 C8,5.57037037 8.02962963,5.6 8.02962963,5.6 C8.02962963,5.6 8.02962963,5.6 8.02962963,5.6 C8.02962963,5.6 8.05925926,5.6 8.05925926,5.57037037 L8.17777778,5.24444444 L8.5037037,5.15555556 C8.5037037,5.15555556 8.53333333,5.12592593 8.53333333,5.12592593 C8.53333333,5.12592593 8.53333333,5.0962963 8.53333333,5.0962963 L8.26666667,4.88888889 L8.26666667,4.56296296 C8.26666667,4.56296296 8.26666667,4.53333333 8.23703704,4.53333333 C8.23703704,4.53333333 8.20740741,4.53333333 8.20740741,4.53333333 L7.91111111,4.74074074 L7.58518519,4.62222222 C7.58518519,4.62222222 7.55555556,4.62222222 7.55555556,4.62222222 C7.55555556,4.62222222 7.55555556,4.65185185 7.55555556,4.65185185 L7.64444444,4.97777778 L7.43703704,5.24444444 C7.43703704,5.24444444 7.43703704,5.27407407 7.43703704,5.27407407 C7.43703704,5.27407407 7.46666667,5.3037037 7.46666667,5.3037037 L7.82222222,5.3037037 Z" id="Shape"></path>
                <path d="M0.474074074,16.9185185 C0.474074074,16.9185185 0.503703704,16.9481481 0.503703704,16.9481481 L0.82962963,16.9481481 L1.00740741,17.2148148 C1.00740741,17.2148148 1.03703704,17.2444444 1.03703704,17.2444444 C1.03703704,17.2444444 1.03703704,17.2444444 1.03703704,17.2444444 C1.03703704,17.2444444 1.06666667,17.2444444 1.06666667,17.2148148 L1.18518519,16.8888889 L1.51111111,16.8 C1.51111111,16.8 1.54074074,16.7703704 1.54074074,16.7703704 C1.54074074,16.7703704 1.54074074,16.7407407 1.54074074,16.7407407 L1.27407407,16.5333333 L1.27407407,16.2074074 C1.27407407,16.2074074 1.27407407,16.1777778 1.24444444,16.1777778 C1.24444444,16.1777778 1.21481481,16.1777778 1.21481481,16.1777778 L0.948148148,16.3851852 L0.622222222,16.2666667 C0.622222222,16.2666667 0.592592593,16.2666667 0.592592593,16.2666667 C0.592592593,16.2666667 0.592592593,16.2962963 0.592592593,16.2962963 L0.681481481,16.6222222 L0.474074074,16.8888889 C0.474074074,16.8888889 0.474074074,16.9185185 0.474074074,16.9185185 Z" id="Shape"></path>
                <path d="M17.6296296,22.8148148 C17.6296296,22.8148148 17.6592593,22.8444444 17.6592593,22.8444444 L17.9851852,22.8444444 L18.162963,23.1111111 C18.162963,23.1111111 18.1925926,23.1407407 18.1925926,23.1407407 C18.1925926,23.1407407 18.1925926,23.1407407 18.1925926,23.1407407 C18.1925926,23.1407407 18.2222222,23.1407407 18.2222222,23.1111111 L18.3407407,22.7851852 L18.6666667,22.6962963 C18.6666667,22.6962963 18.6962963,22.6666667 18.6962963,22.6666667 C18.6962963,22.6666667 18.6962963,22.637037 18.6962963,22.637037 L18.4296296,22.4296296 L18.4296296,22.1037037 C18.4296296,22.1037037 18.4296296,22.0740741 18.4,22.0740741 C18.4,22.0740741 18.3703704,22.0740741 18.3703704,22.0740741 L18.1037037,22.2814815 L17.7777778,22.1333333 C17.7777778,22.1333333 17.7481481,22.1333333 17.7481481,22.1333333 C17.7481481,22.1333333 17.7481481,22.162963 17.7481481,22.162963 L17.837037,22.4888889 L17.6296296,22.7555556 C17.6,22.7851852 17.6,22.7851852 17.6296296,22.8148148 Z" id="Shape"></path>
                <path d="M3.14074074,20.1185185 C3.14074074,20.1185185 3.17037037,20.1481481 3.17037037,20.1481481 L3.4962963,20.1481481 L3.67407407,20.4148148 C3.67407407,20.4148148 3.7037037,20.4444444 3.7037037,20.4444444 C3.7037037,20.4444444 3.7037037,20.4444444 3.7037037,20.4444444 C3.7037037,20.4444444 3.73333333,20.4444444 3.73333333,20.4148148 L3.85185185,20.0888889 L4.17777778,20 C4.17777778,20 4.20740741,19.9703704 4.20740741,19.9703704 C4.20740741,19.9703704 4.20740741,19.9407407 4.20740741,19.9407407 L3.94074074,19.7333333 L3.94074074,19.4074074 C3.94074074,19.4074074 3.94074074,19.3777778 3.91111111,19.3777778 C3.91111111,19.3777778 3.88148148,19.3777778 3.88148148,19.3777778 L3.61481481,19.5555556 L3.28888889,19.437037 C3.28888889,19.437037 3.25925926,19.437037 3.25925926,19.437037 C3.25925926,19.437037 3.25925926,19.4666667 3.25925926,19.4666667 L3.34814815,19.7925926 L3.14074074,20.0592593 C3.14074074,20.0888889 3.14074074,20.0888889 3.14074074,20.1185185 Z" id="Shape"></path>
                <path d="M10.9037037,16.5925926 C10.2222222,16.9185185 9.42222222,17.3037037 9.42222222,18.1333333 C9.42222222,18.962963 10.2222222,19.3481481 10.9037037,19.6740741 C11.5851852,20 12.0592593,20.2666667 12.0592593,20.6814815 C12.0592593,20.8592593 12.1777778,20.9777778 12.3555556,20.9777778 C12.5333333,20.9777778 12.6518519,20.8592593 12.6518519,20.6814815 C12.6518519,19.8518519 11.8518519,19.4666667 11.1703704,19.1407407 C10.4888889,18.8148148 10.0148148,18.5481481 10.0148148,18.1333333 C10.0148148,17.7185185 10.4592593,17.4518519 11.1703704,17.1259259 C11.8518519,16.8 12.6518519,16.4148148 12.6518519,15.5851852 C12.6518519,14.7555556 11.8518519,14.3703704 11.1703704,14.0444444 C10.4888889,13.7185185 10.0148148,13.4518519 10.0148148,13.037037 C10.0148148,12.6222222 10.4592593,12.3555556 11.1703704,12.0296296 C11.8518519,11.7037037 12.6518519,11.3185185 12.6518519,10.4888889 C12.6518519,9.65925926 11.8518519,9.27407407 11.1703704,8.94814815 C10.4888889,8.62222222 10.0148148,8.35555556 10.0148148,7.94074074 C10.0148148,7.52592593 10.4592593,7.25925926 11.1703704,6.93333333 C11.8518519,6.60740741 12.6518519,6.22222222 12.6518519,5.39259259 C12.6518519,4.56296296 11.8518519,4.17777778 11.1703704,3.85185185 C10.4888889,3.52592593 10.0148148,3.25925926 10.0148148,2.84444444 C10.0148148,2.42962963 10.4592593,2.16296296 11.1703704,1.83703704 C11.8518519,1.51111111 12.6518519,1.12592593 12.6518519,0.296296296 C12.6518519,0.118518519 12.5333333,0 12.3555556,0 C12.1777778,0 12.0592593,0.118518519 12.0592593,0.296296296 C12.0592593,0.711111111 11.6148148,0.977777778 10.9037037,1.3037037 C10.2222222,1.62962963 9.42222222,2.01481481 9.42222222,2.84444444 C9.42222222,3.67407407 10.2222222,4.05925926 10.9037037,4.38518519 C11.5851852,4.71111111 12.0592593,4.97777778 12.0592593,5.39259259 C12.0592593,5.80740741 11.6148148,6.07407407 10.9037037,6.4 C10.2222222,6.72592593 9.42222222,7.11111111 9.42222222,7.94074074 C9.42222222,8.77037037 10.2222222,9.15555556 10.9037037,9.48148148 C11.5851852,9.80740741 12.0592593,10.0740741 12.0592593,10.4888889 C12.0592593,10.9037037 11.6148148,11.1703704 10.9037037,11.4962963 C10.2222222,11.8222222 9.42222222,12.2074074 9.42222222,13.037037 C9.42222222,13.8666667 10.2222222,14.2518519 10.9037037,14.5777778 C11.5851852,14.9037037 12.0592593,15.1703704 12.0592593,15.5851852 C12.0296296,16.0296296 11.5851852,16.2666667 10.9037037,16.5925926 Z" id="Shape"></path>
                <path d="M19.7333333,9.45185185 C19.4074074,10.0740741 19.8814815,10.7259259 20.3259259,11.3185185 C20.6518519,11.7925926 21.0074074,12.2666667 20.8592593,12.562963 C20.7407407,12.8 20.2962963,12.7407407 19.6740741,12.6518519 C18.9925926,12.5333333 18.1925926,12.4148148 17.8666667,13.037037 C17.5407407,13.6592593 18.0148148,14.3111111 18.4592593,14.9037037 C18.7851852,15.3777778 19.1407407,15.8518519 18.9925926,16.1481481 C18.8740741,16.3851852 18.4296296,16.3259259 17.8074074,16.237037 C17.1259259,16.1185185 16.3259259,16 16,16.6222222 C15.6740741,17.2444444 16.1481481,17.8962963 16.5925926,18.4888889 C16.9185185,18.962963 17.2740741,19.437037 17.1259259,19.7333333 C17.0074074,19.9703704 16.562963,19.9111111 15.9407407,19.8222222 C15.2592593,19.7037037 14.4592593,19.5851852 14.1333333,20.2074074 C13.8074074,20.8296296 14.2814815,21.4814815 14.7259259,22.0740741 C15.0518519,22.5481481 15.4074074,23.0222222 15.2592593,23.3185185 C15.1703704,23.4666667 15.2296296,23.6444444 15.3777778,23.7037037 C15.4074074,23.7333333 15.4666667,23.7333333 15.5259259,23.7333333 C15.6444444,23.7333333 15.7333333,23.6740741 15.7925926,23.5851852 C16.1185185,22.962963 15.6444444,22.3111111 15.2,21.7185185 C14.8740741,21.2444444 14.5185185,20.7703704 14.6666667,20.4740741 C14.7851852,20.237037 15.2296296,20.2962963 15.8518519,20.3851852 C16.5333333,20.5037037 17.3333333,20.6222222 17.6592593,20 C17.9851852,19.3777778 17.5111111,18.7259259 17.0666667,18.1333333 C16.7407407,17.6592593 16.3851852,17.1851852 16.5333333,16.8888889 C16.6518519,16.6518519 17.0962963,16.7111111 17.7185185,16.8 C18.4,16.9185185 19.2,17.037037 19.5259259,16.4148148 C19.8518519,15.7925926 19.3777778,15.1407407 18.9333333,14.5481481 C18.6074074,14.0740741 18.2518519,13.6 18.4,13.3037037 C18.5185185,13.0666667 18.962963,13.1259259 19.5851852,13.2148148 C20.2666667,13.3333333 21.0666667,13.4518519 21.3925926,12.8296296 C21.7185185,12.2074074 21.2444444,11.5555556 20.8,10.962963 C20.4740741,10.4888889 20.1185185,10.0148148 20.2666667,9.71851852 C20.3851852,9.48148148 20.8296296,9.54074074 21.4518519,9.62962963 C22.1333333,9.74814815 22.9333333,9.86666667 23.2592593,9.24444444 C23.3481481,9.0962963 23.2888889,8.91851852 23.1407407,8.85925926 C22.9925926,8.77037037 22.8148148,8.82962963 22.7555556,8.97777778 C22.637037,9.21481481 22.1925926,9.15555556 21.5703704,9.06666667 C20.8296296,8.94814815 20.0592593,8.8 19.7333333,9.45185185 Z" id="Shape"></path>
                <path d="M16.6814815,8.08888889 C16.3259259,8.02962963 15.7925926,7.91111111 15.5851852,8.41481481 C15.4074074,8.82962963 15.6740741,9.24444444 15.8814815,9.62962963 C16.0296296,9.86666667 16.2074074,10.162963 16.1481481,10.2814815 C16.0888889,10.4296296 16.1481481,10.6074074 16.2962963,10.6666667 C16.3259259,10.6962963 16.3851852,10.6962963 16.4148148,10.6962963 C16.5333333,10.6962963 16.6222222,10.637037 16.6814815,10.5185185 C16.8592593,10.1037037 16.5925926,9.68888889 16.3851852,9.3037037 C16.237037,9.06666667 16.0592593,8.77037037 16.1185185,8.62222222 C16.1777778,8.59259259 16.4444444,8.62222222 16.562963,8.65185185 C16.9185185,8.71111111 17.4518519,8.82962963 17.6592593,8.32592593 C17.837037,7.91111111 17.5703704,7.4962963 17.362963,7.11111111 C17.2148148,6.87407407 17.037037,6.57777778 17.0962963,6.42962963 C17.1555556,6.4 17.4222222,6.42962963 17.5407407,6.45925926 C17.8962963,6.51851852 18.4296296,6.63703704 18.637037,6.13333333 C18.8148148,5.71851852 18.5481481,5.3037037 18.3407407,4.91851852 C18.1925926,4.68148148 18.0148148,4.38518519 18.0740741,4.23703704 C18.1333333,4.20740741 18.4,4.23703704 18.5185185,4.26666667 C18.8740741,4.32592593 19.4074074,4.44444444 19.6148148,3.94074074 C19.7925926,3.52592593 19.5259259,3.11111111 19.3185185,2.72592593 C19.1703704,2.48888889 18.9925926,2.19259259 19.0518519,2.04444444 C19.1111111,2.01481481 19.3777778,2.04444444 19.4962963,2.07407407 C19.8518519,2.13333333 20.3851852,2.25185185 20.5925926,1.74814815 C20.6518519,1.6 20.5925926,1.42222222 20.4444444,1.36296296 C20.2962963,1.3037037 20.1185185,1.36296296 20.0592593,1.51111111 C20,1.54074074 19.7333333,1.51111111 19.6148148,1.48148148 C19.2592593,1.42222222 18.7259259,1.3037037 18.5185185,1.80740741 C18.3407407,2.22222222 18.6074074,2.63703704 18.8148148,3.02222222 C18.962963,3.25925926 19.1407407,3.55555556 19.0814815,3.7037037 C19.0222222,3.73333333 18.7555556,3.7037037 18.637037,3.67407407 C18.2814815,3.61481481 17.7481481,3.4962963 17.5407407,4 C17.362963,4.41481481 17.6296296,4.82962963 17.837037,5.21481481 C17.9851852,5.45185185 18.162963,5.74814815 18.1037037,5.8962963 C18.0444444,5.92592593 17.7777778,5.8962963 17.6592593,5.86666667 C17.3037037,5.80740741 16.7703704,5.68888889 16.562963,6.19259259 C16.3851852,6.60740741 16.6518519,7.02222222 16.8592593,7.40740741 C17.0074074,7.64444444 17.1851852,7.94074074 17.1259259,8.08888889 C17.0666667,8.14814815 16.8,8.08888889 16.6814815,8.08888889 Z" id="Shape"></path>
                <path d="M2.01481481,11.5259259 C2.57777778,11.437037 2.96296296,11.3777778 3.08148148,11.6148148 C3.22962963,11.9111111 2.9037037,12.4148148 2.57777778,12.8888889 C2.16296296,13.5111111 1.74814815,14.1333333 2.04444444,14.7259259 C2.37037037,15.3777778 3.11111111,15.2296296 3.73333333,15.1407407 C4.2962963,15.0518519 4.68148148,14.9925926 4.8,15.2296296 C4.94814815,15.5259259 4.62222222,16.0296296 4.2962963,16.5037037 C3.88148148,17.1259259 3.46666667,17.7481481 3.76296296,18.3407407 C4.08888889,18.9925926 4.82962963,18.8444444 5.45185185,18.7555556 C6.01481481,18.6666667 6.4,18.6074074 6.51851852,18.8444444 C6.66666667,19.1407407 6.34074074,19.6444444 6.01481481,20.1185185 C5.62962963,20.7111111 5.21481481,21.3333333 5.51111111,21.9259259 C5.83703704,22.5777778 6.57777778,22.4296296 7.2,22.3407407 C7.76296296,22.2518519 8.14814815,22.1925926 8.26666667,22.4296296 C8.32592593,22.5481481 8.41481481,22.6074074 8.53333333,22.6074074 C8.56296296,22.6074074 8.62222222,22.6074074 8.65185185,22.5777778 C8.8,22.5185185 8.85925926,22.3407407 8.8,22.1925926 C8.47407407,21.5407407 7.73333333,21.6888889 7.11111111,21.7777778 C6.54814815,21.8666667 6.16296296,21.9259259 6.04444444,21.6888889 C5.8962963,21.3925926 6.22222222,20.8888889 6.54814815,20.4148148 C6.96296296,19.7925926 7.37777778,19.1703704 7.08148148,18.5777778 C6.75555556,17.9259259 6.01481481,18.0740741 5.39259259,18.162963 C4.82962963,18.2518519 4.44444444,18.3111111 4.32592593,18.0740741 C4.17777778,17.7777778 4.5037037,17.2740741 4.82962963,16.8 C5.24444444,16.1777778 5.65925926,15.5555556 5.36296296,14.962963 C5.03703704,14.3111111 4.2962963,14.4592593 3.67407407,14.5481481 C3.11111111,14.637037 2.72592593,14.6962963 2.60740741,14.4592593 C2.45925926,14.162963 2.78518519,13.6592593 3.11111111,13.1851852 C3.52592593,12.562963 3.94074074,11.9407407 3.64444444,11.3481481 C3.31851852,10.6962963 2.57777778,10.8444444 1.95555556,10.9333333 C1.39259259,11.0222222 1.00740741,11.0814815 0.888888889,10.8444444 C0.740740741,10.5481481 1.06666667,10.0444444 1.39259259,9.57037037 C1.80740741,8.94814815 2.22222222,8.32592593 1.92592593,7.73333333 C1.86666667,7.58518519 1.68888889,7.52592593 1.54074074,7.58518519 C1.39259259,7.64444444 1.33333333,7.82222222 1.39259259,7.97037037 C1.54074074,8.26666667 1.21481481,8.77037037 0.888888889,9.24444444 C0.474074074,9.86666667 0.0592592593,10.4888889 0.355555556,11.0814815 C0.622222222,11.7925926 1.39259259,11.6444444 2.01481481,11.5259259 Z" id="Shape"></path>
                <path d="M4,2.87407407 C4.08888889,2.84444444 4.2962963,2.81481481 4.35555556,2.84444444 C4.41481481,3.02222222 4.26666667,3.34814815 4.11851852,3.64444444 C3.91111111,4.05925926 3.7037037,4.5037037 3.85185185,4.91851852 C4.05925926,5.45185185 4.59259259,5.33333333 4.88888889,5.27407407 C4.97777778,5.24444444 5.18518519,5.21481481 5.24444444,5.24444444 C5.3037037,5.42222222 5.15555556,5.74814815 5.00740741,6.04444444 C4.8,6.45925926 4.59259259,6.9037037 4.74074074,7.31851852 C4.94814815,7.85185185 5.48148148,7.73333333 5.77777778,7.67407407 C5.86666667,7.64444444 6.07407407,7.61481481 6.13333333,7.64444444 C6.19259259,7.82222222 6.04444444,8.14814815 5.8962963,8.44444444 C5.68888889,8.85925926 5.48148148,9.3037037 5.62962963,9.71851852 C5.83703704,10.2518519 6.37037037,10.1333333 6.66666667,10.0740741 C6.75555556,10.0444444 6.96296296,10.0148148 7.02222222,10.0444444 C7.05185185,10.162963 7.17037037,10.2518519 7.28888889,10.2518519 C7.31851852,10.2518519 7.34814815,10.2518519 7.37777778,10.2222222 C7.52592593,10.162963 7.61481481,9.98518519 7.55555556,9.83703704 C7.34814815,9.3037037 6.81481481,9.42222222 6.51851852,9.48148148 C6.42962963,9.51111111 6.22222222,9.54074074 6.16296296,9.51111111 C6.1037037,9.33333333 6.25185185,9.00740741 6.4,8.71111111 C6.60740741,8.2962963 6.81481481,7.85185185 6.66666667,7.43703704 C6.45925926,6.9037037 5.92592593,7.02222222 5.62962963,7.08148148 C5.54074074,7.11111111 5.33333333,7.14074074 5.27407407,7.11111111 C5.21481481,6.93333333 5.36296296,6.60740741 5.51111111,6.31111111 C5.71851852,5.8962963 5.92592593,5.45185185 5.77777778,5.03703704 C5.57037037,4.5037037 5.03703704,4.62222222 4.74074074,4.68148148 C4.65185185,4.71111111 4.44444444,4.74074074 4.38518519,4.71111111 C4.32592593,4.53333333 4.47407407,4.20740741 4.62222222,3.91111111 C4.82962963,3.4962963 5.03703704,3.05185185 4.88888889,2.63703704 C4.68148148,2.1037037 4.14814815,2.22222222 3.85185185,2.28148148 C3.76296296,2.31111111 3.55555556,2.34074074 3.4962963,2.31111111 C3.43703704,2.13333333 3.58518519,1.80740741 3.73333333,1.51111111 C3.94074074,1.0962963 4.14814815,0.651851852 4,0.237037037 C3.94074074,0.0888888889 3.76296296,6.24500451e-16 3.61481481,0.0592592593 C3.46666667,0.118518519 3.37777778,0.296296296 3.43703704,0.444444444 C3.4962963,0.622222222 3.34814815,0.948148148 3.2,1.24444444 C2.99259259,1.65925926 2.78518519,2.1037037 2.93333333,2.51851852 C3.17037037,3.08148148 3.7037037,2.93333333 4,2.87407407 Z" id="Shape"></path>
                <path d="M7.7037037,11.9111111 C7.67407407,11.8814815 7.67407407,11.8814815 7.64444444,11.8814815 L7.11111111,11.9703704 L6.6962963,11.5555556 C6.66666667,11.5259259 6.63703704,11.5259259 6.60740741,11.5259259 C6.57777778,11.5259259 6.54814815,11.5555556 6.54814815,11.5851852 L6.48888889,12.1481481 L5.98518519,12.3851852 C5.95555556,12.3851852 5.95555556,12.4148148 5.95555556,12.4444444 C5.95555556,12.4740741 5.98518519,12.5037037 5.98518519,12.5037037 L6.48888889,12.7407407 L6.54814815,13.2740741 C6.54814815,13.3037037 6.57777778,13.3333333 6.60740741,13.3333333 C6.60740741,13.3333333 6.63703704,13.3333333 6.63703704,13.3333333 C6.66666667,13.3333333 6.66666667,13.3333333 6.6962963,13.3037037 L7.08148148,12.9185185 L7.61481481,13.0074074 C7.64444444,13.0074074 7.67407407,13.0074074 7.67407407,12.9777778 C7.7037037,12.9481481 7.7037037,12.9185185 7.67407407,12.8888889 L7.43703704,12.3851852 L7.7037037,11.9111111 C7.73333333,11.9407407 7.73333333,11.9111111 7.7037037,11.9111111 Z" id="Shape"></path>
                <path d="M14.0444444,13.3333333 L13.8074074,13.837037 C13.8074074,13.8666667 13.8074074,13.8962963 13.8074074,13.9259259 C13.8074074,13.9555556 13.8666667,13.9555556 13.8666667,13.9555556 L14.4,13.837037 L14.7851852,14.2222222 C14.7851852,14.2222222 14.8148148,14.2518519 14.8444444,14.2518519 C14.8444444,14.2518519 14.8740741,14.2518519 14.8740741,14.2518519 C14.9037037,14.2518519 14.9333333,14.2222222 14.9333333,14.1925926 L14.9925926,13.6592593 L15.4666667,13.3925926 C15.4962963,13.3925926 15.4962963,13.362963 15.4962963,13.3333333 C15.4962963,13.3037037 15.4666667,13.2740741 15.4666667,13.2740741 L14.962963,13.037037 L14.8740741,12.4444444 C14.8740741,12.4148148 14.8444444,12.3851852 14.8148148,12.3851852 C14.7851852,12.3851852 14.7555556,12.3851852 14.7259259,12.4148148 L14.3407407,12.8296296 L13.837037,12.7407407 C13.8074074,12.7407407 13.7777778,12.7407407 13.7777778,12.7703704 C13.7481481,12.8 13.7481481,12.8296296 13.7777778,12.8592593 L14.0444444,13.3333333 Z" id="Shape"></path>
                <path d="M20.6222222,18.5481481 C20.6518519,18.5777778 20.6814815,18.5777778 20.6814815,18.5777778 L21.2148148,18.4592593 L21.6,18.8444444 C21.6,18.8444444 21.6296296,18.8740741 21.6592593,18.8740741 C21.6592593,18.8740741 21.6888889,18.8740741 21.6888889,18.8740741 C21.7185185,18.8740741 21.7481481,18.8444444 21.7481481,18.8148148 L21.8074074,18.2518519 L22.2814815,17.9851852 C22.3111111,17.9851852 22.3111111,17.9555556 22.3111111,17.9259259 C22.3111111,17.8962963 22.2814815,17.8666667 22.2814815,17.8666667 L21.7777778,17.6296296 L21.6888889,17.0962963 C21.6888889,17.0666667 21.6592593,17.037037 21.6296296,17.037037 C21.6,17.037037 21.5703704,17.037037 21.5407407,17.0666667 L21.2148148,17.4814815 L20.6814815,17.3925926 C20.6518519,17.3925926 20.6222222,17.3925926 20.6222222,17.4222222 C20.5925926,17.4518519 20.5925926,17.4814815 20.6222222,17.5111111 L20.8888889,17.9851852 L20.6518519,18.4888889 C20.6222222,18.4888889 20.6222222,18.5185185 20.6222222,18.5481481 Z" id="Shape"></path>
                <path d="M0.711111111,5.03703704 L1.24444444,5.12592593 L1.48148148,5.62962963 C1.48148148,5.65925926 1.51111111,5.65925926 1.54074074,5.65925926 C1.54074074,5.65925926 1.54074074,5.65925926 1.54074074,5.65925926 C1.57037037,5.65925926 1.6,5.62962963 1.6,5.62962963 L1.86666667,5.15555556 L2.4,5.0962963 C2.42962963,5.0962963 2.45925926,5.06666667 2.45925926,5.03703704 C2.45925926,5.00740741 2.45925926,4.97777778 2.42962963,4.94814815 L2.07407407,4.53333333 L2.19259259,4 C2.19259259,3.97037037 2.19259259,3.94074074 2.16296296,3.94074074 C2.13333333,3.91111111 2.1037037,3.91111111 2.07407407,3.94074074 L1.57037037,4.17777778 L1.0962963,3.91111111 C1.06666667,3.91111111 1.03703704,3.91111111 1.00740741,3.91111111 C0.977777778,3.94074074 0.977777778,3.94074074 0.977777778,3.97037037 L1.06666667,4.5037037 L0.651851852,4.88888889 C0.622222222,4.91851852 0.622222222,4.94814815 0.622222222,4.97777778 C0.651851852,5.00740741 0.681481481,5.00740741 0.711111111,5.03703704 Z" id="Shape"></path>
                <path d="M14.4296296,3.58518519 L14.9333333,3.82222222 L14.9925926,4.35555556 C14.9925926,4.38518519 15.0222222,4.41481481 15.0518519,4.41481481 C15.0518519,4.41481481 15.0814815,4.41481481 15.0814815,4.41481481 C15.1111111,4.41481481 15.1111111,4.41481481 15.1407407,4.38518519 L15.5259259,4 L16.0592593,4.08888889 C16.0888889,4.08888889 16.1185185,4.08888889 16.1185185,4.05925926 C16.1481481,4.02962963 16.1481481,4 16.1185185,3.97037037 L15.8814815,3.46666667 L16.1481481,2.99259259 C16.1481481,2.96296296 16.1481481,2.93333333 16.1481481,2.9037037 C16.1185185,2.87407407 16.1185185,2.87407407 16.0888889,2.87407407 L15.5555556,2.96296296 L15.1703704,2.54814815 C15.1407407,2.51851852 15.1111111,2.51851852 15.0814815,2.51851852 C15.0518519,2.51851852 15.0222222,2.54814815 15.0222222,2.57777778 L14.9333333,3.11111111 L14.4296296,3.34814815 C14.4,3.34814815 14.4,3.37777778 14.4,3.40740741 C14.4,3.43703704 14.4,3.55555556 14.4296296,3.58518519 Z" id="Shape"></path>
            </g>
        </g>
    </g>
</svg>
