<svg xmlns="http://www.w3.org/2000/svg" width="24" height="24" viewBox="0 0 24 24">
  <g>
    <path d="M11 13L10 13 10 11 13 11C13 12.103 12.103 13 11 13M17 3L6 3C3.794 3 2 4.794 2 7 2 8.745 3.13 10.217 4.692 10.762L2.613 17 10 17 10 15 11 15C13.206 15 15 13.206 15 11L17 11C17.552 11 18 10.552 18 10L18 4C18 3.448 17.552 3 17 3M11 18L2 18C1.653 18 1.332 18.18 1.149 18.474.967 18.769.951 19.137 1.105 19.447L2.105 21.447C2.275 21.786 2.621 22 3 22L10 22C10.379 22 10.725 21.786 10.895 21.447L11.895 19.447C12.049 19.137 12.033 18.769 11.851 18.474 11.668 18.18 11.347 18 11 18M24 6L20.822 6C20.519 5.156 19.848 4.486 19 4.185L19 9.816C19.848 9.514 20.519 8.844 20.822 8L24 8 24 6z"/>
  </g>
</svg>
