<svg xmlns="http://www.w3.org/2000/svg" width="25" height="25" viewBox="0 0 25 25">
  <path d="M22.0833333,16.3333333 L22.0833333,4.83333333 C22.0833333,3.77916667 21.2208333,2.91666667 20.1666667,2.91666667 L8.66666667,2.91666667 C7.6125,2.91666667 6.75,3.77916667 6.75,4.83333333 L6.75,16.3333333 C6.75,17.3875 7.6125,18.25 8.66666667,18.25 L20.1666667,18.25 C21.2208333,18.25 22.0833333,17.3875 22.0833333,16.3333333 Z M11.5416667,12.5 L13.4870833,15.0970833 L16.3333333,11.5416667 L20.1666667,16.3333333 L8.66666667,16.3333333 L11.5416667,12.5 Z M2.91666667,6.75 L2.91666667,20.1666667 C2.91666667,21.2208333 3.77916667,22.0833333 4.83333333,22.0833333 L18.25,22.0833333 L18.25,20.1666667 L4.83333333,20.1666667 L4.83333333,6.75 L2.91666667,6.75 Z"/>
</svg>
