<svg xmlns="http://www.w3.org/2000/svg" width="24" height="24" viewBox="0 0 24 24">
  <g>
    <polygon points="16 3 4 3 4 5 16 5"/>
    <path d="M11,19 L7,19 L7,17 L11,17 L11,19 Z M5,12 C5,10.896 5.896,10 7,10 C8.104,10 9,10.896 9,12 C9,13.104 8.104,14 7,14 C5.896,14 5,13.104 5,12 L5,12 Z M21,6 L21,8 L11,8 L11,8 L11,6 L9,6 L9,8 L6.5,8 C3.869,8 1.766,10.258 2.021,12.941 C2.188,14.695 3.409,16.1 5,16.693 L5,19 L4,19 C3.449,19 3,18.551 3,18 L3,17 L1,17 L1,18 C1,19.654 2.346,21 4,21 L16,21 L16,19 L13,19 L13,16.445 C14.19,15.752 15,14.477 15,13 L15,12.333 L22.165,11.139 C22.647,11.059 23,10.642 23,10.153 L23,6 L21,6 Z"/>
  </g>
</svg>
