<svg xmlns="http://www.w3.org/2000/svg" width="24" height="24" viewBox="0 0 24 24">
  <path d="M19.5,14.7218623 C19.5,15.6834184 18.7635,16.5109512 17.787,16.6474113 L16.5,16.8272461 L16.5,18.0948627 L16.5,18.6314432 L14.6775,17.0436328 L14.2505,16.6712918 L13.6775,16.6712918 L12,16.6712918 C10.988,16.6712918 10.1575,15.9314833 10.027,14.979187 L10.3225,14.7218623 L13.5,14.7218623 C15.433,14.7218623 17,13.1944843 17,11.3103606 L17,8.87357376 L17.5,8.87357376 C18.603,8.87357376 19.5,9.7478929 19.5,10.8230033 L19.5,14.7218623 Z M9.7495,13.2597901 L9.3225,13.6321312 L8.5,14.3485465 L7.5,15.2199415 L7.5,14.683361 L7.5,13.4157445 L6.213,13.2359096 C5.2365,13.0994496 4.5,12.2714294 4.5,11.3103606 L4.5,7.41150163 C4.5,6.33639126 5.3975,5.46207213 6.5,5.46207213 L13.5,5.46207213 C14.603,5.46207213 15.5,6.33639126 15.5,7.41150163 L15.5,8.87357376 L15.5,11.3103606 C15.5,12.385471 14.603,13.2597901 13.5,13.2597901 L10.3225,13.2597901 L10,13.2597901 L9.7495,13.2597901 Z M17.5,7.41150163 L17,7.41150163 C17,5.52737802 15.433,4 13.5,4 L6.5,4 C4.567,4 3,5.52737802 3,7.41150163 L3,11.3103606 C3,13.0282954 4.3045,14.446018 6,14.683361 L6,16.8560002 C6,17.2965713 6.37,17.5884984 6.7555,17.5884984 C6.94,17.5884984 7.1275,17.5217304 7.2805,17.372599 L8.782,16.0640445 C9.317,17.2804885 10.556,18.1333639 12,18.1333639 L13.6775,18.1333639 L16.7195,20.7841007 C16.8725,20.933232 17.06,21 17.2445,21 C17.63,21 18,20.7080729 18,20.2675019 L18,18.0948627 C19.6955,17.8575196 21,16.439797 21,14.7218623 L21,10.8230033 C21,8.93887965 19.433,7.41150163 17.5,7.41150163 L17.5,7.41150163 Z"/>
</svg>
