<svg xmlns="http://www.w3.org/2000/svg" xmlns:xlink="http://www.w3.org/1999/xlink" width="24" height="24" viewBox="0 0 24 24">
  <defs>
    <polygon id="comments-a" points="18 8.5 18 17 0 17 0 8.5 0 0 18 0"/>
  </defs>
  <g fill="none" fill-rule="evenodd" transform="translate(3 4)">
    <path fill="#000" d="M16.5,10.7218623 C16.5,11.6834184 15.7635,12.5109512 14.787,12.6474113 L13.5,12.8272461 L13.5,14.0948627 L13.5,14.6314432 L11.6775,13.0436328 L11.2505,12.6712918 L10.6775,12.6712918 L9,12.6712918 C7.988,12.6712918 7.1575,11.9314833 7.027,10.979187 L7.3225,10.7218623 L10.5,10.7218623 C12.433,10.7218623 14,9.19448426 14,7.31036064 L14,4.87357376 L14.5,4.87357376 C15.603,4.87357376 16.5,5.7478929 16.5,6.82300327 L16.5,10.7218623 Z M6.7495,9.25979015 L6.3225,9.63213119 L5.5,10.3485465 L4.5,11.2199415 L4.5,10.683361 L4.5,9.41574451 L3.213,9.23590964 C2.2365,9.09944957 1.5,8.27142939 1.5,7.31036064 L1.5,3.41150163 C1.5,2.33639126 2.3975,1.46207213 3.5,1.46207213 L10.5,1.46207213 C11.603,1.46207213 12.5,2.33639126 12.5,3.41150163 L12.5,4.87357376 L12.5,7.31036064 C12.5,8.38547102 11.603,9.25979015 10.5,9.25979015 L7.3225,9.25979015 L7,9.25979015 L6.7495,9.25979015 Z M14.5,3.41150163 L14,3.41150163 C14,1.52737802 12.433,0 10.5,0 L3.5,0 C1.567,0 0,1.52737802 0,3.41150163 L0,7.31036064 C0,9.0282954 1.3045,10.446018 3,10.683361 L3,12.8560002 C3,13.2965713 3.37,13.5884984 3.7555,13.5884984 C3.94,13.5884984 4.1275,13.5217304 4.2805,13.372599 L5.782,12.0640445 C6.317,13.2804885 7.556,14.1333639 9,14.1333639 L10.6775,14.1333639 L13.7195,16.7841007 C13.8725,16.933232 14.06,17 14.2445,17 C14.63,17 15,16.7080729 15,16.2675019 L15,14.0948627 C16.6955,13.8575196 18,12.439797 18,10.7218623 L18,6.82300327 C18,4.93887965 16.433,3.41150163 14.5,3.41150163 L14.5,3.41150163 Z"/>
  </g>
</svg>
