<svg xmlns="http://www.w3.org/2000/svg" width="24" height="24" viewBox="0 0 24 24">
  <path d="M12,9.87867966 L8.46446609,6.34314575 C7.87867966,5.75735931 6.92893219,5.75735931 6.34314575,6.34314575 C5.75735931,6.92893219 5.75735931,7.87867966 6.34314575,8.46446609 L9.87867966,12 L6.34314575,15.5355339 C5.75735931,16.1213203 5.75735931,17.0710678 6.34314575,17.6568542 C6.92893219,18.2426407 7.87867966,18.2426407 8.46446609,17.6568542 L12,14.1213203 L15.5355339,17.6568542 C16.1213203,18.2426407 17.0710678,18.2426407 17.6568542,17.6568542 C18.2426407,17.0710678 18.2426407,16.1213203 17.6568542,15.5355339 L14.1213203,12 L17.6568542,8.46446609 C18.2426407,7.87867966 18.2426407,6.92893219 17.6568542,6.34314575 C17.0710678,5.75735931 16.1213203,5.75735931 15.5355339,6.34314575 L12,9.87867966 Z M12,7.75735931 L14.4748737,5.28248558 C15.6464466,4.1109127 17.5459415,4.1109127 18.7175144,5.28248558 C19.8890873,6.45405845 19.8890873,8.35355339 18.7175144,9.52512627 L16.2426407,12 L18.7175144,14.4748737 C19.8890873,15.6464466 19.8890873,17.5459415 18.7175144,18.7175144 C17.5459415,19.8890873 15.6464466,19.8890873 14.4748737,18.7175144 L12,16.2426407 L9.52512627,18.7175144 C8.35355339,19.8890873 6.45405845,19.8890873 5.28248558,18.7175144 C4.1109127,17.5459415 4.1109127,15.6464466 5.28248558,14.4748737 L7.75735931,12 L5.28248558,9.52512627 C4.1109127,8.35355339 4.1109127,6.45405845 5.28248558,5.28248558 C6.45405845,4.1109127 8.35355339,4.1109127 9.52512627,5.28248558 L12,7.75735931 Z"/>
</svg>
