<svg xmlns="http://www.w3.org/2000/svg" width="24" height="24" viewBox="0 0 24 24">
  <path d="M12,7.75735931 L9.52512627,5.28248558 C8.35355339,4.1109127 6.45405845,4.1109127 5.28248558,5.28248558 C4.1109127,6.45405845 4.1109127,8.35355339 5.28248558,9.52512627 L7.75735931,12 L5.28248558,14.4748737 C4.1109127,15.6464466 4.1109127,17.5459415 5.28248558,18.7175144 C6.45405845,19.8890873 8.35355339,19.8890873 9.52512627,18.7175144 L12,16.2426407 L14.4748737,18.7175144 C15.6464466,19.8890873 17.5459415,19.8890873 18.7175144,18.7175144 C19.8890873,17.5459415 19.8890873,15.6464466 18.7175144,14.4748737 L16.2426407,12 L18.7175144,9.52512627 C19.8890873,8.35355339 19.8890873,6.45405845 18.7175144,5.28248558 C17.5459415,4.1109127 15.6464466,4.1109127 14.4748737,5.28248558 L12,7.75735931 Z"/>
</svg>
