<svg xmlns="http://www.w3.org/2000/svg" width="24" height="24" viewBox="0 0 24 24">
  <g>
    <path d="M5.38226425,22.0118483 L7.12327837,20.2708342 C8.55251017,21.1153695 10.2196593,21.6 12,21.6 C17.3019336,21.6 21.6,17.3019336 21.6,12 C21.6,10.2196593 21.1153695,8.55251017 20.2708342,7.12327837 L22.0118483,5.38226425 C23.2682958,7.27930348 24,9.5542024 24,12 C24,18.627417 18.627417,24 12,24 C9.5542024,24 7.27930348,23.2682958 5.38226425,22.0118483 Z M1.9881517,18.6177358 C0.731704234,16.7206965 0,14.4457976 0,12 C0,5.372583 5.372583,0 12,0 C14.4457976,0 16.7206965,0.731704234 18.6177358,1.9881517 L16.8767216,3.72916582 C15.4474898,2.88463054 13.7803407,2.4 12,2.4 C6.6980664,2.4 2.4,6.6980664 2.4,12 C2.4,13.7803407 2.88463054,15.4474898 3.72916582,16.8767216 L1.9881517,18.6177358 Z"/>
    <circle cx="12" cy="12" r="3.6"/>
  </g>
</svg>
