<svg xmlns="http://www.w3.org/2000/svg" width="24" height="24" viewBox="0 0 24 24">
  <path d="M12,2 C14.6521649,2 17.195704,3.0535684 19.0710678,4.92893219 C20.9464316,6.80429597 22,9.3478351 22,12 C22,17.5228475 17.5228475,22 12,22 C9.3478351,22 6.80429597,20.9464316 4.92893219,19.0710678 C3.0535684,17.195704 2,14.6521649 2,12 C2,9.3478351 3.0535684,6.80429597 4.92893219,4.92893219 C6.80429597,3.0535684 9.3478351,2 12,2 L12,2 Z M10.2928932,17.2071068 L18.7071068,8.79289322 L17.2971068,7.38289322 L10.2928932,14.3771068 L7.20289322,11.2971068 L5.79289322,12.7071068 L10.2928932,17.2071068 Z"/>
</svg>
