<svg xmlns="http://www.w3.org/2000/svg" width="24" height="24" viewBox="0 0 24 24">
  <path d="M15,16.5 L16.5,16.5 C17.8807119,16.5 19,15.3807119 19,14 L19,8 C19,6.61928813 17.8807119,5.5 16.5,5.5 L7.5,5.5 C6.11928813,5.5 5,6.61928813 5,8 L5,14 C5,15.3807119 6.11928813,16.5 7.5,16.5 L11.4877757,16.5 L15,19.0543449 L15,16.5 Z M16.5,4 C18.709139,4 20.5,5.790861 20.5,8 L20.5,14 C20.5,16.209139 18.709139,18 16.5,18 L16.5,20.03623 C16.5,20.2475725 16.4330418,20.4534813 16.3087361,20.6244017 C15.9838978,21.0710543 15.3584809,21.1698043 14.9118283,20.844966 L11,18 L7.5,18 C5.290861,18 3.5,16.209139 3.5,14 L3.5,8 C3.5,5.790861 5.290861,4 7.5,4 L16.5,4 Z"/>
</svg>
