<svg xmlns="http://www.w3.org/2000/svg" width="24" height="24" viewBox="0 0 24 24">
  <g>
    <path d="M17,15.5 C18.9329966,15.5 20.5,13.9329966 20.5,12 C20.5,10.0670034 18.9329966,8.5 17,8.5 L7,8.5 C5.06700338,8.5 3.5,10.0670034 3.5,12 C3.5,13.9329966 5.06700338,15.5 7,15.5 L17,15.5 Z M17,17 L7,17 C4.23857625,17 2,14.7614237 2,12 C2,9.23857625 4.23857625,7 7,7 L17,7 C19.7614237,7 22,9.23857625 22,12 C22,14.7614237 19.7614237,17 17,17 Z M10.75,15.5 L10.75,17 L13.25,17 L13.25,15.5 L10.75,15.5 Z M10.75,7 L10.75,8.5 L13.25,8.5 L13.25,7 L10.75,7 Z"/>
    <polygon points="8 11.25 16 11.25 16 12.75 8 12.75"/>
  </g>
</svg>
