<svg xmlns="http://www.w3.org/2000/svg" width="24" height="24" viewBox="0 0 24 24">
  <path d="M4,9.25 C5.51421356,9.25 6.75,10.4857864 6.75,12 C6.75,13.5142136 5.51421356,14.75 4,14.75 C2.48578644,14.75 1.25,13.5142136 1.25,12 C1.25,10.4857864 2.48578644,9.25 4,9.25 Z M4,10.75 C3.31421356,10.75 2.75,11.3142136 2.75,12 C2.75,12.6857864 3.31421356,13.25 4,13.25 C4.68578644,13.25 5.25,12.6857864 5.25,12 C5.25,11.3142136 4.68578644,10.75 4,10.75 Z M20,9.25 C21.5142136,9.25 22.75,10.4857864 22.75,12 C22.75,13.5142136 21.5142136,14.75 20,14.75 C18.4857864,14.75 17.25,13.5142136 17.25,12 C17.25,10.4857864 18.4857864,9.25 20,9.25 Z M20,10.75 C19.3142136,10.75 18.75,11.3142136 18.75,12 C18.75,12.6857864 19.3142136,13.25 20,13.25 C20.6857864,13.25 21.25,12.6857864 21.25,12 C21.25,11.3142136 20.6857864,10.75 20,10.75 Z M12,9.25 C13.5142136,9.25 14.75,10.4857864 14.75,12 C14.75,13.5142136 13.5142136,14.75 12,14.75 C10.4857864,14.75 9.25,13.5142136 9.25,12 C9.25,10.4857864 10.4857864,9.25 12,9.25 Z M12,10.75 C11.3142136,10.75 10.75,11.3142136 10.75,12 C10.75,12.6857864 11.3142136,13.25 12,13.25 C12.6857864,13.25 13.25,12.6857864 13.25,12 C13.25,11.3142136 12.6857864,10.75 12,10.75 Z"/>
</svg>
