<svg xmlns="http://www.w3.org/2000/svg" width="24" height="24" viewBox="0 0 24 24">
  <g>
    <path d="M20 15.6289L20 23.9999 22 23.9999 22 12.9009C21.662 13.6659 21.228 14.3839 20.671 14.9999 20.461 15.2319 20.234 15.4369 20 15.6289M19 12L14 12 14 10 19 10 19 12zM10 12L5 12 5 10 10 10 10 12zM22.058 4.9C22.023 4.558 21.814 4.257 21.506 4.104 21.197 3.951 20.831 3.969 20.538 4.149 20.508 4.168 17.501 6 15.063 6 13.85 6 12.861 6.905 12.063 7.656 11.264 6.905 10.275 6 9.063 6 6.625 6 3.617 4.167 3.587 4.149 3.293 3.969 2.928 3.951 2.619 4.104 2.311 4.257 2.102 4.558 2.067 4.9 2.042 5.161 1.462 11.308 4.196 14.329 5.199 15.437 6.5 16 8.063 16 9.913 16 11.209 15.058 12.063 14.328 12.916 15.058 14.212 16 16.063 16 17.625 16 18.926 15.437 19.929 14.329 22.663 11.308 22.083 5.161 22.058 4.9L22.058 4.9z"/>
  </g>
</svg>
