<svg xmlns="http://www.w3.org/2000/svg" width="24" height="24" viewBox="0 0 24 24">
  <path d="M14.75,4 C14.75,5.51421356 13.5142136,6.75 12,6.75 C10.4857864,6.75 9.25,5.51421356 9.25,4 C9.25,2.48578644 10.4857864,1.25 12,1.25 C13.5142136,1.25 14.75,2.48578644 14.75,4 Z M13.25,4 C13.25,3.31421356 12.6857864,2.75 12,2.75 C11.3142136,2.75 10.75,3.31421356 10.75,4 C10.75,4.68578644 11.3142136,5.25 12,5.25 C12.6857864,5.25 13.25,4.68578644 13.25,4 Z M14.75,20 C14.75,21.5142136 13.5142136,22.75 12,22.75 C10.4857864,22.75 9.25,21.5142136 9.25,20 C9.25,18.4857864 10.4857864,17.25 12,17.25 C13.5142136,17.25 14.75,18.4857864 14.75,20 Z M13.25,20 C13.25,19.3142136 12.6857864,18.75 12,18.75 C11.3142136,18.75 10.75,19.3142136 10.75,20 C10.75,20.6857864 11.3142136,21.25 12,21.25 C12.6857864,21.25 13.25,20.6857864 13.25,20 Z M14.75,12 C14.75,13.5142136 13.5142136,14.75 12,14.75 C10.4857864,14.75 9.25,13.5142136 9.25,12 C9.25,10.4857864 10.4857864,9.25 12,9.25 C13.5142136,9.25 14.75,10.4857864 14.75,12 Z M13.25,12 C13.25,11.3142136 12.6857864,10.75 12,10.75 C11.3142136,10.75 10.75,11.3142136 10.75,12 C10.75,12.6857864 11.3142136,13.25 12,13.25 C12.6857864,13.25 13.25,12.6857864 13.25,12 Z"/>
</svg>
