<svg xmlns="http://www.w3.org/2000/svg" width="24" height="24" viewBox="0 0 24 24">
  <g fill-rule="evenodd">
    <polygon points="2.75 0 4.25 0 4.25 7 2.75 7"/>
    <polygon points="0 2.75 7 2.75 7 4.25 0 4.25"/>
    <path fill-rule="nonzero" d="M10,7.5 C8.61928813,7.5 7.5,8.61928813 7.5,10 L7.5,20 C7.5,21.3807119 8.61928813,22.5 10,22.5 L20,22.5 C21.3807119,22.5 22.5,21.3807119 22.5,20 L22.5,10 C22.5,8.61928813 21.3807119,7.5 20,7.5 L10,7.5 Z M10,6 L20,6 C22.209139,6 24,7.790861 24,10 L24,20 C24,22.209139 22.209139,24 20,24 L10,24 C7.790861,24 6,22.209139 6,20 L6,10 C6,7.790861 7.790861,6 10,6 Z"/>
    <circle cx="10.5" cy="11.25" r="1.5"/>
    <path d="M14.25 9L20.25 9C20.6642136 9 21 9.33578644 21 9.75 21 10.1642136 20.6642136 10.5 20.25 10.5L14.25 10.5C13.8357864 10.5 13.5 10.1642136 13.5 9.75 13.5 9.33578644 13.8357864 9 14.25 9zM14.25 12L20.25 12C20.6642136 12 21 12.3357864 21 12.75 21 13.1642136 20.6642136 13.5 20.25 13.5L14.25 13.5C13.8357864 13.5 13.5 13.1642136 13.5 12.75 13.5 12.3357864 13.8357864 12 14.25 12zM10.25 15L19.75 15C20.4403559 15 21 15.5596441 21 16.25L21 19.75C21 20.4403559 20.4403559 21 19.75 21L10.25 21C9.55964406 21 9 20.4403559 9 19.75L9 16.25C9 15.5596441 9.55964406 15 10.25 15z"/>
  </g>
</svg>
