<svg xmlns="http://www.w3.org/2000/svg" width="24" height="24" viewBox="0 0 24 24">
  <path id="new-post-svg" d="M20,4 L22.75,4 L22.75,5.5 L20,5.5 L20,8.25 L18.5,8.25 L18.5,5.5 L15.75,5.5 L15.75,4 L18.5,4 L18.5,1.25 L20,1.25 L20,4 Z M14,4 L14,5.5 L6,5.5 C4.61928813,5.5 3.5,6.61928813 3.5,8 L3.5,18 C3.5,19.3807119 4.61928813,20.5 6,20.5 L16,20.5 C17.3807119,20.5 18.5,19.3807119 18.5,18 L18.5,10 L20,10 L20,18 C20,20.209139 18.209139,22 16,22 L6,22 C3.790861,22 2,20.209139 2,18 L2,8 C2,5.790861 3.790861,4 6,4 L14,4 Z M6.5,10.75 C5.67157288,10.75 5,10.0784271 5,9.25 C5,8.42157288 5.67157288,7.75 6.5,7.75 C7.32842712,7.75 8,8.42157288 8,9.25 C8,10.0784271 7.32842712,10.75 6.5,10.75 Z M10.25,7 L16.25,7 C16.6642136,7 17,7.33578644 17,7.75 C17,8.16421356 16.6642136,8.5 16.25,8.5 L10.25,8.5 C9.83578644,8.5 9.5,8.16421356 9.5,7.75 C9.5,7.33578644 9.83578644,7 10.25,7 Z M10.25,10 L16.25,10 C16.6642136,10 17,10.3357864 17,10.75 C17,11.1642136 16.6642136,11.5 16.25,11.5 L10.25,11.5 C9.83578644,11.5 9.5,11.1642136 9.5,10.75 C9.5,10.3357864 9.83578644,10 10.25,10 Z M6.25,13 L15.75,13 C16.4403559,13 17,13.5596441 17,14.25 L17,17.75 C17,18.4403559 16.4403559,19 15.75,19 L6.25,19 C5.55964406,19 5,18.4403559 5,17.75 L5,14.25 C5,13.5596441 5.55964406,13 6.25,13 Z"/>
</svg>
