<svg xmlns="http://www.w3.org/2000/svg" width="24" height="24" viewBox="0 0 24 24">
  <path d="M7,3 L17,3 C19.209139,3 21,4.790861 21,7 L21,17 C21,19.209139 19.209139,21 17,21 L7,21 C4.790861,21 3,19.209139 3,17 L3,7 C3,4.790861 4.790861,3 7,3 Z M7,4.5 C5.61928813,4.5 4.5,5.61928813 4.5,7 L4.5,17 C4.5,18.3807119 5.61928813,19.5 7,19.5 L17,19.5 C18.3807119,19.5 19.5,18.3807119 19.5,17 L19.5,7 C19.5,5.61928813 18.3807119,4.5 17,4.5 L7,4.5 Z M12.75,11.25 L16,11.25 L16,12.75 L12.75,12.75 L12.75,16 L11.25,16 L11.25,12.75 L8,12.75 L8,11.25 L11.25,11.25 L11.25,8 L12.75,8 L12.75,11.25 Z"/>
</svg>
