<svg xmlns="http://www.w3.org/2000/svg" width="24" height="24" viewBox="0 0 24 24">
  <path id="new-post-svg" d="M21,3 L23.75,3 L23.75,4.5 L21,4.5 L21,7.25 L19.5,7.25 L19.5,4.5 L16.75,4.5 L16.75,3 L19.5,3 L19.5,0.25 L21,0.25 L21,3 Z M15,3 L15,4.5 L7,4.5 C5.61928813,4.5 4.5,5.61928813 4.5,7 L4.5,17 C4.5,18.3807119 5.61928813,19.5 7,19.5 L17,19.5 C18.3807119,19.5 19.5,18.3807119 19.5,17 L19.5,9 L21,9 L21,17 C21,19.209139 19.209139,21 17,21 L7,21 C4.790861,21 3,19.209139 3,17 L3,7 C3,4.790861 4.790861,3 7,3 L15,3 Z M7.5,9.75 C6.67157288,9.75 6,9.07842712 6,8.25 C6,7.42157288 6.67157288,6.75 7.5,6.75 C8.32842712,6.75 9,7.42157288 9,8.25 C9,9.07842712 8.32842712,9.75 7.5,9.75 Z M11.25,6 L17.25,6 C17.6642136,6 18,6.33578644 18,6.75 C18,7.16421356 17.6642136,7.5 17.25,7.5 L11.25,7.5 C10.8357864,7.5 10.5,7.16421356 10.5,6.75 C10.5,6.33578644 10.8357864,6 11.25,6 Z M11.25,9 L17.25,9 C17.6642136,9 18,9.33578644 18,9.75 C18,10.1642136 17.6642136,10.5 17.25,10.5 L11.25,10.5 C10.8357864,10.5 10.5,10.1642136 10.5,9.75 C10.5,9.33578644 10.8357864,9 11.25,9 Z M7.25,12 L16.75,12 C17.4403559,12 18,12.5596441 18,13.25 L18,16.75 C18,17.4403559 17.4403559,18 16.75,18 L7.25,18 C6.55964406,18 6,17.4403559 6,16.75 L6,13.25 C6,12.5596441 6.55964406,12 7.25,12 Z" />
</svg>
