<svg xmlns="http://www.w3.org/2000/svg" width="24" height="24" viewBox="0 0 24 24">
  <path d="M9.6916556,2 L14.3083444,2 C16.9829006,2 17.9527593,2.27847683 18.9305371,2.80139811 C19.9083149,3.32431939 20.6756806,4.09168511 21.1986019,5.06946289 C21.7215232,6.04724067 22,7.01709938 22,9.6916556 L22,14.3083444 C22,16.9829006 21.7215232,17.9527593 21.1986019,18.9305371 C20.6756806,19.9083149 19.9083149,20.6756806 18.9305371,21.1986019 C17.9527593,21.7215232 16.9829006,22 14.3083444,22 L9.6916556,22 C7.01709938,22 6.04724067,21.7215232 5.06946289,21.1986019 C4.09168511,20.6756806 3.32431939,19.9083149 2.80139811,18.9305371 C2.27847683,17.9527593 2,16.9829006 2,14.3083444 L2,9.6916556 C2,7.01709938 2.27847683,6.04724067 2.80139811,5.06946289 C3.32431939,4.09168511 4.09168511,3.32431939 5.06946289,2.80139811 C6.04724067,2.27847683 7.01709938,2 9.6916556,2 Z M9.6916556,3.5 C7.47965279,3.5 6.64105878,3.66193997 5.77686118,4.12411791 C5.06048611,4.50723949 4.50723949,5.06048611 4.12411791,5.77686118 C3.66193997,6.64105878 3.5,7.47965279 3.5,9.6916556 L3.5,14.3083444 C3.5,16.5203472 3.66193997,17.3589412 4.12411791,18.2231388 C4.50723949,18.9395139 5.06048611,19.4927605 5.77686118,19.8758821 C6.64105878,20.33806 7.47965279,20.5 9.6916556,20.5 L14.3083444,20.5 C16.5203472,20.5 17.3589412,20.33806 18.2231388,19.8758821 C18.9395139,19.4927605 19.4927605,18.9395139 19.8758821,18.2231388 C20.33806,17.3589412 20.5,16.5203472 20.5,14.3083444 L20.5,9.6916556 C20.5,7.47965279 20.33806,6.64105878 19.8758821,5.77686118 C19.4927605,5.06048611 18.9395139,4.50723949 18.2231388,4.12411791 C17.3589412,3.66193997 16.5203472,3.5 14.3083444,3.5 L9.6916556,3.5 Z M12.75,11.25 L16.5,11.25 L16.5,12.75 L12.75,12.75 L12.75,16.5 L11.25,16.5 L11.25,12.75 L7.5,12.75 L7.5,11.25 L11.25,11.25 L11.25,7.5 L12.75,7.5 L12.75,11.25 Z"/>
</svg>
