<svg xmlns="http://www.w3.org/2000/svg" width="24" height="24" viewBox="0 0 24 24">
  <path d="M9,2 C11.2091,2 13,3.79086 13,6 L5,6 C5,3.79086 6.79086,2 9,2 Z M11.8392,8.81759 L11,17 L10,17 L10,18 C9.99999,19.1046 10.8954,20 12,20 C13.1046,20 14,19.1046 14,18 L14,13 C14,10.7909 15.7909,9 18,9 L20,9 L19,10 L20,11 L18,11 C16.8954,11 16,11.8954 16,13 L16,18 C16,20.2091 14.2091,22 12,22 C9.79087,22 8,20.2091 8,18 L8,17 L7,17 L6.16078,8.81759 C5.66869,8.32175 5.30559,7.69771 5.12602,7 L12.874,7 C12.6944,7.69771 12.3313,8.32175 11.8392,8.81759 Z M9,10 C8.44771,10 8,10.4477 8,11 C8,11.5523 8.44771,12 9,12 C9.55229,12 10,11.5523 10,11 C10,10.4477 9.55229,10 9,10 Z"/>
</svg>
