<svg xmlns="http://www.w3.org/2000/svg" width="24" height="24" viewBox="0 0 24 24">
  <path d="M18,13.6666667 L18,13.6666667 C18,14.5321475 18.2807115,15.374282 18.8,16.0666667 L19.5,17 C19.6622777,17.2163702 19.75,17.4795372 19.75,17.75 C19.75,18.4403559 19.1903559,19 18.5,19 L5.5,19 C5.22953723,19 4.96637021,18.9122777 4.75,18.75 C4.19771525,18.3357864 4.08578644,17.5522847 4.5,17 L5.2,16.0666667 C5.71928851,15.374282 6,14.5321475 6,13.6666667 L6,10 C6,6.6862915 8.6862915,4 12,4 C15.3137085,4 18,6.6862915 18,10 L18,13.6666667 Z M10,20 L14,20 C14,21.1045695 13.1045695,22 12,22 C10.8954305,22 10,21.1045695 10,20 Z"/>
</svg>
