<svg xmlns="http://www.w3.org/2000/svg" width="24" height="24" viewBox="0 0 24 24">
  <path d="M18.6894577,14.8014497 C18.6894577,17.7635666 16.3311796,19.5 13.5,19.5 L8,19.5 C6.61928813,19.5 5.5,18.3807119 5.5,17 L5.5,7.5 C5.5,6.11928813 6.61928813,5 8,5 L13.5,5 C15.9683334,5 18.0388375,6.83214408 18.0388375,9.3929111 C18.0388375,10.1953005 17.8342567,10.9566622 17.4651562,11.6231172 C18.2386843,12.4435616 18.6894577,13.5307005 18.6894577,14.8014497 Z M13.5,18 C15.2574935,18 17.1894577,17.0594181 17.1894577,14.8014497 C17.1894577,13.3297693 16.3470651,12.3740111 15.2878974,11.8868275 C16.0257922,11.3329445 16.5388375,10.4447447 16.5388375,9.3929111 C16.5388375,7.60223981 15.0627592,6.5 13.5,6.5 L8,6.5 C7.44771525,6.5 7,6.94771525 7,7.5 L7,17 C7,17.5522847 7.44771525,18 8,18 L13.5,18 Z M13,8.75 C13.4142136,8.75 13.75,9.08578644 13.75,9.5 C13.75,9.91421356 13.4142136,10.25 13,10.25 L10.25,10.25 L10.25,8.75 L13,8.75 Z M13,13.75 C13.4142136,13.75 13.75,14.0857864 13.75,14.5 C13.75,14.9142136 13.4142136,15.25 13,15.25 L10.25,15.25 L10.25,13.75 L13,13.75 Z"/>
</svg>
