<svg xmlns="http://www.w3.org/2000/svg" width="24" height="24" viewBox="0 0 24 24">
  <path d="M8.06727431,14.75 L11.0577022,9.0437753 C10.2857059,8.68724795 9.75,7.90618438 9.75,7 C9.75,5.75735931 10.7573593,4.75 12,4.75 L17,4.75 C18.2426407,4.75 19.25,5.75735931 19.25,7 C19.25,8.24264069 18.2426407,9.25 17,9.25 L15.9327257,9.25 L12.9422978,14.9562247 C13.7142941,15.312752 14.25,16.0938156 14.25,17 C14.25,18.2426407 13.2426407,19.25 12,19.25 L7,19.25 C5.75735931,19.25 4.75,18.2426407 4.75,17 C4.75,15.7573593 5.75735931,14.75 7,14.75 L8.06727431,14.75 Z M8.97467955,16.25 L7,16.25 C6.58578644,16.25 6.25,16.5857864 6.25,17 C6.25,17.4142136 6.58578644,17.75 7,17.75 L12,17.75 C12.4142136,17.75 12.75,17.4142136 12.75,17 C12.75,16.5857864 12.4142136,16.25 12,16.25 L10.570775,16.25 L15.0253204,7.75 L17,7.75 C17.4142136,7.75 17.75,7.41421356 17.75,7 C17.75,6.58578644 17.4142136,6.25 17,6.25 L12,6.25 C11.5857864,6.25 11.25,6.58578644 11.25,7 C11.25,7.41421356 11.5857864,7.75 12,7.75 L13.429225,7.75 L8.97467955,16.25 Z"/>
</svg>
