<svg xmlns="http://www.w3.org/2000/svg" width="24" height="24" viewBox="0 0 24 24">
  <path d="M3.80761,13.1213 L6.63604,10.2929 L9.17304,9.7855 C12.39,5.40972 18.5532,3.22183 20.7782,3.22183 C20.7782,5.44683 18.5903,11.61 14.2145,14.827 L13.7071,17.364 L10.87868,20.1924 L10.17157,16.6569 C8.75736,16.6569 8.75736,16.6569 8.05025,15.9497 C7.34315,15.2426 7.34315,15.2426 7.34315,13.8284 L3.80761,13.1213 Z M6.63604,15.9497 L8.05025,17.364 L5.38603,20.0282 L3.97181,20.0282 L3.97181,18.614 L6.63604,15.9497 Z M5.22182,14.5355 L6.45926,14.7123 L4.01472,17.1569 L4.01472,15.7426 L5.22182,14.5355 Z M9.28769,17.5407 L9.46447,18.7782 L8.25735,19.9853 L6.84314,19.9853 L9.28769,17.5407 Z M14,8.5 C13.1716,8.5 12.5,9.1716 12.5,10 C12.5,10.8284 13.1716,11.5 14,11.5 C14.8284,11.5 15.5,10.8284 15.5,10 C15.5,9.1716 14.8284,8.5 14,8.5 Z"/>
</svg>
