<svg xmlns="http://www.w3.org/2000/svg" width="24" height="24" viewBox="0 0 24 24">
  <path d="M5,10.5 C5.83,10.5 6.5,11.17 6.5,12 C6.5,12.83 5.83,13.5 5,13.5 C4.17,13.5 3.5,12.83 3.5,12 C3.5,11.17 4.17,10.5 5,10.5 Z M5,4.5 C5.83,4.5 6.5,5.17 6.5,6 C6.5,6.83 5.83,7.5 5,7.5 C4.17,7.5 3.5,6.83 3.5,6 C3.5,5.17 4.17,4.5 5,4.5 Z M5,16.5 C5.83,16.5 6.5,17.18 6.5,18 C6.5,18.82 5.82,19.5 5,19.5 C4.18,19.5 3.5,18.82 3.5,18 C3.5,17.18 4.17,16.5 5,16.5 Z M9.75,18.75 C9.33578644,18.75 9,18.4142136 9,18 C9,17.5857864 9.33578644,17.25 9.75,17.25 L20.25,17.25 C20.6642136,17.25 21,17.5857864 21,18 C21,18.4142136 20.6642136,18.75 20.25,18.75 L9.75,18.75 Z M9.75,12.75 C9.33578644,12.75 9,12.4142136 9,12 C9,11.5857864 9.33578644,11.25 9.75,11.25 L20.25,11.25 C20.6642136,11.25 21,11.5857864 21,12 C21,12.4142136 20.6642136,12.75 20.25,12.75 L9.75,12.75 Z M9,6 C9,5.58578644 9.33578644,5.25 9.75,5.25 L20.25,5.25 C20.6642136,5.25 21,5.58578644 21,6 C21,6.41421356 20.6642136,6.75 20.25,6.75 L9.75,6.75 C9.33578644,6.75 9,6.41421356 9,6 Z"/>
</svg>
