<svg xmlns="http://www.w3.org/2000/svg" width="24" height="24" viewBox="0 0 24 24">
  <path d="M3,17 L3,16 L6,16 L6,20 L3,20 L3,19 L5,19 L5,18.5 L4,18.5 L4,17.5 L5,17.5 L5,17 L3,17 Z M4,8 L4,5 L3,5 L3,4 L5,4 L5,8 L4,8 Z M3,11 L3,10 L6,10 L6,10.9 L4.2,13 L6,13 L6,14 L3,14 L3,13.1 L4.8,11 L3,11 Z M9.75,18.75 C9.33578644,18.75 9,18.4142136 9,18 C9,17.5857864 9.33578644,17.25 9.75,17.25 L20.25,17.25 C20.6642136,17.25 21,17.5857864 21,18 C21,18.4142136 20.6642136,18.75 20.25,18.75 L9.75,18.75 Z M9.75,12.75 C9.33578644,12.75 9,12.4142136 9,12 C9,11.5857864 9.33578644,11.25 9.75,11.25 L20.25,11.25 C20.6642136,11.25 21,11.5857864 21,12 C21,12.4142136 20.6642136,12.75 20.25,12.75 L9.75,12.75 Z M9,6 C9,5.58578644 9.33578644,5.25 9.75,5.25 L20.25,5.25 C20.6642136,5.25 21,5.58578644 21,6 C21,6.41421356 20.6642136,6.75 20.25,6.75 L9.75,6.75 C9.33578644,6.75 9,6.41421356 9,6 Z"/>
</svg>
