<svg xmlns="http://www.w3.org/2000/svg" width="24" height="24" viewBox="0 0 24 24">
  <path d="M5.25,9.75 C5.25,6.71157288 7.71157288,4.25 10.75,4.25 L16.5,4.25 C17.7426407,4.25 18.75,5.25735931 18.75,6.5 C18.75,7.65813841 17.8749876,8.61190673 16.75,8.73626781 L16.75,18 C16.75,19.2426407 15.7426407,20.25 14.5,20.25 C13.9237342,20.25 13.3980674,20.0333598 13,19.6770799 C12.6019326,20.0333598 12.0762658,20.25 11.5,20.25 C10.2573593,20.25 9.25,19.2426407 9.25,18 L9.25,15.0431161 C6.94105207,14.3904691 5.25,12.2683783 5.25,9.75 Z M10.75,13.75 L10.75,18 C10.75,18.4142136 11.0857864,18.75 11.5,18.75 C11.9142136,18.75 12.25,18.4142136 12.25,18 L12.25,7.25 L13.75,7.25 L13.75,18 C13.75,18.4142136 14.0857864,18.75 14.5,18.75 C14.9142136,18.75 15.25,18.4142136 15.25,18 L15.25,7.25 L16.5,7.25 C16.9142136,7.25 17.25,6.91421356 17.25,6.5 C17.25,6.08578644 16.9142136,5.75 16.5,5.75 L10.75,5.75 C8.54,5.75 6.75,7.54 6.75,9.75 C6.75,11.96 8.54,13.75 10.75,13.75 Z"/>
</svg>
