<svg xmlns="http://www.w3.org/2000/svg" width="24" height="24" viewBox="0 0 24 24">
  <path d="M17,6.00448762 C17.1671648,5.9116183 17.3754437,5.93931545 17.5125285,6.07264418 C17.6840747,6.23949022 17.687885,6.51381138 17.5210469,6.68536539 C16.1736823,8.07068652 15.5,9.34372726 15.5,10.5044876 L16,10.5044876 C17.9329966,10.5044876 19.5,12.071491 19.5,14.0044876 C19.5,15.9374842 17.9329966,17.5044876 16,17.5044876 C14.0670034,17.5044876 12.5,15.9374842 12.5,14.0044876 L12.5,13.0044876 C12.5,10.2270526 14.0057927,7.66793611 16.4337077,6.31909443 L17,6.00448762 Z M9,6.00448762 C9.16716478,5.9116183 9.37544373,5.93931545 9.51252845,6.07264418 C9.68407471,6.23949022 9.68788498,6.51381138 9.52104691,6.68536539 C8.1736823,8.07068652 7.5,9.34372726 7.5,10.5044876 L8,10.5044876 C9.93299662,10.5044876 11.5,12.071491 11.5,14.0044876 C11.5,15.9374842 9.93299662,17.5044876 8,17.5044876 C6.06700338,17.5044876 4.5,15.9374842 4.5,14.0044876 L4.5,13.0044876 C4.5,10.2270526 6.00579271,7.66793611 8.43370774,6.31909443 L9,6.00448762 Z"/>
</svg>
