<svg xmlns="http://www.w3.org/2000/svg" width="24" height="24" viewBox="0 0 24 24">
  <path d="M19.25,14.406157 C19.25,16.615296 17.459139,18.406157 15.25,18.406157 C13.040861,18.406157 11.25,16.615296 11.25,14.406157 C11.25,11.0263526 13.0308638,7.95314408 15.8771929,6.2496295 C17.6588878,5.18329349 19.4936742,7.56291348 17.9759527,9.02436743 C17.4736166,9.50808004 17.109456,10.1073198 16.9140871,10.767669 C18.2924922,11.39912 19.25,12.7908195 19.25,14.406157 Z M12.75,14.406157 C12.75,15.7868689 13.8692881,16.906157 15.25,16.906157 C16.6307119,16.906157 17.75,15.7868689 17.75,14.406157 C17.75,13.0254451 16.6307119,11.906157 15.25,11.906157 C15.25,10.3497828 15.8964592,8.94439729 16.9355107,7.9438673 C17.1713576,7.71676417 16.8932237,7.38966525 16.647512,7.53672253 C14.312939,8.93395351 12.75,11.4875333 12.75,14.406157 Z M12.75,14.406157 C12.75,16.615296 10.959139,18.406157 8.75,18.406157 C6.540861,18.406157 4.75,16.615296 4.75,14.406157 C4.75,11.0263526 6.53086376,7.95314408 9.37719291,6.2496295 C11.1588878,5.18329349 12.9936742,7.56291348 11.4759527,9.02436743 C10.9736166,9.50808004 10.609456,10.1073198 10.4140871,10.767669 C11.7924922,11.39912 12.75,12.7908195 12.75,14.406157 Z M6.25,14.406157 C6.25,15.7868689 7.36928813,16.906157 8.75,16.906157 C10.1307119,16.906157 11.25,15.7868689 11.25,14.406157 C11.25,13.0254451 10.1307119,11.906157 8.75,11.906157 C8.75,10.3497828 9.39645922,8.94439729 10.4355107,7.9438673 C10.6713576,7.71676417 10.3932237,7.38966525 10.147512,7.53672253 C7.81293896,8.93395351 6.25,11.4875333 6.25,14.406157 Z"/>
</svg>
