<svg xmlns="http://www.w3.org/2000/svg" width="24" height="24" viewBox="0 0 24 24">
  <path d="M15.4196716,21.0001349 L15.4196716,14.0295886 L17.7594632,14.0295886 L18.1097608,11.3129943 L15.4196716,11.3129943 L15.4196716,9.57856894 C15.4196716,8.7920515 15.6380512,8.2560839 16.7659639,8.2560839 L18.2045179,8.25540947 L18.2045179,5.82571667 C17.9556541,5.79266972 17.1017614,5.71868502 16.1083296,5.71868502 C14.0342624,5.71868502 12.61439,6.98465303 12.61439,9.30960722 L12.61439,11.3129943 L10.2686635,11.3129943 L10.2686635,14.0295886 L12.61439,14.0295886 L12.61439,21.0001349 L3.99343182,21.0001349 C3.4446501,21.0001349 3,20.5552825 3,20.0067031 L3,3.99349927 C3,3.44471755 3.4446501,3 3.99343182,3 L20.0065682,3 C20.5551476,3 21,3.44471755 21,3.99349927 L21,20.0067031 C21,20.5552825 20.5551476,21.0001349 20.0065682,21.0001349 L15.4196716,21.0001349 Z"/>
</svg>
