<svg xmlns="http://www.w3.org/2000/svg" width="24" height="24" viewBox="0 0 24 24">
  <path d="M6.75,9.75 L8.25,9.75 L8.25,7.5 C8.25,6.25735931 9.25735931,5.25 10.5,5.25 C11.7426407,5.25 12.75,6.25735931 12.75,7.5 L12.75,16.5 C12.75,17.7426407 11.7426407,18.75 10.5,18.75 C9.25735931,18.75 8.25,17.7426407 8.25,16.5 L8.25,14.25 L6.75,14.25 L6.75,16.5 C6.75,17.7426407 5.74264069,18.75 4.5,18.75 C3.25735931,18.75 2.25,17.7426407 2.25,16.5 L2.25,7.5 C2.25,6.25735931 3.25735931,5.25 4.5,5.25 C5.74264069,5.25 6.75,6.25735931 6.75,7.5 L6.75,9.75 Z M5.25,7.5 C5.25,7.08578644 4.91421356,6.75 4.5,6.75 C4.08578644,6.75 3.75,7.08578644 3.75,7.5 L3.75,16.5 C3.75,16.9142136 4.08578644,17.25 4.5,17.25 C4.91421356,17.25 5.25,16.9142136 5.25,16.5 L5.25,12.75 L9.75,12.75 L9.75,16.5 C9.75,16.9142136 10.0857864,17.25 10.5,17.25 C10.9142136,17.25 11.25,16.9142136 11.25,16.5 L11.25,7.5 C11.25,7.08578644 10.9142136,6.75 10.5,6.75 C10.0857864,6.75 9.75,7.08578644 9.75,7.5 L9.75,11.25 L5.25,11.25 L5.25,7.5 Z M18.75,10.5 L18.75,14.25 L19.5,14.25 C20.7426407,14.25 21.75,15.2573593 21.75,16.5 C21.75,17.7426407 20.7426407,18.75 19.5,18.75 L16.5,18.75 C15.2573593,18.75 14.25,17.7426407 14.25,16.5 L14.25,10.5 C14.25,9.25735931 15.2573593,8.25 16.5,8.25 C17.7426407,8.25 18.75,9.25735931 18.75,10.5 Z M19.5,15.75 L17.25,15.75 L17.25,10.5 C17.25,10.0857864 16.9142136,9.75 16.5,9.75 C16.0857864,9.75 15.75,10.0857864 15.75,10.5 L15.75,16.5 C15.75,16.9142136 16.0857864,17.25 16.5,17.25 L19.5,17.25 C19.9142136,17.25 20.25,16.9142136 20.25,16.5 C20.25,16.0857864 19.9142136,15.75 19.5,15.75 Z"/>
</svg>
