<svg xmlns="http://www.w3.org/2000/svg" width="24" height="24" viewBox="0 0 24 24">
  <path d="M5.75,9.75 L7.25,9.75 L7.25,7.5 C7.25,6.25735931 8.25735931,5.25 9.5,5.25 C10.7426407,5.25 11.75,6.25735931 11.75,7.5 L11.75,16.5 C11.75,17.7426407 10.7426407,18.75 9.5,18.75 C8.25735931,18.75 7.25,17.7426407 7.25,16.5 L7.25,14.25 L5.75,14.25 L5.75,16.5 C5.75,17.7426407 4.74264069,18.75 3.5,18.75 C2.25735931,18.75 1.25,17.7426407 1.25,16.5 L1.25,7.5 C1.25,6.25735931 2.25735931,5.25 3.5,5.25 C4.74264069,5.25 5.75,6.25735931 5.75,7.5 L5.75,9.75 Z M4.25,7.5 C4.25,7.08578644 3.91421356,6.75 3.5,6.75 C3.08578644,6.75 2.75,7.08578644 2.75,7.5 L2.75,16.5 C2.75,16.9142136 3.08578644,17.25 3.5,17.25 C3.91421356,17.25 4.25,16.9142136 4.25,16.5 L4.25,12.75 L8.75,12.75 L8.75,16.5 C8.75,16.9142136 9.08578644,17.25 9.5,17.25 C9.91421356,17.25 10.25,16.9142136 10.25,16.5 L10.25,7.5 C10.25,7.08578644 9.91421356,6.75 9.5,6.75 C9.08578644,6.75 8.75,7.08578644 8.75,7.5 L8.75,11.25 L4.25,11.25 L4.25,7.5 Z M18.9902039,11.331759 C19.918489,10.4963129 21.341129,10.5711931 22.1724068,11.4948369 C22.5505331,11.9149781 22.7522724,12.4548702 22.7499936,13.0028832 L22.7499936,16.5000064 C22.7499936,17.7426465 21.7426356,18.7500064 20.499995,18.7500064 C19.5980707,18.7500064 18.8200941,18.219325 18.4612771,17.4531755 C18.1562326,17.5172899 17.841246,17.5176133 17.5379423,17.4548405 C17.1787784,18.2200937 16.4012758,18.7500064 15.500005,18.7500064 C14.2573644,18.7500064 13.2500064,17.7426465 13.2500064,16.5000064 L13.2500193,13.0090856 C13.2477276,12.4548702 13.4494669,11.9149781 13.8275932,11.4948369 C14.6588756,10.571188 16.0815284,10.4963114 17.0051757,11.3275956 L18.0000014,12.2229405 L18.9902039,11.331759 Z M18,14.2409846 L16.0038658,12.4444603 C15.6938456,12.1654416 15.2196292,12.1904004 14.9425355,12.4982829 C14.8127847,12.6424507 14.749263,12.8230898 14.7500064,13.0028832 L14.7500064,16.5000064 C14.7500064,16.91422 15.0857922,17.2500064 15.500005,17.2500064 C15.9142177,17.2500064 16.2500035,16.91422 16.2500035,16.5000064 L16.2500035,14.6840283 L17.4918294,15.8016738 C17.7732086,16.0614775 18.2114112,16.0687578 18.5017631,15.807522 C18.5031929,15.806232 18.9192707,15.4317341 19.7499965,14.6840283 L19.7499965,16.5000064 C19.7499965,16.91422 20.0857823,17.2500064 20.499995,17.2500064 C20.9142078,17.2500064 21.2499936,16.91422 21.2499936,16.5000064 L21.2499936,13.0028832 C21.250737,12.8230898 21.1872153,12.6424507 21.0574645,12.4982829 C20.7803708,12.1904004 20.3061544,12.1654416 19.9982682,12.4425311 L18,14.2409846 Z"/>
</svg>
