<svg xmlns="http://www.w3.org/2000/svg" width="24" height="24" viewBox="0 0 24 24">
  <path d="M5.75,9.75 L7.25,9.75 L7.25,7.5 C7.25,6.25735931 8.25735931,5.25 9.5,5.25 C10.7426407,5.25 11.75,6.25735931 11.75,7.5 L11.75,16.5 C11.75,17.7426407 10.7426407,18.75 9.5,18.75 C8.25735931,18.75 7.25,17.7426407 7.25,16.5 L7.25,14.25 L5.75,14.25 L5.75,16.5 C5.75,17.7426407 4.74264069,18.75 3.5,18.75 C2.25735931,18.75 1.25,17.7426407 1.25,16.5 L1.25,7.5 C1.25,6.25735931 2.25735931,5.25 3.5,5.25 C4.74264069,5.25 5.75,6.25735931 5.75,7.5 L5.75,9.75 Z M4.25,7.5 C4.25,7.08578644 3.91421356,6.75 3.5,6.75 C3.08578644,6.75 2.75,7.08578644 2.75,7.5 L2.75,16.5 C2.75,16.9142136 3.08578644,17.25 3.5,17.25 C3.91421356,17.25 4.25,16.9142136 4.25,16.5 L4.25,12.75 L8.75,12.75 L8.75,16.5 C8.75,16.9142136 9.08578644,17.25 9.5,17.25 C9.91421356,17.25 10.25,16.9142136 10.25,16.5 L10.25,7.5 C10.25,7.08578644 9.91421356,6.75 9.5,6.75 C9.08578644,6.75 8.75,7.08578644 8.75,7.5 L8.75,11.25 L4.25,11.25 L4.25,7.5 Z M13.7501643,12.75 L13.7501643,11.75 C13.7501643,10.8977629 14.2316696,10.1186709 14.9939337,9.73753882 L16.9939337,8.73753882 C17.6273706,8.42082039 18.372958,8.42082039 19.0063949,8.73753882 L21.0063949,9.73753882 C22.1178465,10.2932646 22.5683513,11.644779 22.0126255,12.7562306 C21.92103,12.9394216 21.807816,13.1046572 21.6776217,13.2503915 C22.0400243,13.6559069 22.2501643,14.1869924 22.2501643,14.75 L22.2501643,15.75 C22.2501643,16.6022371 21.7686589,17.3813291 21.0063949,17.7624612 L19.0063949,18.7624612 C18.372958,19.0791796 17.6273706,19.0791796 16.9939337,18.7624612 L14.9939337,17.7624612 C13.8824821,17.2067354 13.4319773,15.855221 13.9877031,14.7437694 C14.0792986,14.5605784 14.1925125,14.3953428 14.3227069,14.2496085 C13.9603043,13.8440931 13.7501643,13.3130076 13.7501643,12.75 Z M15.6647541,13.4208204 L19.2501643,15.2135255 L19.2501643,15.2864745 L18.0001643,15.9114745 L16.3355745,15.0791796 C15.9650906,14.8939377 15.5145858,15.0441059 15.3293439,15.4145898 C15.144102,15.7850737 15.2942702,16.2355785 15.6647541,16.4208204 L17.6647541,17.4208204 C17.8758997,17.5263932 18.1244289,17.5263932 18.3355745,17.4208204 L20.3355745,16.4208204 C20.5896625,16.2937764 20.7501643,16.034079 20.7501643,15.75 L20.7501643,14.75 C20.7501643,14.465921 20.5896625,14.2062236 20.3355745,14.0791796 L16.7501643,12.2864745 L16.7501643,12.2135255 L18.0001643,11.5885255 L19.6647541,12.4208204 C20.035238,12.6060623 20.4857427,12.4558941 20.6709847,12.0854102 C20.8562266,11.7149263 20.7060584,11.2644215 20.3355745,11.0791796 L18.3355745,10.0791796 C18.1244289,9.9736068 17.8758997,9.9736068 17.6647541,10.0791796 L15.6647541,11.0791796 C15.4106661,11.2062236 15.2501643,11.465921 15.2501643,11.75 L15.2501643,12.75 C15.2501643,13.034079 15.4106661,13.2937764 15.6647541,13.4208204 Z"/>
</svg>
