<svg xmlns="http://www.w3.org/2000/svg" width="24" height="24" viewBox="0 0 24 24">
  <path d="M20.131728,12 L15.3587572,7.22702923 C15.065864,6.93413601 15.065864,6.45926227 15.3587572,6.16636906 C15.6516504,5.87347584 16.1265242,5.87347584 16.4194174,6.16636906 L22.2530483,12 L16.4194174,17.8336309 C16.1265242,18.1265242 15.6516504,18.1265242 15.3587572,17.8336309 C15.065864,17.5407377 15.065864,17.065864 15.3587572,16.7729708 L20.131728,12 Z M3.86827202,12 L8.64124279,16.7729708 C8.93413601,17.065864 8.93413601,17.5407377 8.64124279,17.8336309 C8.34834957,18.1265242 7.87347584,18.1265242 7.58058262,17.8336309 L1.74695167,12 L7.58058262,6.16636906 C7.87347584,5.87347584 8.34834957,5.87347584 8.64124279,6.16636906 C8.93413601,6.45926227 8.93413601,6.93413601 8.64124279,7.22702923 L3.86827202,12 Z"/>
</svg>
