<svg xmlns="http://www.w3.org/2000/svg" width="24" height="24" viewBox="0 0 24 24">
  <path d="M11,3.75 C11,4.16421356 10.6642136,4.5 10.25,4.5 L7,4.5 C5.61928813,4.5 4.5,5.61928813 4.5,7 L4.5,17 C4.5,18.3807119 5.61928813,19.5 7,19.5 L17,19.5 C18.3807119,19.5 19.5,18.3807119 19.5,17 L19.5,13.75 C19.5,13.3357864 19.8357864,13 20.25,13 C20.6642136,13 21,13.3357864 21,13.75 L21,17 C21,19.209139 19.209139,21 17,21 L7,21 C4.790861,21 3,19.209139 3,17 L3,7 C3,4.790861 4.790861,3 7,3 L10.25,3 C10.6642136,3 11,3.33578644 11,3.75 Z M19.5,5.56066017 L9.17157288,15.8890873 C8.87867966,16.1819805 8.40380592,16.1819805 8.1109127,15.8890873 C7.81801948,15.5961941 7.81801948,15.1213203 8.1109127,14.8284271 L18.4393398,4.5 L14.25,4.5 C13.8357864,4.5 13.5,4.16421356 13.5,3.75 C13.5,3.33578644 13.8357864,3 14.25,3 L21,3 L21,9.75 C21,10.1642136 20.6642136,10.5 20.25,10.5 C19.8357864,10.5 19.5,10.1642136 19.5,9.75 L19.5,5.56066017 Z"/>
</svg>
