<svg width="24" height="24" viewBox="0 0 24 24" xmlns="http://www.w3.org/2000/svg">
    <g id="Page-1" stroke="none" stroke-width="1" fill="none" fill-rule="evenodd">
        <g id="Artboard" fill-rule="nonzero" fill="#000000">
            <g id="059_ic_fireworks" transform="translate(0.000000, 2.000000)">
                <g id="Group" transform="translate(12.000000, 10.218750) scale(-1, 1) rotate(-180.000000) translate(-12.000000, -10.218750) translate(0.000000, 0.018750)">
                    <path d="M18.8301563,20.3864063 C18.7542187,20.37375 18.646875,20.2978125 18.5896875,20.221875 C18.4757812,20.0385937 17.3001563,15.67125 17.3001563,15.4059375 C17.3001563,15.0646875 17.6667188,14.8626562 17.9892187,15.0267187 C18.0904687,15.0834375 18.1917187,15.1785937 18.2104688,15.2353125 C18.375,15.7851562 19.449375,19.880625 19.449375,19.9504687 C19.449375,20.0770312 19.2220313,20.355 19.0889063,20.3864062 C19.0260938,20.3990625 18.9121875,20.3990625 18.8301563,20.3864063 Z" id="Shape"></path>
                    <path d="M12.4340625,18.6042187 C12.3520313,18.5221875 12.3075,18.395625 12.3075,18.24375 C12.3075,18.0164062 12.3895313,17.92125 14.0648438,16.2529688 C15.6070313,14.7107813 15.8470312,14.495625 16.018125,14.495625 C16.2707812,14.495625 16.4667187,14.66625 16.5173437,14.9254688 C16.561875,15.1340625 16.53,15.1720312 14.7665625,16.9354688 C13.155,18.5470312 12.9464062,18.7303125 12.763125,18.7303125 C12.6421875,18.7307812 12.51,18.6801563 12.4340625,18.6042187 Z" id="Shape"></path>
                    <path d="M15.8217187,18.4715625 C15.6070312,18.3009375 15.6070312,18.1809375 15.885,17.1192188 C16.1315625,16.1835938 16.2642187,15.9496875 16.5675,15.9496875 C16.78875,15.9496875 17.0479687,16.1835938 17.0479687,16.3795313 C17.0479687,16.4742188 16.9345312,16.9607813 16.8014062,17.4665625 C16.5421875,18.4209375 16.4348437,18.6042188 16.1315625,18.6042188 C16.055625,18.6042188 15.9164062,18.5475 15.8217187,18.4715625 Z" id="Shape"></path>
                    <path d="M19.5567188,16.6575 C18.7917188,15.8925 18.71625,15.75375 18.8803125,15.4439062 C18.975,15.2667187 19.265625,15.19125 19.4873438,15.2859375 C19.7278125,15.3932812 20.8776563,16.5628125 20.9596875,16.7901562 C21.08625,17.11875 20.865,17.4032812 20.4792188,17.4032812 C20.3339063,17.4032812 20.1571875,17.2579687 19.5567188,16.6575 Z" id="Shape"></path>
                    <path d="M3.939375,17.0807813 C3.83203125,16.9921875 3.77484375,16.8914063 3.77484375,16.7714063 C3.77484375,16.6701563 3.98953125,15.7978125 4.24875,14.83125 C4.741875,12.991875 4.8046875,12.853125 5.13375,12.853125 C5.36765625,12.853125 5.60765625,13.0870313 5.60765625,13.3209375 C5.60765625,13.4282813 5.3990625,14.300625 5.13984375,15.255 C4.77328125,16.6265625 4.64671875,17.0123438 4.5328125,17.1004688 C4.35046875,17.2514063 4.14796875,17.2453125 3.939375,17.0807813 Z" id="Shape"></path>
                    <path d="M21.0989062,15.2545312 C19.7840625,14.8940625 18.7542187,14.5846875 18.6848437,14.5214062 C18.4382812,14.3001562 18.5582812,13.8389062 18.8995312,13.7189062 C18.95625,13.6935937 20.0690625,13.959375 21.3642187,14.3067187 C23.3929688,14.85 23.7342188,14.9578125 23.8607813,15.0965625 C23.9367188,15.19125 24,15.3178125 24,15.3871875 C24,15.5517187 23.6648437,15.8864062 23.5134375,15.8803125 C23.4501562,15.87375 22.363125,15.5957812 21.0989062,15.2545312 Z" id="Shape"></path>
                    <path d="M6.391875,15.7476562 C6.22125,15.665625 6.170625,15.5582812 5.98125,14.83125 C5.9484375,14.6428125 5.915625,14.4548437 5.8828125,14.2664062 C5.90953125,14.2017187 5.93578125,14.1375 5.9625,14.0728125 C6.1771875,13.7821875 6.61359375,13.794375 6.765,14.1042187 C6.815625,14.1989062 6.91640625,14.5275 6.99234375,14.83125 C7.0996875,15.2798437 7.11234375,15.4125 7.055625,15.5264062 C6.90375,15.8104688 6.66984375,15.8864062 6.391875,15.7476562 Z" id="Shape"></path>
                    <path d="M7.80140625,14.4454687 C6.58171875,13.2257813 6.42984375,13.0485938 6.42984375,12.8653125 C6.42984375,12.6 6.61921875,12.4101563 6.89109375,12.4101563 C7.074375,12.4101563 7.2384375,12.5554688 8.47125,13.7878125 C9.6909375,15.0075 9.8428125,15.1846875 9.8428125,15.3679688 C9.8428125,15.6332812 9.6534375,15.823125 9.3815625,15.823125 C9.1978125,15.8235937 9.03375,15.6778125 7.80140625,14.4454687 Z" id="Shape"></path>
                    <path d="M12.598125,15.2479688 C12.3834375,15.0773438 12.3707812,14.7614063 12.5789062,14.578125 C12.7307812,14.4328125 14.2851562,13.9903125 14.626875,13.9903125 C15.0121875,13.9903125 15.2146875,14.5214063 14.9428125,14.799375 C14.8542187,14.8814063 13.0907812,15.380625 12.8826562,15.380625 C12.819375,15.380625 12.6932812,15.3239063 12.598125,15.2479688 Z" id="Shape"></path>
                    <path d="M2.54296875,14.6540625 C2.265,14.3821875 2.32828125,14.218125 2.90953125,13.6303125 C3.49734375,13.0490625 3.66140625,12.9853125 3.93328125,13.26375 C4.22390625,13.5482812 4.160625,13.756875 3.598125,14.319375 C3.035625,14.881875 2.82703125,14.9446875 2.54296875,14.6540625 Z" id="Shape"></path>
                    <path d="M13.11,13.111875 C11.8082813,12.7579688 10.8032812,12.448125 10.74,12.3914063 C10.5820313,12.2334375 10.6073438,11.8476563 10.7845313,11.7089063 C10.8670313,11.6395313 10.993125,11.5889063 11.0690625,11.5889063 C11.3535937,11.5889063 15.815625,12.82125 15.9229687,12.9285938 C15.98625,12.991875 16.0364062,13.1371875 16.0364062,13.26375 C16.0364062,13.554375 15.853125,13.7376563 15.58125,13.7315625 C15.4678125,13.725 14.355,13.4470313 13.11,13.111875 Z" id="Shape"></path>
                    <path d="M0.2990625,13.4025 C-0.136875,13.1878125 -0.08625,12.6820313 0.38765625,12.5114063 C0.82359375,12.3534375 3.74390625,11.5884375 3.91453125,11.5884375 C4.123125,11.5884375 4.344375,11.835 4.344375,12.0689063 C4.344375,12.4101563 4.17984375,12.4860938 2.35359375,12.9726563 C1.4184375,13.2253125 0.6028125,13.4404688 0.5521875,13.453125 C0.5015625,13.4723438 0.38765625,13.4470313 0.2990625,13.4025 Z" id="Shape"></path>
                    <path d="M19.7085937,13.3771875 C19.5,13.2 19.4746875,12.9032813 19.651875,12.7073438 C19.7653125,12.5746875 19.9804687,12.4921875 20.7515625,12.29625 C21.5985937,12.075 21.7246875,12.0557813 21.8953125,12.125625 C22.0978125,12.2076563 22.1671875,12.328125 22.1671875,12.568125 C22.1671875,12.8653125 21.99,12.9726563 21.0103125,13.231875 C19.9425,13.5229688 19.891875,13.5229688 19.7085937,13.3771875 Z" id="Shape"></path>
                    <path d="M8.6859375,12.9225 C8.12578125,12.7157813 8.0653125,12.7345313 7.978125,12.6253125 C7.82671875,12.4359375 7.8834375,12.0942188 8.09203125,11.9428125 C8.12390625,11.9095313 8.173125,11.8682813 8.24203125,11.840625 C8.43796875,11.761875 8.625,11.8621875 8.6559375,11.8795313 C8.71546875,11.9029688 8.8171875,11.9423438 8.9446875,11.9873438 C9.4659375,12.1696875 9.70640625,12.19875 9.8034375,12.38625 C9.83109375,12.4392188 9.84234375,12.49875 9.84234375,12.5685938 C9.84234375,12.631875 9.8390625,12.7429688 9.77671875,12.8573438 C9.75890625,12.8896875 9.72234375,12.9557813 9.6478125,13.0125 C9.6478125,13.0125 9.58921875,13.0575 9.51515625,13.0828125 C9.30421875,13.155 8.8378125,12.9782813 8.6859375,12.9225 Z" id="Shape"></path>
                    <path d="M18.375,12.8971875 C18.1284375,12.770625 18.0210937,12.530625 18.1157812,12.3032813 C18.2292187,12.0248438 21.5221875,8.76421875 21.7434375,8.70703125 C22.0153125,8.64375 22.2553125,8.84625 22.280625,9.1621875 C22.299375,9.40875 22.2871875,9.42140625 20.5425,11.1595313 C19.5754687,12.1204688 18.7284375,12.9229688 18.6590625,12.9417188 C18.5901562,12.9604688 18.4635937,12.94125 18.375,12.8971875 Z" id="Shape"></path>
                    <path d="M16.5103125,12.346875 C16.4029688,12.226875 15.1514063,7.73296875 15.1514063,7.4615625 C15.1514063,7.29703125 15.4359375,7.03828125 15.6192188,7.03828125 C15.9984375,7.03828125 16.0551563,7.16484375 16.7001563,9.57890625 C17.02875,10.8239063 17.300625,11.9235938 17.300625,12.0309375 C17.300625,12.4228125 16.7695313,12.6314063 16.5103125,12.346875 Z" id="Shape"></path>
                    <path d="M14.1529687,11.355 C12.9014062,10.0340625 12.2128125,8.23265625 11.9976562,5.74265625 C11.814375,3.6 11.84625,0.395625 12.0482812,0.14296875 C12.20625,-0.05296875 12.5475,-0.0403125 12.7307812,0.174375 L12.8760937,0.345 L12.8760937,2.50640625 C12.8760937,4.813125 12.9328125,5.7675 13.12875,6.89296875 C13.4198437,8.52984375 13.963125,9.71765625 14.88,10.7165625 C15.253125,11.1210938 15.290625,11.285625 15.0825,11.5504688 C14.9878125,11.6709375 14.8992187,11.715 14.7220312,11.715 C14.5260937,11.715 14.4440625,11.664375 14.1529687,11.355 Z" id="Shape"></path>
                    <path d="M7.005,11.424375 C6.9290625,11.3296875 6.87234375,11.1904688 6.87234375,11.115 C6.87234375,10.7864063 7.0115625,10.723125 8.83171875,10.23 C9.78609375,9.97078125 10.6584375,9.75609375 10.7657812,9.75609375 C10.9996875,9.75609375 11.2335938,9.9834375 11.2335938,10.21125 C11.2335938,10.5717188 11.1135937,10.6223438 9.27421875,11.1210938 C8.31984375,11.37375 7.44796875,11.5889063 7.3340625,11.5889063 C7.194375,11.5889063 7.093125,11.5382813 7.005,11.424375 Z" id="Shape"></path>
                    <path d="M17.8378125,11.4496875 C17.660625,11.355 17.5532813,11.2092188 17.5532813,11.0578125 C17.5467188,10.7732813 18.0210938,9.1490625 18.1410937,9.01640625 C18.4064062,8.71921875 18.9440625,8.9090625 18.9440625,9.29484375 C18.9440625,9.44015625 18.665625,10.5904688 18.4954688,11.1342188 C18.4509375,11.2546875 18.35625,11.3746875 18.2489063,11.4314063 C18.03375,11.544375 18.001875,11.544375 17.8378125,11.4496875 Z" id="Shape"></path>
                    <path d="M2.353125,11.2284375 C1.70859375,11.0451562 1.51875,10.9565625 1.44328125,10.7925 C1.34203125,10.57125 1.3546875,10.4953125 1.5065625,10.299375 C1.64578125,10.1221875 1.9425,10.078125 2.29640625,10.1920312 C2.39765625,10.2234375 2.64375,10.299375 2.84625,10.3565625 C3.155625,10.4390625 3.22546875,10.4892187 3.30140625,10.65375 C3.358125,10.7990625 3.3646875,10.9064062 3.32015625,11.0329687 C3.20625,11.3484375 2.94703125,11.405625 2.353125,11.2284375 Z" id="Shape"></path>
                    <path d="M4.17984375,10.760625 C4.1165625,10.7353125 3.4528125,10.1095313 2.7196875,9.36375 C1.26,7.8909375 1.21546875,7.8215625 1.531875,7.51171875 C1.8478125,7.18921875 1.9171875,7.23328125 3.421875,8.73796875 C4.6228125,9.93890625 4.80609375,10.1535938 4.80609375,10.318125 C4.805625,10.6471875 4.483125,10.880625 4.17984375,10.760625 Z" id="Shape"></path>
                    <path d="M5.76609375,10.1667187 C5.6775,10.0846875 5.608125,9.958125 5.608125,9.8821875 C5.608125,9.74296875 6.45515625,6.54515625 6.5625,6.2671875 C6.7078125,5.90671875 7.18171875,5.8940625 7.40953125,6.241875 C7.51078125,6.39328125 7.4915625,6.48234375 7.0303125,8.22 C6.69515625,9.47765625 6.50578125,10.0842187 6.41109375,10.1854687 C6.24,10.3753125 5.96203125,10.3692187 5.76609375,10.1667187 Z" id="Shape"></path>
                    <path d="M7.52953125,9.80671875 C7.3903125,9.7434375 7.2515625,9.50953125 7.2515625,9.34546875 C7.2515625,9.29484375 7.4475,9.02296875 7.6940625,8.7515625 C9.5015625,6.6975 10.171875,4.84546875 10.2726563,1.59703125 C10.310625,0.4340625 10.329375,0.27609375 10.4371875,0.15609375 C10.6204687,-0.04640625 10.993125,-0.0271875 11.1703125,0.200625 C11.3095312,0.36515625 11.3095312,0.403125 11.2715625,1.445625 C11.1642187,4.07484375 10.8482812,5.51578125 10.0265625,7.1025 C9.590625,7.94296875 8.83828125,8.9859375 8.27578125,9.523125 C7.88953125,9.8821875 7.77609375,9.92671875 7.52953125,9.80671875 Z" id="Shape"></path>
                    <path d="M4.54640625,9.18703125 C4.41984375,9.054375 4.15453125,8.11265625 4.15453125,7.809375 C4.15453125,7.43015625 4.685625,7.228125 4.96359375,7.50609375 C5.05828125,7.60078125 5.35546875,8.63765625 5.35546875,8.88375 C5.355,9.26296875 4.81171875,9.4715625 4.54640625,9.18703125 Z" id="Shape"></path>
                </g>
                <polygon id="Shape" points="2.278125 4.7671875 1.959375 4.9265625 1.9078125 5.278125 1.6546875 5.025 1.303125 5.0859375 1.4671875 4.7671875 1.303125 4.4484375 1.6546875 4.509375 1.9078125 4.2515625 1.959375 4.6078125"></polygon>
                <polygon id="Shape" points="7.575 3.80625 7.25625 3.965625 7.2046875 4.3171875 6.9515625 4.0640625 6.6 4.125 6.76875 3.80625 6.6 3.4875 6.9515625 3.5484375 7.2046875 3.290625 7.25625 3.646875"></polygon>
                <polygon id="Shape" points="11.1234375 7.33125 10.8 7.4859375 10.7484375 7.8421875 10.5 7.584375 10.1484375 7.6453125 10.3125 7.33125 10.1484375 7.0125 10.5 7.0734375 10.7484375 6.815625 10.8 7.171875"></polygon>
                <polygon id="Shape" points="4.8328125 13.89375 4.509375 14.053125 4.4578125 14.409375 4.209375 14.1515625 3.8578125 14.2125 4.021875 13.89375 3.8578125 13.575 4.209375 13.6359375 4.4578125 13.3828125 4.509375 13.734375"></polygon>
                <polygon id="Shape" points="1.06875 10.171875 0.75 10.33125 0.6984375 10.6875 0.4453125 10.4296875 0.09375 10.490625 0.2625 10.171875 0.09375 9.853125 0.4453125 9.9140625 0.6984375 9.65625 0.75 10.0125"></polygon>
                <polygon id="Shape" points="12.009375 5.0390625 11.6859375 5.1984375 11.634375 5.55 11.3859375 5.296875 11.034375 5.3578125 11.1984375 5.0390625 11.034375 4.7203125 11.3859375 4.78125 11.634375 4.5234375 11.6859375 4.8796875"></polygon>
                <polygon id="Shape" points="19.434375 12.2625 19.1109375 12.421875 19.059375 12.778125 18.8109375 12.5203125 18.4546875 12.58125 18.6234375 12.2625 18.4546875 11.94375 18.8109375 12.0046875 19.059375 11.746875 19.1109375 12.103125"></polygon>
                <polygon id="Shape" points="16.1578125 1.1765625 15.834375 1.33125 15.7828125 1.6875 15.534375 1.4296875 15.178125 1.490625 15.346875 1.1765625 15.178125 0.8578125 15.534375 0.91875 15.7828125 0.6609375 15.834375 1.0171875"></polygon>
                <polygon id="Shape" points="23.4515625 8.00625 23.128125 8.165625 23.0765625 8.521875 22.828125 8.2640625 22.471875 8.325 22.640625 8.00625 22.471875 7.6921875 22.828125 7.753125 23.0765625 7.4953125 23.128125 7.8515625"></polygon>
                <polygon id="Shape" points="21.9703125 2.3296875 21.6515625 2.4890625 21.6 2.840625 21.346875 2.5828125 20.9953125 2.64375 21.1640625 2.3296875 20.9953125 2.0109375 21.346875 2.071875 21.6 1.8140625 21.6515625 2.1703125"></polygon>
            </g>
        </g>
    </g>
</svg>
