<svg xmlns="http://www.w3.org/2000/svg" width="24" height="24" viewBox="0 0 24 24">
  <path d="M18.7970301,6.26198568 C18.3425026,5.79212209 17.7053657,5.5 17,5.5 L7,5.5 C6.29463434,5.5 5.65749744,5.79212209 5.20296993,6.26198568 L12,11.4884781 L18.7970301,6.26198568 Z M19.47341,7.63407204 L12.9143472,12.6775825 C12.375256,13.09211 11.624744,13.09211 11.0856528,12.6775825 L4.52659,7.63407204 C4.50907199,7.75351183 4.5,7.87569648 4.5,8 L4.5,16 C4.5,17.3807119 5.61928813,18.5 7,18.5 L17,18.5 C18.3807119,18.5 19.5,17.3807119 19.5,16 L19.5,8 C19.5,7.87569648 19.490928,7.75351183 19.47341,7.63407204 Z M7,4 L17,4 C19.209139,4 21,5.790861 21,8 L21,16 C21,18.209139 19.209139,20 17,20 L7,20 C4.790861,20 3,18.209139 3,16 L3,8 C3,5.790861 4.790861,4 7,4 Z"/>
</svg>
