<svg width="24" height="24" viewBox="0 0 24 24" xmlns="http://www.w3.org/2000/svg">
    <g id="Page-1" stroke="none" stroke-width="1" fill="none" fill-rule="evenodd">
        <g id="062_ic_partypopper" fill-rule="nonzero" fill="#000000">
            <path d="M6.87407407,10.9925926 C6.81481481,11.0518519 6.78518519,11.1407407 6.78518519,11.2 C6.78518519,11.2888889 6.81481481,11.3481481 6.87407407,11.4074074 L17.1259259,20.4444444 C17.3333333,20.6222222 17.5703704,20.7111111 17.8074074,20.7111111 C18.0148148,20.7111111 18.2222222,20.6518519 18.4296296,20.5037037 L21.8074074,23.5851852 C21.9555556,23.7333333 22.1333333,23.7925926 22.3407407,23.7925926 C22.5481481,23.7925926 22.7259259,23.7037037 22.9037037,23.5555556 L23.6148148,22.8444444 C23.762963,22.6962963 23.8518519,22.5185185 23.8518519,22.3111111 C23.8518519,22.1037037 23.762963,21.8962963 23.6148148,21.7777778 L20.5333333,18.3703704 C20.8,17.9851852 20.8,17.4222222 20.4740741,17.0666667 L11.4666667,6.84444444 C11.4074074,6.78518519 11.3481481,6.75555556 11.2592593,6.75555556 C11.2,6.75555556 11.1111111,6.78518519 11.0518519,6.84444444 L6.87407407,10.9925926 Z M12.4148148,8.82962963 L13.8666667,10.4888889 C13.6888889,10.7555556 13.6888889,11.0222222 13.6888889,11.2 C13.6888889,11.437037 13.6888889,11.5259259 13.5407407,11.6740741 C13.3925926,11.8222222 13.3037037,11.8222222 13.0666667,11.8222222 C12.8296296,11.8222222 12.5037037,11.8222222 12.1777778,12.1481481 C11.8814815,12.4444444 11.8518519,12.8 11.8518519,13.037037 C11.8518519,13.2740741 11.8518519,13.362963 11.7037037,13.5111111 C11.5555556,13.6592593 11.4666667,13.6592593 11.2296296,13.6592593 C11.0222222,13.6592593 10.7851852,13.6592593 10.5185185,13.837037 L8.85925926,12.3851852 C8.94814815,12.3555556 9.03703704,12.3555556 9.15555556,12.3555556 C9.39259259,12.3555556 9.74814815,12.3259259 10.0740741,12 C10.4,11.6740741 10.4,11.3481481 10.4296296,11.0814815 C10.4296296,10.8740741 10.4296296,10.7259259 10.6074074,10.5777778 C10.7555556,10.4296296 10.9037037,10.4 11.1111111,10.4 C11.3481481,10.4 11.7037037,10.3703704 12.0296296,10.0444444 C12.3555556,9.71851852 12.3555556,9.39259259 12.3851852,9.12592593 C12.3555556,9.00740741 12.3851852,8.91851852 12.4148148,8.82962963 Z M11.0222222,14.2518519 C11.0814815,14.2518519 11.1703704,14.2222222 11.2592593,14.2222222 C11.4962963,14.2222222 11.8222222,14.2222222 12.1481481,13.8962963 C12.4740741,13.5703704 12.4740741,13.2444444 12.4740741,13.0074074 C12.4740741,12.7703704 12.4740741,12.6814815 12.6222222,12.5333333 C12.7703704,12.3851852 12.8592593,12.3851852 13.0962963,12.3851852 C13.3333333,12.3851852 13.6592593,12.3851852 13.9851852,12.0592593 C14.3111111,11.7333333 14.3111111,11.4074074 14.3111111,11.1703704 C14.3111111,11.0814815 14.3111111,10.9925926 14.3407407,10.9333333 L15.7925926,12.5925926 C15.6444444,12.8296296 15.6444444,13.0962963 15.6444444,13.2740741 C15.6444444,13.4814815 15.6444444,13.6 15.5259259,13.7185185 C15.4074074,13.837037 15.3185185,13.837037 15.0814815,13.837037 C14.8444444,13.837037 14.5185185,13.837037 14.2222222,14.1333333 C13.9259259,14.4296296 13.9259259,14.7555556 13.9259259,14.9925926 C13.9259259,15.2 13.9259259,15.3185185 13.8074074,15.437037 C13.6888889,15.5555556 13.6,15.5555556 13.362963,15.5555556 C13.1851852,15.5555556 12.9185185,15.5555556 12.6814815,15.7037037 L11.0222222,14.2518519 Z M13.1851852,16.1777778 C13.2444444,16.1777778 13.2740741,16.1777778 13.3333333,16.1777778 C13.5703704,16.1777778 13.8962963,16.1777778 14.1925926,15.8814815 C14.4888889,15.5851852 14.4888889,15.2592593 14.4888889,15.0222222 C14.4888889,14.8148148 14.4888889,14.6962963 14.6074074,14.5777778 C14.7259259,14.4592593 14.8148148,14.4592593 15.0518519,14.4592593 C15.2888889,14.4592593 15.6148148,14.4592593 15.9111111,14.162963 C16.2074074,13.8666667 16.2074074,13.5407407 16.2074074,13.3037037 C16.2074074,13.2444444 16.2074074,13.1851852 16.2074074,13.1555556 L17.6296296,14.7851852 C17.5111111,15.0222222 17.5111111,15.2592593 17.5111111,15.437037 C17.5111111,15.6444444 17.5111111,15.7333333 17.4222222,15.8222222 C17.3333333,15.9111111 17.2148148,15.9111111 17.037037,15.9111111 C16.8,15.9111111 16.4740741,15.8814815 16.1777778,16.1777778 C15.8814815,16.4740741 15.9111111,16.8 15.9111111,17.037037 C15.9111111,17.2444444 15.9111111,17.3333333 15.8222222,17.4222222 C15.7333333,17.5111111 15.6148148,17.5111111 15.437037,17.5111111 C15.2592593,17.5111111 15.0222222,17.4814815 14.7851852,17.6296296 L13.1851852,16.1777778 Z M18.8444444,20.0888889 L20.1185185,18.8148148 L23.1703704,22.162963 C23.2,22.2222222 23.2296296,22.2518519 23.2296296,22.3111111 C23.2296296,22.3703704 23.2,22.4 23.1703704,22.4296296 L22.4592593,23.1407407 C22.4,23.2 22.2814815,23.2 22.1925926,23.1407407 L18.8444444,20.0888889 Z M15.3481481,18.0740741 C15.3777778,18.0740741 15.3777778,18.0740741 15.4074074,18.0740741 C15.6444444,18.0740741 15.9703704,18.1037037 16.2666667,17.8074074 C16.562963,17.5111111 16.5333333,17.1851852 16.5333333,16.9481481 C16.5333333,16.7407407 16.5333333,16.6518519 16.6222222,16.562963 C16.7111111,16.4740741 16.8296296,16.4740741 17.0074074,16.4740741 C17.2444444,16.4740741 17.5703704,16.5037037 17.8666667,16.2074074 C18.162963,15.9111111 18.1333333,15.5851852 18.1333333,15.3481481 C18.1333333,15.3185185 18.1333333,15.3185185 18.1333333,15.2888889 L20.0296296,17.4518519 C20.1777778,17.6296296 20.1777778,17.8962963 20,18.0740741 L18.1333333,19.9407407 C17.9555556,20.1185185 17.6888889,20.1185185 17.5111111,19.9703704 L15.3481481,18.0740741 Z M7.4962963,11.1703704 L11.2,7.46666667 L11.9703704,8.35555556 C11.762963,8.62222222 11.762963,8.88888889 11.762963,9.0962963 C11.762963,9.3037037 11.762963,9.45185185 11.5851852,9.6 C11.437037,9.74814815 11.2888889,9.77777778 11.0814815,9.77777778 C10.8444444,9.77777778 10.4888889,9.80740741 10.162963,10.1333333 C9.83703704,10.4592593 9.83703704,10.7851852 9.80740741,11.0518519 C9.80740741,11.2592593 9.80740741,11.4074074 9.62962963,11.5555556 C9.45185185,11.7037037 9.33333333,11.7333333 9.12592593,11.7333333 C8.91851852,11.7333333 8.65185185,11.762963 8.38518519,11.9407407 L7.4962963,11.1703704 Z" id="Shape"></path>
            <path d="M12.7703704,3.52592593 L13.4222222,3.73333333 L13.6296296,4.38518519 C13.6592593,4.5037037 13.7481481,4.56296296 13.8666667,4.59259259 C13.8666667,4.59259259 13.8962963,4.59259259 13.8962963,4.59259259 C13.9851852,4.59259259 14.0740741,4.53333333 14.1333333,4.47407407 L14.5185185,3.91111111 L15.2,3.91111111 C15.3185185,3.91111111 15.4074074,3.85185185 15.4666667,3.73333333 C15.5259259,3.64444444 15.4962963,3.52592593 15.437037,3.40740741 L15.0222222,2.87407407 L15.2296296,2.22222222 C15.2592593,2.1037037 15.2296296,1.98518519 15.1407407,1.92592593 C15.0518519,1.83703704 14.9333333,1.80740741 14.8444444,1.86666667 L14.1925926,2.1037037 L13.6296296,1.68888889 C13.5407407,1.62962963 13.4222222,1.6 13.3037037,1.65925926 C13.2148148,1.71851852 13.1555556,1.80740741 13.1555556,1.92592593 L13.1851852,2.60740741 L12.6222222,3.02222222 C12.5333333,3.08148148 12.4740741,3.2 12.5037037,3.31851852 C12.5333333,3.43703704 12.6518519,3.46666667 12.7703704,3.52592593 Z M13.5111111,3.11111111 L13.7185185,2.96296296 C13.8074074,2.9037037 13.837037,2.81481481 13.837037,2.72592593 L13.837037,2.48888889 L14.0444444,2.63703704 C14.1333333,2.6962963 14.2222222,2.6962963 14.3111111,2.66666667 L14.5481481,2.57777778 L14.4888889,2.81481481 C14.4592593,2.9037037 14.4888889,3.02222222 14.5481481,3.08148148 L14.6962963,3.25925926 L14.4592593,3.25925926 C14.3703704,3.25925926 14.2814815,3.31851852 14.2222222,3.37777778 L14.0740741,3.58518519 L13.9851852,3.34814815 C13.9555556,3.25925926 13.8666667,3.17037037 13.7777778,3.17037037 L13.5111111,3.11111111 Z" id="Shape"></path>
            <path d="M3.55555556,14.5777778 C3.4962963,14.6666667 3.4962963,14.7851852 3.55555556,14.9037037 C3.61481481,14.9925926 3.73333333,15.0518519 3.85185185,15.0222222 L4.53333333,14.9333333 L4.97777778,15.437037 C5.03703704,15.4962963 5.12592593,15.5259259 5.21481481,15.5259259 C5.24444444,15.5259259 5.27407407,15.5259259 5.3037037,15.5259259 C5.42222222,15.4962963 5.48148148,15.4074074 5.51111111,15.2888889 L5.62962963,14.6074074 L6.25185185,14.3407407 C6.34074074,14.2814815 6.42962963,14.1925926 6.42962963,14.0740741 C6.42962963,13.9555556 6.37037037,13.8666667 6.28148148,13.8074074 L5.68888889,13.4814815 L5.62962963,12.8296296 C5.62962963,12.7111111 5.54074074,12.6222222 5.45185185,12.5925926 C5.33333333,12.562963 5.21481481,12.562963 5.15555556,12.6518519 L4.65185185,13.1259259 L3.97037037,12.9777778 C3.85185185,12.9481481 3.73333333,13.0074074 3.67407407,13.0666667 C3.61481481,13.1555556 3.58518519,13.2740741 3.64444444,13.362963 L3.94074074,13.9851852 L3.55555556,14.5777778 Z M4.38518519,14.3703704 L4.5037037,14.162963 C4.56296296,14.0740741 4.56296296,13.9851852 4.5037037,13.8962963 L4.41481481,13.6888889 L4.65185185,13.7481481 C4.74074074,13.7777778 4.85925926,13.7481481 4.91851852,13.6888889 L5.0962963,13.5111111 L5.12592593,13.7481481 C5.12592593,13.837037 5.18518519,13.9259259 5.27407407,13.9851852 L5.48148148,14.1037037 L5.27407407,14.1925926 C5.18518519,14.2222222 5.12592593,14.3111111 5.0962963,14.4 L5.03703704,14.6074074 L4.88888889,14.4296296 C4.82962963,14.3703704 4.74074074,14.3111111 4.62222222,14.3407407 L4.38518519,14.3703704 Z" id="Shape"></path>
            <circle id="Oval" cx="3.73333333" cy="8.71111111" r="1"></circle>
            <circle id="Oval" cx="13.4814815" cy="5.98518519" r="1"></circle>
            <circle id="Oval" cx="1.45185185" cy="4.56296296" r="1"></circle>
            <circle id="Oval" cx="8.02962963" cy="4.05925926" r="1"></circle>
            <path d="M0.266666667,14.4296296 C0.266666667,14.9333333 0.681481481,15.3481481 1.18518519,15.3481481 C1.68888889,15.3481481 2.1037037,14.9333333 2.1037037,14.4296296 C2.1037037,13.9259259 1.68888889,13.5111111 1.18518519,13.5111111 C0.681481481,13.5111111 0.266666667,13.8962963 0.266666667,14.4296296 Z M0.859259259,14.4296296 C0.859259259,14.2518519 1.00740741,14.1037037 1.18518519,14.1037037 C1.36296296,14.1037037 1.51111111,14.2518519 1.51111111,14.4296296 C1.51111111,14.6074074 1.36296296,14.7555556 1.18518519,14.7555556 C1.00740741,14.7555556 0.859259259,14.6074074 0.859259259,14.4296296 Z" id="Shape"></path>
            <path d="M9.77777778,1.33333333 C9.77777778,0.82962963 9.36296296,0.414814815 8.85925926,0.414814815 C8.35555556,0.414814815 7.94074074,0.82962963 7.94074074,1.33333333 C7.94074074,1.83703704 8.35555556,2.25185185 8.85925926,2.25185185 C9.36296296,2.25185185 9.77777778,1.83703704 9.77777778,1.33333333 Z M9.18518519,1.33333333 C9.18518519,1.51111111 9.03703704,1.65925926 8.85925926,1.65925926 C8.68148148,1.65925926 8.53333333,1.51111111 8.53333333,1.33333333 C8.53333333,1.15555556 8.68148148,1.00740741 8.85925926,1.00740741 C9.03703704,1.00740741 9.18518519,1.15555556 9.18518519,1.33333333 Z" id="Shape"></path>
            <path d="M4.77037037,3.76296296 C4.26666667,3.76296296 3.85185185,4.17777778 3.85185185,4.68148148 C3.85185185,5.18518519 4.26666667,5.6 4.77037037,5.6 C5.27407407,5.6 5.68888889,5.18518519 5.68888889,4.68148148 C5.68888889,4.17777778 5.3037037,3.76296296 4.77037037,3.76296296 Z M4.77037037,4.35555556 C4.94814815,4.35555556 5.0962963,4.5037037 5.0962963,4.68148148 C5.0962963,4.85925926 4.94814815,5.00740741 4.77037037,5.00740741 C4.59259259,5.00740741 4.44444444,4.85925926 4.44444444,4.68148148 C4.44444444,4.5037037 4.59259259,4.35555556 4.77037037,4.35555556 Z" id="Shape"></path>
            <path d="M8.35555556,6.84444444 C8.26666667,6.84444444 8.20740741,6.81481481 8.14814815,6.75555556 C8.05925926,6.66666667 6.04444444,4.38518519 6.1037037,0.533333333 C6.1037037,0.355555556 6.25185185,0.266666667 6.4,0.237037037 C6.57777778,0.237037037 6.6962963,0.385185185 6.6962963,0.533333333 C6.60740741,4.14814815 8.56296296,6.31111111 8.56296296,6.34074074 C8.68148148,6.45925926 8.65185185,6.63703704 8.53333333,6.75555556 C8.47407407,6.81481481 8.41481481,6.84444444 8.35555556,6.84444444 Z" id="Shape"></path>
            <path d="M0.592592593,6.78518519 C0.444444444,6.81481481 0.266666667,6.6962963 0.266666667,6.54814815 C0.266666667,6.4 0.355555556,6.22222222 0.503703704,6.22222222 C4.35555556,5.62962963 6.60740741,8.41481481 6.6962963,8.53333333 C6.78518519,8.65185185 6.78518519,8.85925926 6.63703704,8.94814815 C6.57777778,8.97777778 6.51851852,9.00740741 6.45925926,9.00740741 C6.37037037,9.00740741 6.28148148,8.97777778 6.22222222,8.88888889 C6.22222222,8.85925926 4.08888889,6.28148148 0.592592593,6.78518519 Z" id="Shape"></path>
            <path d="M10.2222222,5.24444444 C10.1925926,5.24444444 10.162963,5.24444444 10.162963,5.24444444 C10.0148148,5.24444444 9.8962963,5.15555556 9.86666667,5.00740741 C9.83703704,4.91851852 9.36296296,2.6962963 10.8740741,1.33333333 C10.9925926,1.21481481 11.1703704,1.24444444 11.2888889,1.36296296 C11.4074074,1.48148148 11.3777778,1.65925926 11.2592593,1.77777778 C9.98518519,2.9037037 10.4296296,4.85925926 10.4296296,4.88888889 C10.4888889,5.03703704 10.3703704,5.21481481 10.2222222,5.24444444 Z" id="Shape"></path>
            <path d="M1.24444444,11.437037 C1.18518519,11.4962963 1.0962963,11.5555556 1.00740741,11.5555556 C0.948148148,11.5555556 0.888888889,11.5259259 0.82962963,11.4962963 C0.711111111,11.4074074 0.651851852,11.2296296 0.77037037,11.0814815 C2.04444444,9.27407407 4.77037037,10.1037037 4.88888889,10.1333333 C5.03703704,10.1925926 5.12592593,10.3407407 5.0962963,10.4888889 C5.03703704,10.637037 4.88888889,10.7259259 4.74074074,10.6962963 C4.65185185,10.6962963 2.28148148,9.98518519 1.24444444,11.437037 Z" id="Shape"></path>
        </g>
    </g>
</svg>
