<svg xmlns="http://www.w3.org/2000/svg" width="24" height="24" viewBox="0 0 24 24">
  <path d="M12.0010567,4.68208315 C12.4966303,4.40147534 13.0983689,4.30768378 13.6919253,4.46672676 C13.9746381,4.54247941 14.2302788,4.6688347 14.4517137,4.83343672 C14.9501115,3.9780695 15.9756857,3.52574424 16.9779314,3.79429515 C17.980177,4.06284607 18.6421877,4.96735835 18.6461293,5.95732698 C18.9201986,5.92549492 19.2047675,5.94388837 19.4874803,6.01964103 C20.687779,6.3412601 21.4000896,7.57501825 21.0784705,8.77531699 L20.2628946,11.8190878 C20.9625117,11.539567 21.7484939,11.611402 22.3970377,12.0638012 C23.38214,12.7509706 23.6907132,14.0871938 23.0170005,15.1768867 C20.3712076,19.4563099 16.1524956,22.7257296 13.0457633,21.8932832 L12.0010567,21.6133549 L10.9563501,21.8932832 C7.84961775,22.7257296 3.63090577,19.4563099 0.985112882,15.1768867 C0.311400171,14.0871938 0.619973388,12.7509706 1.60507565,12.0638012 C2.25361951,11.611402 3.03960166,11.539567 3.73921874,11.8190878 L2.92364282,8.77531699 C2.60202374,7.57501825 3.31433434,6.3412601 4.51463307,6.01964103 C4.79734583,5.94388837 5.08191481,5.92549492 5.3559841,5.95732698 C5.35992562,4.96735835 6.02193632,4.06284607 7.02418198,3.79429515 C8.02642764,3.52574424 9.05200187,3.9780695 9.55039965,4.83343672 C9.77183458,4.6688347 10.0274753,4.54247941 10.310188,4.46672676 C10.9037445,4.30768378 11.5054831,4.40147534 12.0010567,4.68208315 Z M15.7098612,5.66358943 C16.0101208,5.94190872 16.2380824,6.30548751 16.35187,6.73014862 L16.6597995,7.87935698 L17.1200329,6.16174254 C17.2272393,5.76164297 16.9898024,5.35039025 16.5897028,5.24318389 C16.2277783,5.14620651 15.8567274,5.33124242 15.7098612,5.66358943 Z M17.4362567,10.7771344 L18.212714,13.6749111 L19.6295818,8.38708842 C19.7367882,7.98698884 19.4993513,7.57573612 19.0992517,7.46852977 C18.6991521,7.36132341 18.2878994,7.59876027 18.1806931,7.99885985 L17.4362567,10.7771344 Z M18.5458138,15.5570315 C18.5686804,17.0084736 18.0115418,18.392272 17.0408174,19.4201794 C18.7776852,18.2612253 20.5336447,16.3411595 21.7411528,14.3880821 C22.2715358,13.530217 21.1278256,12.6042773 20.3716329,13.5608892 C19.9506729,14.0934193 19.3420239,14.7587557 18.5458138,15.5570315 Z M12.781661,10.7926118 L11.6169753,6.44594558 C11.5097689,6.045846 11.0985162,5.80840914 10.6984166,5.9156155 C10.298317,6.02282185 10.0608802,6.43407457 10.1680865,6.83417415 L11.3327722,11.1808404 C11.4399786,11.5809399 11.2025417,11.9921927 10.8024421,12.099399 C10.4023426,12.2066054 9.99108984,11.9691685 9.88388348,11.5690689 L8.33096921,5.77351398 C8.22376285,5.3734144 7.81251013,5.13597753 7.41241055,5.24318389 C7.01231097,5.35039025 6.77487411,5.76164297 6.88208047,6.16174254 L8.43499474,11.9572975 C8.5422011,12.3573971 8.30476423,12.7686498 7.90466465,12.8758562 C7.50456507,12.9830625 7.09331236,12.7456256 6.986106,12.3455261 L5.82142029,7.99885985 C5.71421394,7.59876027 5.30296122,7.36132341 4.90286164,7.46852977 C4.50276206,7.57573612 4.2653252,7.98698884 4.37253156,8.38708842 L6.48780368,16.2813915 C6.49782105,16.3187768 6.48753546,16.3586779 6.46069323,16.3865617 C6.41839482,16.4305015 6.34848499,16.431832 6.30454527,16.3895336 C5.08161803,15.2116857 4.19016294,14.2689083 3.63048049,13.5608892 C2.87428772,12.6042773 1.73057755,13.530217 2.26096056,14.3880821 C4.36557688,17.7921822 8.13630373,21.0959981 10.5681215,20.4443945 L13.8389203,19.5679866 L14.0804025,19.503282 C16.2142669,18.9315147 17.4805967,16.7381668 16.9088294,14.6043024 L15.8735527,10.740599 L14.9029813,7.11837719 C14.7957749,6.71827761 14.3845222,6.48084074 13.9844226,6.5880471 C13.5843231,6.69525346 13.3468862,7.10650618 13.4540926,7.50660575 L14.2305497,10.4043832 C14.3377561,10.8044828 14.1003192,11.2157355 13.7002196,11.3229419 C13.30012,11.4301482 12.8888673,11.1927114 12.781661,10.7926118 Z M9.75881905,2.96592583 L8.75821804,1.1634837 L9.72414387,0.904664651 L9.75881905,2.96592583 Z M14.4829629,2.96592583 L14.5176381,0.904664651 L15.4835639,1.1634837 L14.4829629,2.96592583 Z M12.5,2.09533535 L12,0.0953353488 L13,0.0953353488 L12.5,2.09533535 Z"/>
</svg>
