<svg xmlns="http://www.w3.org/2000/svg" width="24" height="24" viewBox="0 0 24 24">
  <path d="M6.25,20.25 L6.25,14.75 C6.25,14.3357864 6.58578644,14 7,14 C7.41421356,14 7.75,14.3357864 7.75,14.75 L7.75,20.25 C7.75,20.6642136 7.41421356,21 7,21 C6.58578644,21 6.25,20.6642136 6.25,20.25 Z M11.25,20.25 L11.25,9.75 C11.25,9.33578644 11.5857864,9 12,9 C12.4142136,9 12.75,9.33578644 12.75,9.75 L12.75,20.25 C12.75,20.6642136 12.4142136,21 12,21 C11.5857864,21 11.25,20.6642136 11.25,20.25 Z M16.25,20.25 L16.25,3.75 C16.25,3.33578644 16.5857864,3 17,3 C17.4142136,3 17.75,3.33578644 17.75,3.75 L17.75,20.25 C17.75,20.6642136 17.4142136,21 17,21 C16.5857864,21 16.25,20.6642136 16.25,20.25 Z"/>
</svg>
