<svg height="24" viewBox="0 0 24 24" width="24" xmlns="http://www.w3.org/2000/svg"><path d="m17.3866733 13h1.8633267c1.2426407 0 2.25 1.0073593 2.25 2.25s-1.0073593 2.25-2.25 2.25h-2.4258267l-.2427304 1.9418437c-.1469751 1.1758009-1.1464917 2.0581563-2.3314429 2.0581563-1.1940875 0-2.1620867-.9679992-2.1620867-2.1620867 0-.0896509.0055761-.1792151.0166959-.2681738l.1962175-1.5697395h-1.9766534l-.2427304 1.9418437c-.14697515 1.1758009-1.14649167 2.0581563-2.3314429 2.0581563-1.19408749 0-2.16208666-.9679992-2.16208666-2.1620867 0-.0896509.00557606-.1792151.0166959-.2681738l.19621743-1.5697395h-1.05082667c-1.24264069 0-2.25-1.0073593-2.25-2.25s1.00735931-2.25 2.25-2.25h1.61332667l.25-2h-1.86332667c-1.24264069 0-2.25-1.00735931-2.25-2.25s1.00735931-2.25 2.25-2.25h2.42582667l.24273046-1.94184369c.14697512-1.17580089 1.14649164-2.05815631 2.33144287-2.05815631 1.1940875 0 2.1620867.96799917 2.1620867 2.16208666 0 .08965098-.0055761.17921517-.0166959.26817385l-.1962175 1.56973949h1.9766534l.2427304-1.94184369c.1469751-1.17580089 1.1464917-2.05815631 2.3314429-2.05815631 1.1940875 0 2.1620867.96799917 2.1620867 2.16208666 0 .08965098-.0055761.17921517-.0166959.26817385l-.1962175 1.56973949h1.0508267c1.2426407 0 2.25 1.00735931 2.25 2.25s-1.0073593 2.25-2.25 2.25h-1.6133267zm-1.6991733 1.5.625-5h2.9375c.4142136 0 .75-.33578644.75-.75s-.3357864-.75-.75-.75h-2.75l.4069739-3.25579159c.0034052-.02724144.0051128-.05466831.0051128-.08212175 0-.36566036-.2964263-.66208666-.6620867-.66208666-.4284663 0-.7898813.31905075-.8430261.74420841l-.4069739 3.25579159h-5l.4069739-3.25579159c.0034052-.02724144.0051128-.05466831.0051128-.08212175 0-.36566036-.2964263-.66208666-.6620867-.66208666-.42846632 0-.78988134.31905075-.84302605.74420841l-.40697395 3.25579159h-3.75c-.41421356 0-.75.33578644-.75.75s.33578644.75.75.75h3.5625l-.625 5h-2.9375c-.41421356 0-.75.3357864-.75.75s.33578644.75.75.75h2.75l-.40697395 3.2557916c-.00340518.0272414-.00511271.0546683-.00511271.0821217 0 .3656604.29642629.6620867.66208666.6620867.42846632 0 .78988134-.3190508.84302605-.7442084l.40697395-3.2557916h5l-.4069739 3.2557916c-.0034052.0272414-.0051128.0546683-.0051128.0821217 0 .3656604.2964263.6620867.6620867.6620867.4284663 0 .7898813-.3190508.8430261-.7442084l.4069739-3.2557916h3.75c.4142136 0 .75-.3357864.75-.75s-.3357864-.75-.75-.75zm-1.5 0h-5l.625-5h5zm-1.3241733-1.5.25-2h-1.9766534l-.25 2z"/></svg>