<svg xmlns="http://www.w3.org/2000/svg" width="24" height="24" viewBox="0 0 24 24">
  <path d="M12,21 C11.65,21 11.31,20.98 10.98,20.94 C10.81,20.92 10.65,20.87 10.51,20.79 C10.18,20.6 9.93,20.27 9.83,19.87 L9.53,18.62 C9.51,18.53 9.44,18.45 9.34,18.41 C9.25,18.37 9.15,18.38 9.06,18.43 L7.96,19.1 C7.47,19.4 6.85,19.4 6.4,19.04 C5.87,18.62 5.38,18.13 4.95,17.59 C4.6,17.15 4.6,16.52 4.9,16.03 L5.57,14.93 C5.62,14.85 5.63,14.74 5.59,14.65 C5.55,14.56 5.47,14.49 5.37,14.47 L4.12,14.16 C3.56,14.02 3.13,13.59 3.06,13.02 C3.02,12.68 3,12.34 3,12 C3,11.65 3.02,11.31 3.06,10.98 C3.08,10.81 3.13,10.65 3.21,10.51 C3.4,10.18 3.73,9.93 4.13,9.83 L5.38,9.53 C5.47,9.51 5.55,9.44 5.59,9.34 C5.63,9.25 5.62,9.15 5.57,9.06 L4.9,7.96 C4.6,7.47 4.6,6.85 4.96,6.4 C5.38,5.87 5.87,5.38 6.41,4.95 C6.85,4.6 7.48,4.6 7.97,4.9 L9.07,5.57 C9.15,5.62 9.26,5.63 9.35,5.59 C9.44,5.55 9.51,5.47 9.53,5.37 L9.84,4.12 C9.97,3.56 10.41,3.12 10.98,3.06 C11.32,3.02 11.66,3 12,3 C12.35,3 12.69,3.02 13.02,3.06 C13.19,3.08 13.35,3.13 13.49,3.21 C13.82,3.4 14.07,3.73 14.17,4.13 L14.47,5.38 C14.49,5.47 14.56,5.55 14.66,5.59 C14.75,5.63 14.85,5.62 14.94,5.57 L16.04,4.9 C16.53,4.6 17.15,4.6 17.6,4.96 C18.13,5.38 18.62,5.87 19.05,6.41 C19.4,6.85 19.4,7.48 19.1,7.97 L18.43,9.07 C18.38,9.15 18.37,9.26 18.41,9.35 C18.45,9.44 18.53,9.51 18.63,9.53 L19.88,9.84 C20.44,9.98 20.87,10.41 20.94,10.98 C20.98,11.32 21,11.66 21,12 C21,12.35 20.98,12.69 20.94,13.02 C20.92,13.19 20.87,13.35 20.79,13.49 C20.6,13.82 20.27,14.07 19.87,14.17 L18.62,14.47 C18.53,14.49 18.45,14.56 18.41,14.66 C18.37,14.75 18.38,14.85 18.43,14.94 L19.1,16.04 C19.4,16.53 19.4,17.15 19.04,17.6 C18.62,18.13 18.13,18.62 17.59,19.05 C17.15,19.4 16.52,19.4 16.03,19.1 L14.93,18.43 C14.85,18.38 14.74,18.37 14.65,18.41 C14.56,18.45 14.49,18.53 14.47,18.63 L14.16,19.88 C14.02,20.44 13.59,20.87 13.02,20.94 C12.68,20.98 12.34,21 12,21 Z M12,4.5 C11.75,4.5 11.52,4.51 11.28,4.53 L10.99,5.73 C10.85,6.31 10.44,6.76 9.92,6.97 C9.41,7.19 8.8,7.16 8.29,6.85 L7.24,6.21 C6.85,6.53 6.53,6.84 6.21,7.23 L6.85,8.28 C7.16,8.79 7.19,9.4 6.98,9.92 C6.76,10.44 6.31,10.85 5.73,10.99 L4.54,11.28 C4.51,11.52 4.5,11.74 4.5,12 C4.5,12.25 4.51,12.48 4.53,12.72 L5.73,13.01 C6.31,13.15 6.75,13.57 6.97,14.08 C7.19,14.59 7.16,15.2 6.85,15.71 L6.21,16.76 C6.53,17.15 6.84,17.47 7.23,17.79 L8.28,17.15 C8.79,16.84 9.4,16.8 9.92,17.02 C10.44,17.24 10.85,17.69 10.99,18.27 L11.28,19.46 C11.52,19.49 11.74,19.5 12,19.5 C12.25,19.5 12.48,19.49 12.72,19.47 L13.01,18.27 C13.15,17.69 13.57,17.25 14.08,17.03 C14.59,16.81 15.2,16.84 15.71,17.15 L16.76,17.79 C17.15,17.47 17.47,17.16 17.79,16.77 L17.15,15.72 C16.84,15.21 16.8,14.6 17.02,14.08 C17.24,13.56 17.69,13.15 18.27,13.01 L19.46,12.72 C19.49,12.48 19.5,12.26 19.5,12 C19.5,11.75 19.49,11.52 19.47,11.28 L18.27,10.99 C17.69,10.85 17.25,10.43 17.03,9.92 C16.81,9.41 16.84,8.8 17.15,8.29 L17.79,7.24 C17.47,6.85 17.16,6.53 16.77,6.21 L15.72,6.85 C15.21,7.16 14.6,7.2 14.08,6.98 C13.56,6.76 13.15,6.31 13.01,5.73 L12.72,4.54 C12.48,4.51 12.26,4.5 12,4.5 Z M12,8.5 C13.93,8.5 15.5,10.07 15.5,12 C15.5,13.93 13.93,15.5 12,15.5 C10.07,15.5 8.5,13.93 8.5,12 C8.5,10.07 10.07,8.5 12,8.5 Z M12,10 C10.9,10 10,10.9 10,12 C10,13.1 10.9,14 12,14 C13.1,14 14,13.1 14,12 C14,10.9 13.1,10 12,10 Z"/>
</svg>
