<svg height="24" viewBox="0 0 24 24" width="24" xmlns="http://www.w3.org/2000/svg"><path d="m7.5 13c2.5 0 6.5 1.25 6.5 3.25v1c0 .9664983-.7835017 1.75-1.75 1.75h-9.5c-.96649831 0-1.75-.7835017-1.75-1.75v-1c0-2 4-3.25 6.5-3.25zm0 1.5c-2.29781793 0-5 1.158078-5 1.75v1c0 .1380712.11192881.25.25.25h9.5c.1380712 0 .25-.1119288.25-.25v-1c0-.591922-2.70218207-1.75-5-1.75zm3.625 4.5h1.125c.881618 0 1.6109704-.6519265 1.7322778-1.5h7.2677222c.1380712 0 .25-.1119288.25-.25v-1c0-.591922-2.7021821-1.75-5-1.75-1.021278 0-2.1224343.2287676-3.0307203.5349184-.3574279-.3902756-.87178-.7319464-1.4692797-1.0183056 1.3592205-.6514234 3.1487239-1.0166128 4.5-1.0166128 2.5 0 6.5 1.25 6.5 3.25v1c0 .9664983-.7835017 1.75-1.75 1.75zm5.375-8.5c1.1015729 0 2-.89842712 2-2s-.8984271-2-2-2-2 .89842712-2 2 .8984271 2 2 2zm0 1.5c-1.93 0-3.5-1.57-3.5-3.5s1.57-3.5 3.5-3.5 3.5 1.57 3.5 3.5-1.57 3.5-3.5 3.5zm-9-1.5c1.10157288 0 2-.89842712 2-2s-.89842712-2-2-2-2 .89842712-2 2 .89842712 2 2 2zm0 1.5c-1.93 0-3.5-1.57-3.5-3.5s1.57-3.5 3.5-3.5 3.5 1.57 3.5 3.5-1.57 3.5-3.5 3.5z"/></svg>