<svg xmlns="http://www.w3.org/2000/svg" xmlns:xlink="http://www.w3.org/1999/xlink" width="24" height="24" viewBox="0 0 24 24">
  <defs>
    <path id="person-plus-copy-a" d="M8.5,13 C11,13 15,14.25 15,16.25 L15,17.25 C15,18.2164983 14.2164983,19 13.25,19 L3.75,19 C2.78350169,19 2,18.2164983 2,17.25 L2,16.25 C2,14.25 6,13 8.5,13 Z M8.5,14.5 C6.20218207,14.5 3.5,15.658078 3.5,16.25 L3.5,17.25 C3.5,17.3880712 3.61192881,17.5 3.75,17.5 L13.25,17.5 C13.3880712,17.5 13.5,17.3880712 13.5,17.25 L13.5,16.25 C13.5,15.658078 10.7978179,14.5 8.5,14.5 Z M8.5,12 C6.57,12 5,10.43 5,8.5 C5,6.57 6.57,5 8.5,5 C10.43,5 12,6.57 12,8.5 C12,10.43 10.43,12 8.5,12 Z M8.5,10.5 C9.60157288,10.5 10.5,9.60157288 10.5,8.5 C10.5,7.39842712 9.60157288,6.5 8.5,6.5 C7.39842712,6.5 6.5,7.39842712 6.5,8.5 C6.5,9.60157288 7.39842712,10.5 8.5,10.5 Z M19.25,7.75 L19.25,5 L17.75,5 L17.75,7.75 L15,7.75 L15,9.25 L17.75,9.25 L17.75,12 L19.25,12 L19.25,9.25 L22,9.25 L22,7.75 L19.25,7.75 Z"/>
  </defs>
  <g fill="none" fill-rule="evenodd">
    <use fill="#000" fill-rule="nonzero" xlink:href="#person-plus-copy-a"/>
  </g>
</svg>
