<svg xmlns="http://www.w3.org/2000/svg" width="24" height="24" viewBox="0 0 24 24">
  <path d="M4,4 L10,4 L10,10 L4,10 L4,4 Z M20,4 L20,10 L14,10 L14,4 L20,4 Z M14,15 L16,15 L16,13 L14,13 L14,11 L16,11 L16,13 L18,13 L18,11 L20,11 L20,13 L18,13 L18,15 L20,15 L20,18 L18,18 L18,20 L16,20 L16,18 L13,18 L13,20 L11,20 L11,16 L14,16 L14,15 Z M16,15 L16,18 L18,18 L18,15 L16,15 Z M4,20 L4,14 L10,14 L10,20 L4,20 Z M6,6 L6,8 L8,8 L8,6 L6,6 Z M16,6 L16,8 L18,8 L18,6 L16,6 Z M6,16 L6,18 L8,18 L8,16 L6,16 Z M4,11 L6,11 L6,13 L4,13 L4,11 Z M9,11 L13,11 L13,15 L11,15 L11,13 L9,13 L9,11 Z M11,6 L13,6 L13,10 L11,10 L11,6 Z M18,0 L20,0 C22.209139,-4.05812251e-16 24,1.790861 24,4 L24,6 L22.5,6 L22.5,4 C22.5,2.61928813 21.3807119,1.5 20,1.5 L18,1.5 L18,0 Z M6,0 L6,1.5 L4,1.5 C2.61928813,1.5 1.5,2.61928813 1.5,4 L1.5,6 L0,6 L0,4 C-2.705415e-16,1.790861 1.790861,4.05812251e-16 4,0 L6,0 Z M18,24 L18,22.5 L20,22.5 C21.3807119,22.5 22.5,21.3807119 22.5,20 L22.5,18 L24,18 L24,20 C24,22.209139 22.209139,24 20,24 L18,24 Z M6,24 L4,24 C1.790861,24 2.705415e-16,22.209139 0,20 L0,18 L1.5,18 L1.5,20 C1.5,21.3807119 2.61928813,22.5 4,22.5 L6,22.5 L6,24 Z"/>
</svg>
