<svg xmlns="http://www.w3.org/2000/svg" width="24" height="24" viewBox="0 0 24 24">
  <path d="M12,20.4 C11.2,20.4 10.39,19.87 9.04,18.81 C5.64,16.15 3,12.79 3,9.28 C3,6.55 5.21,4.35 7.93,4.35 C9.62,4.35 11.11,5.2 12,6.51 C12.89,5.2 14.39,4.35 16.07,4.35 C18.8,4.35 21,6.55 21,9.28 C21,12.79 18.35,16.14 14.95,18.83 C13.61,19.88 12.8,20.4 12,20.4 Z M12,18.9 C12.51,18.9 12.96,18.44 13.95,17.68 C17.41,15.08 19.5,11.94 19.5,9.28 C19.5,7.38 17.97,5.85 16.07,5.85 C14.19,5.85 12.65,7.39 12.65,9.28 C12.65,9.71 12.39,10 12,10 C11.62,10 11.35,9.72 11.35,9.3 C11.35,7.4 9.82,5.85 7.93,5.85 C6.03,5.85 4.5,7.38 4.5,9.28 C4.5,11.94 6.59,15.08 10.06,17.68 C11.03,18.43 11.49,18.9 12,18.9 Z"/>
</svg>
