<svg xmlns="http://www.w3.org/2000/svg" width="24" height="24" viewBox="0 0 24 24">
  <path d="M4.5,10 L7,10 C7.55228475,10 8,10.4477153 8,11 L8,19 C8,19.5522847 7.55228475,20 7,20 L4.5,20 C3.94771525,20 3.5,19.5522847 3.5,19 L3.5,11 C3.5,10.4477153 3.94771525,10 4.5,10 Z M9.49831026,10.4641651 C9.52092488,10.4384568 9.54177474,10.4143797 9.56085982,10.3919338 C11.1296349,8.54690352 12,6.19699992 12,3.75735931 L12,3.5 C12.9011955,3.24675429 13.854005,3.1925063 14.5,4 C15.145995,4.8074937 15.3126616,6.3074937 15,8.5 L17.9254894,8.5 C19.3062013,8.5 20.4254894,9.61928813 20.4254894,11 C20.4254894,11.1713134 20.4078806,11.3421732 20.3729405,11.5098856 L19.230348,16.9943294 C18.8145826,18.9900037 17.4645306,20.3537648 15.43519,20.1604943 L12.6207636,20 C10.5678209,19.8044816 9,18.4250848 9,16.3628527 L8.99998502,11.785145 C8.99998502,11.2988805 9.17713988,10.8292716 9.49831026,10.4641651 Z"/>
</svg>
