<svg xmlns="http://www.w3.org/2000/svg" width="24" height="24" viewBox="0 0 24 24">
  <path d="M9.09995383,9.69989209 C10.3277427,7.97622637 11,5.90144862 11,3.75735931 L11,3.5 C12.6873384,3.02583964 13.854005,3.1925063 14.5,4 C14.9861898,4.60773721 15.2008692,5.60773721 15.1440382,7 C15.0937261,7.67943951 15.0457134,8.17943951 15,8.5 L17.9254894,8.5 C19.3062013,8.5 20.4254894,9.61928813 20.4254894,11 C20.4254894,11.1713134 20.4078806,11.3421732 20.3729405,11.5098856 L19.230348,16.9943294 C18.8145826,18.9900037 16.9645306,20.3537648 14.93519,20.1604943 L11.6207636,19.8448346 C10.8181177,19.7683922 10.0896276,19.4582704 9.5,18.9856312 L9.5,19.5 C9.5,20.0522847 9.05228475,20.5 8.5,20.5 L4.5,20.5 C3.94771525,20.5 3.5,20.0522847 3.5,19.5 L3.5,10.5 C3.5,9.94771525 3.94771525,9.5 4.5,9.5 L8.5,9.5 C8.72510045,9.5 8.93282964,9.57437527 9.09995383,9.69989209 Z M5,11 L5,19 L8,19 L8,11 L5,11 Z M9.5,11.5967616 L9.5,15.8628527 C9.5,17.1517478 10.4798881,18.2293925 11.7629773,18.3515914 L15.0774036,18.6672511 C16.3457415,18.7880452 17.502024,17.9356945 17.7618774,16.688398 L18.9044699,11.2039543 C18.9184459,11.1368693 18.9254894,11.0685254 18.9254894,11 C18.9254894,10.4477153 18.4777742,10 17.9254894,10 L13.2709177,10 L13.5150233,8.2882354 C13.7744484,6.469045 13.648666,5.33700413 13.3286968,4.93704257 C13.2061248,4.78382758 12.9371301,4.69560832 12.4592662,4.73494959 C12.2467442,7.28002408 11.2091477,9.69084076 9.5,11.5967616 Z"/>
</svg>
