<svg xmlns="http://www.w3.org/2000/svg" width="24" height="24" viewBox="0 0 24 24">
  <path d="M8.5,9.5 L8.5,4.5 C8.5,3.94771525 8.94771525,3.5 9.5,3.5 L14.5,3.5 C15.0522847,3.5 15.5,3.94771525 15.5,4.5 L15.5,9.5 L19.3150507,9.5 C19.8673355,9.5 20.3150507,9.94771525 20.3150507,10.5 C20.3150507,10.7399951 20.2287393,10.971986 20.0718737,11.1536199 L12.756823,19.6236786 C12.3958387,20.0416604 11.7643619,20.087866 11.3463801,19.7268818 C11.3095112,19.6950404 11.2750183,19.6605475 11.243177,19.6236786 L3.92812625,11.1536199 C3.56714197,10.7356381 3.61334758,10.1041613 4.03132939,9.74317699 C4.21296322,9.58631141 4.44495413,9.5 4.68494926,9.5 L8.5,9.5 Z"/>
</svg>
