<svg xmlns="http://www.w3.org/2000/svg" width="24" height="24" viewBox="0 0 24 24">
  <path d="M15.5,14.5 L15.5,19.5 C15.5,20.0522847 15.0522847,20.5 14.5,20.5 L9.5,20.5 C8.94771525,20.5 8.5,20.0522847 8.5,19.5 L8.5,14.5 L4.68494926,14.5 C4.13266451,14.5 3.68494926,14.0522847 3.68494926,13.5 C3.68494926,13.2600049 3.77126067,13.028014 3.92812625,12.8463801 L11.243177,4.37632138 C11.6041613,3.95833957 12.2356381,3.91213395 12.6536199,4.27311824 C12.6904888,4.30495957 12.7249817,4.33945246 12.756823,4.37632138 L20.0718737,12.8463801 C20.432858,13.2643619 20.3866524,13.8958387 19.9686706,14.256823 C19.7870368,14.4136886 19.5550459,14.5 19.3150507,14.5 L15.5,14.5 Z M12,5.79491187 L5.77742389,13 L10,13 L10,19 L14,19 L14,13 L18.2225761,13 L12,5.79491187 Z"/>
</svg>
