<svg xmlns="http://www.w3.org/2000/svg" width="24" height="24" viewBox="0 0 24 24">
  <path d="M6,2 L18,2 C20.209139,2 22,3.790861 22,6 L22,18 C22,20.209139 20.209139,22 18,22 L6,22 C3.790861,22 2,20.209139 2,18 L2,6 C2,3.790861 3.790861,2 6,2 Z M6,3.5 C4.61928813,3.5 3.5,4.61928813 3.5,6 L3.5,18 C3.5,19.3807119 4.61928813,20.5 6,20.5 L18,20.5 C19.3807119,20.5 20.5,19.3807119 20.5,18 L20.5,6 C20.5,4.61928813 19.3807119,3.5 18,3.5 L6,3.5 Z M15.1625977,18 L14.1499023,14.9370117 L9.7421875,14.9370117 L8.71289062,18 L6.54638672,18 L10.7963867,6.02197266 L13.2036133,6.02197266 L17.4619141,18 L15.1625977,18 Z M11.8837891,8.3046875 L10.2402344,13.2436523 L13.6518555,13.2436523 L12.0249023,8.3046875 L11.8837891,8.3046875 Z"/>
</svg>
