<svg xmlns="http://www.w3.org/2000/svg" width="24" height="24" viewBox="0 0 24 24">
  <path d="M10.6855469,19.0917969 L9.484375,15.4492188 L4.29882812,15.4492188 L3.09765625,19.0917969 L0.5,19.0917969 L5.5,5 L8.34179688,5 L13.3417969,19.0917969 L10.6855469,19.0917969 Z M6.85742188,7.49023438 L4.88476562,13.5058594 L8.88867188,13.5058594 L6.92578125,7.49023438 L6.85742188,7.49023438 Z M18.4003906,17.34375 C19.875,17.34375 20.9980469,16.4257812 20.9980469,15.1269531 L20.9980469,14.3164062 L18.5566406,14.4726562 C17.2285156,14.5605469 16.5253906,15.0683594 16.5253906,15.9375 C16.5253906,16.796875 17.2675781,17.34375 18.4003906,17.34375 Z M17.6875,19.2089844 C15.5878906,19.2089844 14.0839844,17.9296875 14.0839844,16.0351562 C14.0839844,14.1308594 15.5390625,13.046875 18.2246094,12.8808594 L20.9980469,12.7148438 L20.9980469,11.9335938 C20.9980469,10.8007812 20.2363281,10.1855469 18.9277344,10.1855469 C17.8242188,10.1855469 17.0332031,10.7617188 16.8671875,11.6210938 L14.6210938,11.6210938 C14.6796875,9.66796875 16.4960938,8.27148438 19.0058594,8.27148438 C21.671875,8.27148438 23.4003906,9.65820312 23.4003906,11.7773438 L23.4003906,19.0917969 L21.0664062,19.0917969 L21.0664062,17.3730469 L21.0078125,17.3730469 C20.421875,18.515625 19.1035156,19.2089844 17.6875,19.2089844 Z"/>
</svg>
