<svg xmlns="http://www.w3.org/2000/svg" xmlns:xlink="http://www.w3.org/1999/xlink" width="24" height="24" viewBox="0 0 24 24">
  <defs>
    <path id="ic_info-a" d="M12,22 C6.4771525,22 2,17.5228475 2,12 C2,6.4771525 6.4771525,2 12,2 C17.5228475,2 22,6.4771525 22,12 C22,17.5228475 17.5228475,22 12,22 Z M12,20.5 C16.6944204,20.5 20.5,16.6944204 20.5,12 C20.5,7.30557963 16.6944204,3.5 12,3.5 C7.30557963,3.5 3.5,7.30557963 3.5,12 C3.5,16.6944204 7.30557963,20.5 12,20.5 Z M12,11 C12.4142136,11 12.75,11.3357864 12.75,11.75 L12.75,16.25 C12.75,16.6642136 12.4142136,17 12,17 C11.5857864,17 11.25,16.6642136 11.25,16.25 L11.25,11.75 C11.25,11.3357864 11.5857864,11 12,11 Z M12,7.25 C12.4142136,7.25 12.75,7.58578644 12.75,8 C12.75,8.41421356 12.4142136,8.75 12,8.75 C11.5857864,8.75 11.25,8.41421356 11.25,8 C11.25,7.58578644 11.5857864,7.25 12,7.25 Z"/>
  </defs>
  <g fill="none" fill-rule="evenodd">
    <use fill="#000" fill-rule="nonzero" xlink:href="#ic_info-a"/>
  </g>
</svg>
