<svg xmlns="http://www.w3.org/2000/svg" width="24" height="24" viewBox="0 0 24 24">
  <path d="M13.0606602,13.0606602 C15.0132816,11.1080387 15.0132816,7.94221382 13.0606602,5.98959236 C11.1080387,4.0369709 7.94221382,4.0369709 5.98959236,5.98959236 C4.0369709,7.94221382 4.0369709,11.1080387 5.98959236,13.0606602 C7.94221382,15.0132816 11.1080387,15.0132816 13.0606602,13.0606602 Z M13.7355227,14.4775991 C11.1817067,16.6535821 7.34243433,16.5348225 4.92893219,14.1213203 C2.39052429,11.5829124 2.39052429,7.46734008 4.92893219,4.92893219 C7.46734008,2.39052429 11.5829124,2.39052429 14.1213203,4.92893219 C16.5348225,7.34243433 16.6535821,11.1817067 14.4775991,13.7355227 L15.0887187,14.0556333 C15.8205988,13.7363716 16.7045455,13.8761184 17.3033009,14.4748737 L20.131728,17.3033009 C20.9127766,18.0843494 20.9127766,19.3506794 20.131728,20.131728 C19.3506794,20.9127766 18.0843494,20.9127766 17.3033009,20.131728 L14.4748737,17.3033009 C13.8761184,16.7045455 13.7363716,15.8205988 14.0556333,15.0887187 L13.7355227,14.4775991 Z M15.5355339,15.5355339 C15.3402718,15.7307961 15.3402718,16.0473785 15.5355339,16.2426407 L18.363961,19.0710678 C18.5592232,19.26633 18.8758057,19.26633 19.0710678,19.0710678 C19.26633,18.8758057 19.26633,18.5592232 19.0710678,18.363961 L16.2426407,15.5355339 C16.0473785,15.3402718 15.7307961,15.3402718 15.5355339,15.5355339 Z"/>
</svg>
