<svg xmlns="http://www.w3.org/2000/svg" width="24" height="24" viewBox="0 0 24 24">
  <path d="M4.66516416,17.895496 C5.02529429,18.8338813 5.93485696,19.5 7,19.5 L17,19.5 C18.3807119,19.5 19.5,18.3807119 19.5,17 L19.5,7 C19.5,5.61928813 18.3807119,4.5 17,4.5 L7,4.5 C5.61928813,4.5 4.5,5.61928813 4.5,7 L4.5,15.9393398 L8,12.4393398 L10,14.4393398 L16,8.43933983 L19.5,11.9393398 L19.5,14.0606602 L16,10.5606602 L11.0606602,15.5 L12.5303301,16.9696699 L11.4696699,18.0303301 L8,14.5606602 L4.66516416,17.895496 Z M7,3 L17,3 C19.209139,3 21,4.790861 21,7 L21,17 C21,19.209139 19.209139,21 17,21 L7,21 C4.790861,21 3,19.209139 3,17 L3,7 C3,4.790861 4.790861,3 7,3 Z M6,6.25 L14,6.25 L14,7.75 L6,7.75 L6,6.25 Z M6,9.25 L10,9.25 L10,10.75 L6,10.75 L6,9.25 Z"/>
</svg>
