<svg xmlns="http://www.w3.org/2000/svg" width="24" height="24" viewBox="0 0 24 24">
  <path d="M4.5,14 C3.94771525,14 3.5,13.5522847 3.5,13 L3.5,5 C3.5,4.44771525 3.94771525,4 4.5,4 L7,4 C7.55228475,4 8,4.44771525 8,5 L8,13 C8,13.5522847 7.55228475,14 7,14 L4.5,14 Z M9.49831026,13.5358349 C9.17713988,13.1707284 8.99998502,12.7011195 8.99998502,12.214855 L9,7.63714726 C9,5.57491517 10.5678209,4.19551835 12.6207636,4 L15.43519,3.83950572 C17.4645306,3.64623518 18.8145826,5.00999631 19.230348,7.00567059 L20.3729405,12.4901144 C20.4078806,12.6578268 20.4254894,12.8286866 20.4254894,13 C20.4254894,14.3807119 19.3062013,15.5 17.9254894,15.5 L15,15.5 C15.3126616,17.6925063 15.145995,19.1925063 14.5,20 C13.854005,20.8074937 12.9011955,20.7532457 12,20.5 L12,20.2426407 C12,17.8030001 11.1296349,15.4530965 9.56085982,13.6080662 C9.54177474,13.5856203 9.52092488,13.5615432 9.49831026,13.5358349 Z"/>
</svg>
