<svg xmlns="http://www.w3.org/2000/svg" width="24" height="24" viewBox="0 0 24 24">
  <path d="M9.09995383,14.3001079 C8.93282964,14.4256247 8.72510045,14.5 8.5,14.5 L4.5,14.5 C3.94771525,14.5 3.5,14.0522847 3.5,13.5 L3.5,4.5 C3.5,3.94771525 3.94771525,3.5 4.5,3.5 L8.5,3.5 C9.05228475,3.5 9.5,3.94771525 9.5,4.5 L9.5,5.01436876 C10.0896276,4.54172965 10.8181177,4.23160784 11.6207636,4.15516537 L14.93519,3.83950572 C16.9645306,3.64623518 18.8145826,5.00999631 19.230348,7.00567059 L20.3729405,12.4901144 C20.4078806,12.6578268 20.4254894,12.8286866 20.4254894,13 C20.4254894,14.3807119 19.3062013,15.5 17.9254894,15.5 L15,15.5 C15.0457134,15.8205605 15.0937261,16.3205605 15.1440382,17 C15.2008692,18.3922628 14.9861898,19.3922628 14.5,20 C13.854005,20.8074937 12.6873384,20.9741604 11,20.5 L11,20.2426407 C11,18.0985514 10.3277427,16.0237736 9.09995383,14.3001079 Z M5,13 L8,13 L8,5 L5,5 L5,13 Z M9.5,12.4032384 C11.2091477,14.3091592 12.2467442,16.7199759 12.4592662,19.2650504 C12.9371301,19.3043917 13.2061248,19.2161724 13.3286968,19.0629574 C13.648666,18.6629959 13.7744484,17.530955 13.5150233,15.7117646 L13.2709177,14 L17.9254894,14 C18.4777742,14 18.9254894,13.5522847 18.9254894,13 C18.9254894,12.9314746 18.9184459,12.8631307 18.9044699,12.7960457 L17.7618774,7.31160197 C17.502024,6.06430555 16.3457415,5.21195484 15.0774036,5.33274892 L11.7629773,5.64840858 C10.4798881,5.77060755 9.5,6.84825221 9.5,8.13714726 L9.5,12.4032384 Z"/>
</svg>
