<svg xmlns="http://www.w3.org/2000/svg" width="24" height="24" viewBox="0 0 24 24">
  <path d="M16.4985173,9.81488787 C15.6875544,8.14844995 13.9778946,7 12,7 C9.23857625,7 7,9.23857625 7,12 C7,14.7614237 9.23857625,17 12,17 C13.9778946,17 15.6875544,15.85155 16.4985173,14.1851121 L18.2979242,15.059157 C17.1625761,17.3921701 14.7690524,19 12,19 C8.13400675,19 5,15.8659932 5,12 C5,8.13400675 8.13400675,5 12,5 C14.7690524,5 17.1625761,6.60782993 18.2979242,8.94084302 L16.4985173,9.81488787 Z M12,14.25 C10.7573593,14.25 9.75,13.2426407 9.75,12 C9.75,10.7573593 10.7573593,9.75 12,9.75 C13.2426407,9.75 14.25,10.7573593 14.25,12 C14.25,13.2426407 13.2426407,14.25 12,14.25 Z"/>
</svg>
