<svg xmlns="http://www.w3.org/2000/svg" width="24" height="24" viewBox="0 0 24 24">
  <path d="M10.8296514,15.9183176 C11.2166697,15.806555 11.607151,15.75 12,15.75 C12.392849,15.75 12.7833303,15.806555 13.1703486,15.9183176 C13.6260096,14.5147173 14.9445048,13.5 16.5,13.5 C18.4329966,13.5 20,15.0670034 20,17 C20,18.9329966 18.4329966,20.5 16.5,20.5 C14.7204385,20.5 13.2510735,19.1718909 13.0290189,17.4527867 C12.6801532,17.3165498 12.337997,17.25 12,17.25 C11.662003,17.25 11.3198468,17.3165498 10.9709811,17.4527867 C10.7489265,19.1718909 9.2795615,20.5 7.5,20.5 C5.56700338,20.5 4,18.9329966 4,17 C4,15.0670034 5.56700338,13.5 7.5,13.5 C9.05549516,13.5 10.3739904,14.5147173 10.8296514,15.9183176 Z M7.5,19 C8.6045695,19 9.5,18.1045695 9.5,17 C9.5,15.8954305 8.6045695,15 7.5,15 C6.3954305,15 5.5,15.8954305 5.5,17 C5.5,18.1045695 6.3954305,19 7.5,19 Z M16.5,19 C17.6045695,19 18.5,18.1045695 18.5,17 C18.5,15.8954305 17.6045695,15 16.5,15 C15.3954305,15 14.5,15.8954305 14.5,17 C14.5,18.1045695 15.3954305,19 16.5,19 Z M7,9.5 L17,9.5 L22,12 L2,12 L7,9.5 Z M8,4 L12,6 L16,4 L17,8 L7,8 L8,4 Z"/>
</svg>
