<svg xmlns="http://www.w3.org/2000/svg" width="24" height="24" viewBox="0 0 24 24">
  <path d="M7,3 L17,3 C19.209139,3 21,4.790861 21,7 L21,17 C21,19.209139 19.209139,21 17,21 L7,21 C4.790861,21 3,19.209139 3,17 L3,7 C3,4.790861 4.790861,3 7,3 Z M7,4.5 C5.61928813,4.5 4.5,5.61928813 4.5,7 L4.5,17 C4.5,18.3807119 5.61928813,19.5 7,19.5 L17,19.5 C18.3807119,19.5 19.5,18.3807119 19.5,17 L19.5,7 C19.5,5.61928813 18.3807119,4.5 17,4.5 L7,4.5 Z M16,11 C16.4142136,11 16.75,11.3357864 16.75,11.75 L16.75,16.25 C16.75,16.6642136 16.4142136,17 16,17 C15.5857864,17 15.25,16.6642136 15.25,16.25 L15.25,11.75 C15.25,11.3357864 15.5857864,11 16,11 Z M12,7 C12.4142136,7 12.75,7.33578644 12.75,7.75 L12.75,16.25 C12.75,16.6642136 12.4142136,17 12,17 C11.5857864,17 11.25,16.6642136 11.25,16.25 L11.25,7.75 C11.25,7.33578644 11.5857864,7 12,7 Z M8,13 C8.41421356,13 8.75,13.3357864 8.75,13.75 L8.75,16.25 C8.75,16.6642136 8.41421356,17 8,17 C7.58578644,17 7.25,16.6642136 7.25,16.25 L7.25,13.75 C7.25,13.3357864 7.58578644,13 8,13 Z"/>
</svg>
