<svg xmlns="http://www.w3.org/2000/svg" width="28" height="28" viewBox="0 0 28 28">
  <path d="M9.409713,4.5 C7.6041185,4.5 6.94427955,4.62742078 6.26528403,4.99055156 C5.71187192,5.28651959 5.28651959,5.71187192 4.99055156,6.26528403 C4.62742078,6.94427955 4.5,7.6041185 4.5,9.409713 L4.5,18.590287 C4.5,20.3958815 4.62742078,21.0557205 4.99055156,21.734716 C5.28651959,22.2881281 5.71187192,22.7134804 6.26528403,23.0094484 C6.94427955,23.3725792 7.6041185,23.5 9.409713,23.5 L18.590287,23.5 C20.3958815,23.5 21.0557205,23.3725792 21.734716,23.0094484 C22.2881281,22.7134804 22.7134804,22.2881281 23.0094484,21.734716 C23.3725792,21.0557205 23.5,20.3958815 23.5,18.590287 L23.5,9.409713 C23.5,7.6041185 23.3725792,6.94427955 23.0094484,6.26528403 C22.7134804,5.71187192 22.2881281,5.28651959 21.734716,4.99055156 C21.0557205,4.62742078 20.3958815,4.5 18.590287,4.5 L9.409713,4.5 Z M9.409713,3 L18.590287,3 C20.8190838,3 21.6272994,3.23206403 22.4421143,3.66783176 C23.2569291,4.10359949 23.8964005,4.74307093 24.3321682,5.55788574 C24.767936,6.37270056 25,7.18091615 25,9.409713 L25,18.590287 C25,20.8190838 24.767936,21.6272994 24.3321682,22.4421143 C23.8964005,23.2569291 23.2569291,23.8964005 22.4421143,24.3321682 C21.6272994,24.767936 20.8190838,25 18.590287,25 L9.409713,25 C7.18091615,25 6.37270056,24.767936 5.55788574,24.3321682 C4.74307093,23.8964005 4.10359949,23.2569291 3.66783176,22.4421143 C3.23206403,21.6272994 3,20.8190838 3,18.590287 L3,9.409713 C3,7.18091615 3.23206403,6.37270056 3.66783176,5.55788574 C4.10359949,4.74307093 4.74307093,4.10359949 5.55788574,3.66783176 C6.37270056,3.23206403 7.18091615,3 9.409713,3 Z M8.74339955,13.5 L19.2566005,13.5 C20.0366793,13.5 20.3195548,13.5812224 20.60474,13.7337411 C20.8899252,13.8862598 21.1137402,14.1100748 21.2662589,14.39526 C21.4187776,14.6804452 21.5,14.9633207 21.5,15.7433995 L21.5,19.2566005 C21.5,20.0366793 21.4187776,20.3195548 21.2662589,20.60474 C21.1137402,20.8899252 20.8899252,21.1137402 20.60474,21.2662589 C20.3195548,21.4187776 20.0366793,21.5 19.2566005,21.5 L8.74339955,21.5 C7.96332065,21.5 7.68044519,21.4187776 7.39526001,21.2662589 C7.11007482,21.1137402 6.88625982,20.8899252 6.73374112,20.60474 C6.58122241,20.3195548 6.5,20.0366793 6.5,19.2566005 L6.5,15.7433995 C6.5,14.9633207 6.58122241,14.6804452 6.73374112,14.39526 C6.88625982,14.1100748 7.11007482,13.8862598 7.39526001,13.7337411 C7.68044519,13.5812224 7.96332065,13.5 8.74339955,13.5 Z M8,10.5 C7.17157288,10.5 6.5,9.82842712 6.5,9 C6.5,8.17157288 7.17157288,7.5 8,7.5 C8.82842712,7.5 9.5,8.17157288 9.5,9 C9.5,9.82842712 8.82842712,10.5 8,10.5 Z M12.25,6.5 L20.75,6.5 C21.1642136,6.5 21.5,6.83578644 21.5,7.25 C21.5,7.66421356 21.1642136,8 20.75,8 L12.25,8 C11.8357864,8 11.5,7.66421356 11.5,7.25 C11.5,6.83578644 11.8357864,6.5 12.25,6.5 Z M12.25,10 L20.75,10 C21.1642136,10 21.5,10.3357864 21.5,10.75 C21.5,11.1642136 21.1642136,11.5 20.75,11.5 L12.25,11.5 C11.8357864,11.5 11.5,11.1642136 11.5,10.75 C11.5,10.3357864 11.8357864,10 12.25,10 Z"/>
</svg>
