<svg xmlns="http://www.w3.org/2000/svg" width="28" height="28" viewBox="0 0 28 28">
  <path d="M9.409713,4.5 C7.6041185,4.5 6.94427955,4.62742078 6.26528403,4.99055156 C5.71187192,5.28651959 5.28651959,5.71187192 4.99055156,6.26528403 C4.62742078,6.94427955 4.5,7.6041185 4.5,9.409713 L4.5,18.590287 C4.5,20.3958815 4.62742078,21.0557205 4.99055156,21.734716 C5.28651959,22.2881281 5.71187192,22.7134804 6.26528403,23.0094484 C6.94427955,23.3725792 7.6041185,23.5 9.409713,23.5 L18.590287,23.5 C20.3958815,23.5 21.0557205,23.3725792 21.734716,23.0094484 C22.2881281,22.7134804 22.7134804,22.2881281 23.0094484,21.734716 C23.3725792,21.0557205 23.5,20.3958815 23.5,18.590287 L23.5,9.409713 C23.5,7.6041185 23.3725792,6.94427955 23.0094484,6.26528403 C22.7134804,5.71187192 22.2881281,5.28651959 21.734716,4.99055156 C21.0557205,4.62742078 20.3958815,4.5 18.590287,4.5 L9.409713,4.5 Z M9.409713,3 L18.590287,3 C20.8190838,3 21.6272994,3.23206403 22.4421143,3.66783176 C23.2569291,4.10359949 23.8964005,4.74307093 24.3321682,5.55788574 C24.767936,6.37270056 25,7.18091615 25,9.409713 L25,18.590287 C25,20.8190838 24.767936,21.6272994 24.3321682,22.4421143 C23.8964005,23.2569291 23.2569291,23.8964005 22.4421143,24.3321682 C21.6272994,24.767936 20.8190838,25 18.590287,25 L9.409713,25 C7.18091615,25 6.37270056,24.767936 5.55788574,24.3321682 C4.74307093,23.8964005 4.10359949,23.2569291 3.66783176,22.4421143 C3.23206403,21.6272994 3,20.8190838 3,18.590287 L3,9.409713 C3,7.18091615 3.23206403,6.37270056 3.66783176,5.55788574 C4.10359949,4.74307093 4.74307093,4.10359949 5.55788574,3.66783176 C6.37270056,3.23206403 7.18091615,3 9.409713,3 Z M19,13 C19.4142136,13 19.75,13.3357864 19.75,13.75 L19.75,19.25 C19.75,19.6642136 19.4142136,20 19,20 C18.5857864,20 18.25,19.6642136 18.25,19.25 L18.25,13.75 C18.25,13.3357864 18.5857864,13 19,13 Z M14,8 C14.4142136,8 14.75,8.33578644 14.75,8.75 L14.75,19.25 C14.75,19.6642136 14.4142136,20 14,20 C13.5857864,20 13.25,19.6642136 13.25,19.25 L13.25,8.75 C13.25,8.33578644 13.5857864,8 14,8 Z M9,16 C9.41421356,16 9.75,16.3357864 9.75,16.75 L9.75,19.25 C9.75,19.6642136 9.41421356,20 9,20 C8.58578644,20 8.25,19.6642136 8.25,19.25 L8.25,16.75 C8.25,16.3357864 8.58578644,16 9,16 Z"/>
</svg>
