<svg xmlns="http://www.w3.org/2000/svg" width="28" height="28" viewBox="0 0 28 28">
  <path d="M15.0705524,21.7274066 C15.4993778,23.3278049 14.5496303,24.9728158 12.949232,25.4016412 C11.3488337,25.8304667 9.70382284,24.8807192 9.2749974,23.2803209 L8.45184997,23.5008826 C6.83598561,23.9338521 5.17507756,22.9749264 4.74210801,21.3590621 C4.60887839,20.8618424 4.60456372,20.3388716 4.72957131,19.8395213 L5.66506093,16.1026526 C5.87141276,15.278368 5.86429046,14.4150926 5.64436641,13.5943249 L5.5914716,13.3969187 C4.81499248,10.4990592 5.9756107,7.53851248 8.27958483,5.89007905 C8.2172098,5.7573916 8.16568457,5.61734747 8.12640451,5.47075226 C7.76904998,4.137087 8.5605062,2.76624461 9.89417146,2.40889008 C11.2278367,2.05153556 12.5986791,2.84299178 12.9560336,4.17665704 C12.9953137,4.32325224 13.0207136,4.47029663 13.033039,4.61639485 C15.8525558,4.89199302 18.337954,6.87559258 19.1144332,9.77345212 L19.167328,9.97085824 C19.387252,10.7916259 19.8127216,11.5428055 20.4035699,12.153481 L23.082162,14.9219595 C24.2453786,16.1242104 24.213735,18.0418008 23.011484,19.2050174 C22.6415378,19.5629523 22.1864744,19.820701 21.6892548,19.9539306 L15.0705524,21.7274066 Z M13.6216636,22.1156352 L10.7238861,22.8920923 C10.9382989,23.6922915 11.7608043,24.1671652 12.5610034,23.9527525 C13.3612026,23.7383398 13.8360763,22.9158343 13.6216636,22.1156352 Z M11.5230359,4.63365493 C11.5185733,4.61072659 11.5132828,4.58779239 11.5071449,4.56488561 C11.3642031,4.0314195 10.8158661,3.71483701 10.2824,3.85777882 C9.74893392,4.00072064 9.43235143,4.54905759 9.57529325,5.0825237 C9.5814311,5.10543048 9.58831642,5.12793737 9.59591594,5.15002516 C9.89860474,5.02079235 10.2140864,4.91135958 10.5412191,4.82370465 C10.8683517,4.73604972 11.1962833,4.67308044 11.5230359,4.63365493 Z M7.04036034,13.0086902 L7.09325515,13.2060963 C7.37915641,14.2730943 7.3884154,15.3953523 7.12015802,16.4669223 L6.1846684,20.2037911 C6.12156636,20.4558559 6.12374435,20.7198441 6.19099675,20.9708335 C6.40955358,21.7864987 7.2479562,22.2705507 8.0636214,22.0519938 L21.3010262,18.5050419 C21.5520156,18.4377895 21.781725,18.3076816 21.9684686,18.1270012 C22.5753477,17.5398261 22.5913209,16.571854 22.0041458,15.9649749 L19.3255537,13.1964964 C18.557451,12.4026183 18.0043405,11.4260848 17.7184392,10.3590868 L17.6655444,10.1616807 C16.8793645,7.22761712 13.8635112,5.48641343 10.9294476,6.27259339 C7.99538407,7.05877335 6.25418038,10.0746266 7.04036034,13.0086902 Z"/>
</svg>
