<svg xmlns="http://www.w3.org/2000/svg" width="28" height="28" viewBox="0 0 28 28">
  <path d="M10.8015534,10.5462695 C11.9164468,8.40732176 12.5,6.0291029 12.5,3.61310958 L12.5,3 C14.5764992,2.40527641 15.9931658,2.73860975 16.75,4 C17.3770952,5.04515867 17.5418055,6.71182534 17.2441309,9 L17.2095945,9.2536937 C17.1531391,9.65110511 17.0832742,10.0665405 17,10.5 L20.8934377,10.5 C22.550292,10.5 23.8934377,11.8431458 23.8934377,13.5 C23.8934377,13.6832388 23.8766496,13.8660923 23.8432837,14.0462678 L22.8236934,19.5520555 C22.3560552,22.0773019 20.0513661,23.8376138 17.492056,23.624338 L13.6678181,23.3056515 C12.8471513,23.2372626 12.1014677,22.9243772 11.5,22.4422374 L11.5,22.5 C11.5,23.0522847 11.0522847,23.5 10.5,23.5 L5.5,23.5 C4.94771525,23.5 4.5,23.0522847 4.5,22.5 L4.5,11.5 C4.5,10.9477153 4.94771525,10.5 5.5,10.5 L10.5,10.5 C10.6050922,10.5 10.7063981,10.5162113 10.8015534,10.5462695 Z M10,22 L10,12 L6,12 L6,22 L10,22 Z M11.5,12.388689 L11.5,19.3194685 C11.5,20.6196901 12.496656,21.7028553 13.7923863,21.8108329 L17.6166242,22.1295194 C19.4081413,22.2788125 21.0214237,21.0465941 21.3487704,19.2789216 L22.3683607,13.7731339 C22.3850436,13.6830462 22.3934377,13.5916194 22.3934377,13.5 C22.3934377,12.6715729 21.7218649,12 20.8934377,12 L15.1843965,12 L15.5269378,10.2170021 C16.0535455,7.47590098 15.9828119,5.6368292 15.4637606,4.77174363 C15.2090321,4.34719613 14.7704601,4.14197222 13.9888505,4.21963162 C13.8934386,6.8138075 13.1870594,9.35198213 11.9235951,11.6262179 L11.5,12.388689 Z"/>
</svg>
