<svg xmlns="http://www.w3.org/2000/svg" width="28" height="28" viewBox="0 0 28 28">
  <path d="M5.5,10.5 L8.5,10.5 C9.05228475,10.5 9.5,10.9477153 9.5,11.5 L9.5,22.5 C9.5,23.0522847 9.05228475,23.5 8.5,23.5 L5.5,23.5 C4.94771525,23.5 4.5,23.0522847 4.5,22.5 L4.5,11.5 C4.5,10.9477153 4.94771525,10.5 5.5,10.5 Z M11,12 L11.6209848,10.6027842 C12.5302043,8.55704029 13,6.34326228 13,4.10456879 L13,3 C14.40343,2.55760178 15.5003965,2.84378607 16.2908995,3.85855287 C17.0814024,4.87331966 17.1511026,7.08713537 16.5,10.5 L20.8934377,10.5 C22.550292,10.5 23.8934377,11.8431458 23.8934377,13.5 C23.8934377,13.6832388 23.8766496,13.8660923 23.8432837,14.0462678 L22.8299388,19.5183303 C22.3596783,22.0577371 20.0328263,23.821166 17.4608501,23.58735 L14.637857,23.3307143 C12.5775404,23.1434128 11,21.4159543 11,19.3471414 L11,12 Z"/>
</svg>
