<svg xmlns="http://www.w3.org/2000/svg" width="28" height="28" viewBox="0 0 28 28">
  <path d="M10.8015534,17.4537305 C10.7063981,17.4837887 10.6050922,17.5 10.5,17.5 L5.5,17.5 C4.94771525,17.5 4.5,17.0522847 4.5,16.5 L4.5,5.5 C4.5,4.94771525 4.94771525,4.5 5.5,4.5 L10.5,4.5 C11.0522847,4.5 11.5,4.94771525 11.5,5.5 L11.5,5.55776262 C12.1014677,5.07562281 12.8471513,4.76273739 13.6678181,4.69434849 L17.492056,4.375662 C20.0513661,4.16238616 22.3560552,5.92269809 22.8236934,8.44794449 L23.8432837,13.9537322 C23.8766496,14.1339077 23.8934377,14.3167612 23.8934377,14.5 C23.8934377,16.1568542 22.550292,17.5 20.8934377,17.5 L17,17.5 C17.0832742,17.9334595 17.1531391,18.3488949 17.2095945,18.7463063 L17.2441309,19 C17.5418055,21.2881747 17.3770952,22.9548413 16.75,24 C15.9931658,25.2613903 14.5764992,25.5947236 12.5,25 L12.5,24.3868904 C12.5,21.9708971 11.9164468,19.5926782 10.8015534,17.4537305 Z M10,6 L6,6 L6,16 L10,16 L10,6 Z M11.5,15.611311 L11.9235951,16.3737821 C13.1870594,18.6480179 13.8934386,21.1861925 13.9888505,23.7803684 C14.7704601,23.8580278 15.2090321,23.6528039 15.4637606,23.2282564 C15.9828119,22.3631708 16.0535455,20.524099 15.5269378,17.7829979 L15.1843965,16 L20.8934377,16 C21.7218649,16 22.3934377,15.3284271 22.3934377,14.5 C22.3934377,14.4083806 22.3850436,14.3169538 22.3683607,14.2268661 L21.3487704,8.72107838 C21.0214237,6.9534059 19.4081413,5.72118755 17.6166242,5.87048064 L13.7923863,6.18916713 C12.496656,6.29714466 11.5,7.38030993 11.5,8.68053153 L11.5,15.611311 Z"/>
</svg>
