<svg xmlns="http://www.w3.org/2000/svg" width="28" height="28" viewBox="0 0 28 28">
  <path d="M5.5,17.5 C4.94771525,17.5 4.5,17.0522847 4.5,16.5 L4.5,5.5 C4.5,4.94771525 4.94771525,4.5 5.5,4.5 L8.5,4.5 C9.05228475,4.5 9.5,4.94771525 9.5,5.5 L9.5,16.5 C9.5,17.0522847 9.05228475,17.5 8.5,17.5 L5.5,17.5 Z M11,16 L11,8.65285855 C11,6.58404573 12.5775404,4.85658724 14.637857,4.66928573 L17.4608501,4.41264999 C20.0328263,4.17883397 22.3596783,5.94226293 22.8299388,8.48166972 L23.8432837,13.9537322 C23.8766496,14.1339077 23.8934377,14.3167612 23.8934377,14.5 C23.8934377,16.1568542 22.550292,17.5 20.8934377,17.5 L16.5,17.5 C17.1511026,20.9128646 17.0814024,23.1266803 16.2908995,24.1414471 C15.5003965,25.1562139 14.40343,25.4423982 13,25 L13,23.8954312 C13,21.6567377 12.5302043,19.4429597 11.6209848,17.3972158 L11,16 Z"/>
</svg>
