<svg xmlns="http://www.w3.org/2000/svg" xmlns:xlink="http://www.w3.org/1999/xlink" version="1.1" x="0px" y="0px" viewBox="0 0 100 100" style="enable-background:new 0 0 100 100;" xml:space="preserve"><path d="M77.6,35.8c-0.1,0.1-0.2,0.2-0.3,0.3c-0.4,0.3-0.9,0.5-1.4,0.7c-12,3.9-24.3,7.3-36.5,11c-5.9,1.8-11.7,3.6-17.6,5.3  c5.3-6.4,10.5-13,15.9-19.4c2.6-3.2,5.3-6.3,8-9.4c2.4-2.7,4.3-4.4,8.1-4.2c3,0.1,6,1,8.8,2c3.6,1.3,7.3,2.7,10.5,4.9  C75.1,28.4,79.8,33.1,77.6,35.8z M21.8,80l55.6-16.9V51.4L21.8,68.3V80z M53.3,45.7c-4.4,1.3-8.9,2.6-13.3,3.9l-18.2,5.5v11.1  l55.6-16.9v-11c-0.3,0.1-0.7,0.3-1,0.4C68.8,41.1,60.9,43.4,53.3,45.7z"></path></svg>