<svg xmlns="http://www.w3.org/2000/svg" xmlns:xlink="http://www.w3.org/1999/xlink" version="1.1" x="0px" y="0px" viewBox="0 0 100 100" style="enable-background:new 0 0 100 100;" xml:space="preserve"><style type="text/css">
	.st0{fill:#FFFFFF;stroke:#000000;stroke-width:1.25;stroke-linecap:round;stroke-linejoin:round;}
	.st1{fill:#FFFFFF;stroke:#000000;stroke-width:1.25;stroke-miterlimit:10;}
	.st2{fill:#C6C6C6;stroke:#000000;stroke-width:1.25;stroke-linecap:round;stroke-linejoin:round;stroke-miterlimit:10;}
	.st3{stroke:#000000;stroke-linecap:round;stroke-linejoin:round;stroke-miterlimit:10;}
	.st4{fill:#FFFFFF;stroke:#000000;stroke-linecap:round;stroke-linejoin:round;stroke-miterlimit:10;}
	.st5{fill:none;stroke:#000000;stroke-width:5;stroke-linecap:round;stroke-linejoin:round;stroke-miterlimit:10;}
	.st6{fill:#9D9D9C;stroke:#000000;stroke-width:5;stroke-linecap:round;stroke-linejoin:round;stroke-miterlimit:10;}
	.st7{fill:#1D1D1B;stroke:#000000;stroke-width:5;stroke-linecap:round;stroke-linejoin:round;stroke-miterlimit:10;}
	.st8{fill:#B2B2B2;stroke:#000000;stroke-width:5;stroke-linecap:round;stroke-linejoin:round;stroke-miterlimit:10;}
	.st9{fill:#9D9D9C;}
	.st10{fill:#3C3C3B;stroke:#000000;stroke-width:5;stroke-linecap:round;stroke-linejoin:round;stroke-miterlimit:10;}
	.st11{fill:#C6C6C6;}
	.st12{fill:#878787;}
	.st13{fill:#E6332A;}
	.st14{fill:none;stroke:#000000;stroke-width:2.5;stroke-linecap:round;stroke-linejoin:round;stroke-miterlimit:10;}
	.st15{fill:none;stroke:#1D1D1B;stroke-width:2.5;stroke-linecap:round;stroke-linejoin:round;stroke-miterlimit:10;}
	.st16{fill:#3C3C3B;stroke:#000000;stroke-miterlimit:10;}
	.st17{fill:none;stroke:#878787;stroke-width:2.5;stroke-linecap:round;stroke-linejoin:round;stroke-miterlimit:10;}
	.st18{fill:#1D1D1B;}
	.st19{fill:#706F6F;}
	.st20{fill:#00983A;}
	.st21{fill:#005CE2;}
	.st22{fill:#FFDE00;}
	.st23{fill:#E30613;}
	.st24{fill:#FFDE00;stroke:#000000;stroke-width:1.25;stroke-miterlimit:10;}
	.st25{fill:#E30613;stroke:#000000;stroke-width:1.25;stroke-miterlimit:10;}
	.st26{fill:#005CE2;stroke:#000000;stroke-width:1.25;stroke-miterlimit:10;}
	.st27{fill:none;stroke:#000000;stroke-width:2.5;stroke-miterlimit:10;}
	.st28{fill:none;stroke:#000000;stroke-width:5;stroke-miterlimit:10;}
	.st29{fill:#27348B;stroke:#000000;stroke-width:5;stroke-linecap:round;stroke-linejoin:round;stroke-miterlimit:10;}
	.st30{stroke:#000000;stroke-width:5;stroke-linecap:round;stroke-linejoin:round;stroke-miterlimit:10;}
	.st31{fill:#27348B;}
	.st32{fill:#27348B;stroke:#000000;stroke-width:1.25;stroke-linecap:round;stroke-linejoin:round;stroke-miterlimit:10;}
	.st33{fill:#E71D73;}
	.st34{fill:none;stroke:#009FE3;stroke-width:0.5;stroke-miterlimit:10;}
	.st35{fill:#009640;}
	.st36{fill:#B2B2B2;}
	.st37{fill:#3C3C3B;}
	.st38{fill:none;stroke:#E30613;stroke-width:0.5;stroke-miterlimit:10;}
	.st39{fill:#312783;}
	.st40{fill:#878787;stroke:#000000;stroke-width:1.25;stroke-miterlimit:10;}
	.st41{fill:#878787;stroke:#000000;stroke-miterlimit:10;}
	.st42{fill:#3C3C3B;stroke:#000000;stroke-width:1.25;stroke-miterlimit:10;}
	.st43{fill:#FFFFFF;stroke:#000000;stroke-width:5;stroke-linecap:round;stroke-linejoin:round;stroke-miterlimit:10;}
	.st44{fill:#9D9D9C;stroke:#000000;stroke-linecap:round;stroke-linejoin:round;stroke-miterlimit:10;}
	.st45{fill:#878787;stroke:#878787;stroke-linecap:round;stroke-linejoin:round;stroke-miterlimit:10;}
	.st46{fill:#C6C6C6;stroke:#C6C6C6;stroke-linecap:round;stroke-linejoin:round;stroke-miterlimit:10;}
	.st47{fill:#E30613;stroke:#E30613;stroke-linecap:round;stroke-linejoin:round;stroke-miterlimit:10;}
	.st48{fill:none;stroke:#000000;stroke-width:1.25;stroke-miterlimit:10;}
	.st49{stroke:#000000;stroke-width:1.25;stroke-linecap:round;stroke-linejoin:round;}
	.st50{fill:#FFFFFF;}
	.st51{fill:#FFFFFF;stroke:#FFFFFF;stroke-width:0.625;stroke-linecap:round;stroke-linejoin:round;}
</style><g><path d="M85,34.931v-2.263c0-0.239-0.136-0.457-0.35-0.562C81.792,30.709,78.756,30,75.625,30h-10C65.28,30,65,30.28,65,30.625   V32.5H35v-1.875C35,30.28,34.72,30,34.375,30h-10c-3.131,0-6.167,0.709-9.025,2.107C15.136,32.212,15,32.43,15,32.668v2.263   C9.044,38.24,5,44.592,5,51.875C5,62.559,13.691,71.25,24.375,71.25c4.792,0,9.385-1.774,12.96-5h25.33   c3.575,3.226,8.168,5,12.96,5C86.309,71.25,95,62.559,95,51.875C95,44.592,90.956,38.24,85,34.931z M66.25,31.25h9.375   c2.812,0,5.543,0.61,8.125,1.813v1.247c-2.475-1.15-5.221-1.81-8.125-1.81H66.25V31.25z M16.25,33.063   c2.582-1.203,5.313-1.813,8.125-1.813h9.375v1.25h-9.375c-2.904,0-5.65,0.66-8.125,1.81V33.063z M75.625,70   c-4.558,0-8.924-1.717-12.293-4.834L63.152,65H36.848l-0.18,0.166C33.299,68.283,28.933,70,24.375,70   C14.381,70,6.25,61.869,6.25,51.875S14.381,33.75,24.375,33.75h51.25c9.994,0,18.125,8.131,18.125,18.125S85.619,70,75.625,70z"></path><path d="M75.625,35C66.32,35,58.75,42.57,58.75,51.875S66.32,68.75,75.625,68.75S92.5,61.18,92.5,51.875S84.93,35,75.625,35z    M75.625,67.5C67.009,67.5,60,60.491,60,51.875S67.009,36.25,75.625,36.25S91.25,43.259,91.25,51.875S84.241,67.5,75.625,67.5z"></path><path d="M24.375,40C17.827,40,12.5,45.327,12.5,51.875S17.827,63.75,24.375,63.75S36.25,58.423,36.25,51.875S30.923,40,24.375,40z    M24.375,62.5c-5.858,0-10.625-4.767-10.625-10.625S18.517,41.25,24.375,41.25S35,46.017,35,51.875S30.233,62.5,24.375,62.5z"></path><path d="M27.5,48.75v-4.375c0-0.345-0.28-0.625-0.625-0.625h-5c-0.345,0-0.625,0.28-0.625,0.625v4.375h-4.375   c-0.345,0-0.625,0.28-0.625,0.625v5c0,0.345,0.28,0.625,0.625,0.625h4.375v4.375c0,0.345,0.28,0.625,0.625,0.625h5   c0.345,0,0.625-0.28,0.625-0.625V55h4.375c0.345,0,0.625-0.28,0.625-0.625v-5c0-0.345-0.28-0.625-0.625-0.625H27.5z M20.313,53.125   c0,0.108-0.056,0.209-0.148,0.266c-0.05,0.031-0.107,0.047-0.164,0.047c-0.048,0-0.096-0.011-0.14-0.033l-2.5-1.25   c-0.106-0.053-0.173-0.161-0.173-0.279s0.067-0.227,0.173-0.279l2.5-1.25c0.097-0.049,0.211-0.044,0.304,0.014   c0.092,0.057,0.148,0.157,0.148,0.266V53.125z M25.904,56.39l-1.25,2.5c-0.053,0.106-0.161,0.173-0.279,0.173   s-0.227-0.067-0.279-0.173l-1.25-2.5c-0.049-0.097-0.043-0.212,0.014-0.304c0.057-0.092,0.157-0.148,0.266-0.148h2.5   c0.108,0,0.209,0.056,0.266,0.148C25.948,56.178,25.953,56.293,25.904,56.39z M25.891,47.664c-0.057,0.092-0.157,0.148-0.266,0.148   h-2.5c-0.108,0-0.209-0.056-0.266-0.148c-0.057-0.092-0.063-0.207-0.014-0.304l1.25-2.5c0.105-0.212,0.453-0.212,0.559,0l1.25,2.5   C25.953,47.457,25.948,47.572,25.891,47.664z M31.39,52.154l-2.5,1.25c-0.044,0.022-0.092,0.033-0.14,0.033   c-0.057,0-0.114-0.016-0.164-0.047c-0.092-0.057-0.148-0.157-0.148-0.266v-2.5c0-0.108,0.056-0.209,0.148-0.266   c0.091-0.058,0.208-0.063,0.304-0.014l2.5,1.25c0.106,0.053,0.173,0.161,0.173,0.279S31.496,52.102,31.39,52.154z"></path><path d="M80.625,45c0-2.416-1.959-4.375-4.375-4.375c-0.947,0-1.824,0.301-2.54,0.813l-8.75,6.25   c-1.111,0.793-1.835,2.093-1.835,3.563c0,2.416,1.959,4.375,4.375,4.375c0.947,0,1.824-0.301,2.54-0.813l8.75-6.25   C79.901,47.769,80.625,46.469,80.625,45z M67.5,54.375c-1.726,0-3.125-1.399-3.125-3.125s1.399-3.125,3.125-3.125   s3.125,1.399,3.125,3.125S69.226,54.375,67.5,54.375z M76.25,48.125c-1.726,0-3.125-1.399-3.125-3.125s1.399-3.125,3.125-3.125   s3.125,1.399,3.125,3.125S77.976,48.125,76.25,48.125z"></path><path d="M85,46.875c-0.947,0-1.824,0.301-2.54,0.813l-8.75,6.25c-1.111,0.793-1.835,2.093-1.835,3.563   c0,2.416,1.959,4.375,4.375,4.375c0.947,0,1.824-0.301,2.54-0.813l8.75-6.25c1.111-0.793,1.835-2.093,1.835-3.563   C89.375,48.834,87.416,46.875,85,46.875z M76.25,60.625c-1.726,0-3.125-1.399-3.125-3.125s1.399-3.125,3.125-3.125   s3.125,1.399,3.125,3.125S77.976,60.625,76.25,60.625z M85,54.375c-1.726,0-3.125-1.399-3.125-3.125s1.399-3.125,3.125-3.125   s3.125,1.399,3.125,3.125S86.726,54.375,85,54.375z"></path><path d="M43.491,52.241l-3.75,3.75c-0.488,0.488-0.488,1.279,0,1.768c0.244,0.244,0.564,0.366,0.884,0.366s0.64-0.122,0.884-0.366   l3.75-3.75c0.488-0.488,0.488-1.279,0-1.768S43.979,51.753,43.491,52.241z"></path><path d="M53.491,52.241l-3.75,3.75c-0.488,0.488-0.488,1.279,0,1.768c0.244,0.244,0.564,0.366,0.884,0.366s0.64-0.122,0.884-0.366   l3.75-3.75c0.488-0.488,0.488-1.279,0-1.768S53.979,51.753,53.491,52.241z"></path></g></svg>