<?xml version="1.0" encoding="UTF-8"?>
<svg width="24px" height="24px" viewBox="0 0 24 24" version="1.1" xmlns="http://www.w3.org/2000/svg" xmlns:xlink="http://www.w3.org/1999/xlink">
    <!-- Generator: Sketch 46.2 (44496) - http://www.bohemiancoding.com/sketch -->
    <title>ic_apple</title>
    <desc>Created with Sketch.</desc>
    <defs></defs>
    <g id="Symbols" stroke="none" stroke-width="1" fill="none" fill-rule="evenodd">
        <g id="ic_apple">
            <rect id="Rectangle-1-Copy-1200" x="0" y="0" width="24" height="24"></rect>
            <path d="M20,10 C22,13 17,22 15,22 C13,22 13,21 12,21 C11,21 11,22 9,22 C7,22 2,13 4,10 C5.99999,7.00001 8.99999,7.00001 11,8.00001 L11,4.99999 C5.38138,8.07099 4.10636,3.78446 4.10636,3.78446 C4.10636,3.78446 6.77057,0.192522 11,4.99999 L11,3 L13,3 L13,8.00001 C15,7.00001 18,7.00001 20,10 Z" id="Shape" fill="#000000" fill-rule="nonzero"></path>
        </g>
    </g>
</svg>