<svg xmlns="http://www.w3.org/2000/svg" width="24" height="24" viewBox="0 0 24 24">
  <path d="M12.0025,2.0025 C10.3413,2.0025 8.99875,3.34448 8.99875,5 C8.99875,6.27 9.8,7.4025 11.0013,7.8275 L11.0013,10 L7.9975,10 L7.9975,12.0025 L11.0013,12.0025 L11.0013,18.9162 C9.16,18.6275 7.53375,17.5688 6.53375,16.0012 L7.9975,16.0012 L7.9975,13.9987 L2.9975,13.9987 L2.9975,18.9988 L5,18.9988 L5,17.3 C6.5825,19.6087 9.19875,20.9963 12.0025,21.0012 C14.8,20.9963 17.4175,19.6137 18.9988,17.305 L18.9988,18.9988 L21.0013,18.9988 L21.0013,13.9987 L16.0012,13.9987 L16.0012,16.0012 L17.4613,16.0012 C16.46,17.5637 14.8337,18.6275 12.9975,18.9162 L12.9975,12.0025 L16.0012,12.0025 L16.0012,10 L12.9975,10 L12.9975,7.8225 C14.1988,7.4025 15,6.27 15,5 C15,3.34448 13.6575,2.0025 12.0025,2.0025 Z M12.0025,3.99875 C12.5537,3.99875 12.9975,4.44875 12.9975,5 C12.9975,5.55125 12.5537,6.00125 12.0025,6.00125 C11.445,6.00125 11.0013,5.55125 11.0013,5 C11.0013,4.44875 11.445,3.99875 12.0025,3.99875 Z"/>
</svg>
