<svg xmlns="http://www.w3.org/2000/svg" width="24" height="24" viewBox="0 0 24 24">
  <path d="M11,23 C9.89543,23 9,22.1046 9,21 L9,19 L15,19 L15,21 C15,22.1046 14.1046,23 13,23 L11,23 Z M12,1 C12.7069,1 13.3924,1.09169 14.0452,1.26382 C15.2158,2.83393 16,5.71092 16,9 C16,11.2825 15.6224,13.3666 15,16 C15,17.1046 14.1046,18 13,18 L11,18 C9.89543,18 9,17.1046 9,16 C8.37764,13.3666 8,11.2825 8,9 C8,5.71093 8.78415,2.83393 9.95476,1.26382 C10.6076,1.09169 11.2931,1 12,1 Z M20,8.00001 C20,11.1779 18.1471,15.923 15.4627,17.2138 C16.4102,15.3941 17,11.8348 17,9 C17,6.16522 16.4102,3.60593 15.4627,1.78618 C18.1471,3.07705 20,4.82215 20,8.00001 Z M4,8.00001 C4,4.82215 5.85292,3.07705 8.5373,1.78618 C7.58977,3.60593 7,6.16522 7,9 C7,11.8348 7.58977,15.3941 8.53731,17.2138 C5.85291,15.923 4,11.1779 4,8.00001 Z"/>
</svg>
