<?xml version="1.0" encoding="UTF-8"?>
<svg width="24px" height="24px" viewBox="0 0 24 24" version="1.1" xmlns="http://www.w3.org/2000/svg" xmlns:xlink="http://www.w3.org/1999/xlink">
    <!-- Generator: Sketch 46.2 (44496) - http://www.bohemiancoding.com/sketch -->
    <title>ic_bicycle</title>
    <desc>Created with Sketch.</desc>
    <defs></defs>
    <g id="Symbols" stroke="none" stroke-width="1" fill="none" fill-rule="evenodd">
        <g id="ic_bicycle">
            <rect id="Rectangle-1-Copy-664" x="0" y="0" width="24" height="24"></rect>
            <g id="Fill-2828" transform="translate(1.000000, 4.000000)" fill="#000000">
                <path d="M17,15 C15.897,15 15,14.103 15,13 C15,12.381 15.288,11.834 15.731,11.467 L16.014,13.165 C16.105,13.711 16.623,14.077 17.165,13.986 C17.709,13.896 18.077,13.38 17.986,12.835 L17.703,11.134 C18.459,11.42 19,12.146 19,13 C19,14.103 18.103,15 17,15 M6,13 C6,14.103 5.103,15 4,15 C2.897,15 2,14.103 2,13 C2,11.897 2.897,11 4,11 C4.331,11 4.64,11.089 4.915,11.232 L3.463,12.156 C2.997,12.453 2.86,13.071 3.156,13.537 C3.453,14.002 4.072,14.14 4.537,13.844 L5.992,12.918 C5.993,12.946 6,12.972 6,13 M17.353,9.036 L16.181,2 L18.613,2 L18.051,3.684 C17.877,4.208 18.16,4.774 18.684,4.949 C19.21,5.126 19.774,4.84 19.949,4.316 L20.949,1.316 C21.05,1.011 20.999,0.676 20.811,0.416 C20.623,0.154 20.321,0 20,0 L15,0 C14.706,0 14.427,0.129 14.237,0.354 C14.047,0.578 13.965,0.875 14.014,1.165 L14.666,5.078 C14.598,5.102 14.527,5.116 14.463,5.156 L10.832,7.467 C10.818,7.446 10.815,7.421 10.8,7.4 L9,5 L10,5 C10.552,5 11,4.552 11,4 C11,3.448 10.552,3 10,3 L5,3 C4.448,3 4,3.448 4,4 C4,4.552 4.448,5 5,5 L6.5,5 L9.152,8.536 L6.719,10.084 C6.004,9.417 5.053,9 4,9 C1.794,9 0,10.794 0,13 C0,15.206 1.794,17 4,17 C6.206,17 8,15.206 8,13 C8,12.57 7.914,12.164 7.788,11.775 L15.016,7.176 L15.378,9.351 C13.98,9.975 13,11.373 13,13 C13,15.206 14.794,17 17,17 C19.206,17 21,15.206 21,13 C21,10.915 19.391,9.218 17.353,9.036"></path>
            </g>
        </g>
    </g>
</svg>