<svg xmlns="http://www.w3.org/2000/svg" width="24" height="24" viewBox="0 0 24 24">
  <path d="M18,19 C16.897,19 16,18.103 16,17 C16,16.381 16.288,15.834 16.731,15.467 L17.014,17.165 C17.105,17.711 17.623,18.077 18.165,17.986 C18.709,17.896 19.077,17.38 18.986,16.835 L18.703,15.134 C19.459,15.42 20,16.146 20,17 C20,18.103 19.103,19 18,19 M7,17 C7,18.103 6.103,19 5,19 C3.897,19 3,18.103 3,17 C3,15.897 3.897,15 5,15 C5.331,15 5.64,15.089 5.915,15.232 L4.463,16.156 C3.997,16.453 3.86,17.071 4.156,17.537 C4.453,18.002 5.072,18.14 5.537,17.844 L6.992,16.918 C6.993,16.946 7,16.972 7,17 M18.353,13.036 L17.181,6 L19.613,6 L19.051,7.684 C18.877,8.208 19.16,8.774 19.684,8.949 C20.21,9.126 20.774,8.84 20.949,8.316 L21.949,5.316 C22.05,5.011 21.999,4.676 21.811,4.416 C21.623,4.154 21.321,4 21,4 L16,4 C15.706,4 15.427,4.129 15.237,4.354 C15.047,4.578 14.965,4.875 15.014,5.165 L15.666,9.078 C15.598,9.102 15.527,9.116 15.463,9.156 L11.832,11.467 C11.818,11.446 11.815,11.421 11.8,11.4 L10,9 L11,9 C11.552,9 12,8.552 12,8 C12,7.448 11.552,7 11,7 L6,7 C5.448,7 5,7.448 5,8 C5,8.552 5.448,9 6,9 L7.5,9 L10.152,12.536 L7.719,14.084 C7.004,13.417 6.053,13 5,13 C2.794,13 1,14.794 1,17 C1,19.206 2.794,21 5,21 C7.206,21 9,19.206 9,17 C9,16.57 8.914,16.164 8.788,15.775 L16.016,11.176 L16.378,13.351 C14.98,13.975 14,15.373 14,17 C14,19.206 15.794,21 18,21 C20.206,21 22,19.206 22,17 C22,14.915 20.391,13.218 18.353,13.036"/>
</svg>
