<?xml version="1.0" encoding="UTF-8"?>
<svg width="24px" height="24px" viewBox="0 0 24 24" version="1.1" xmlns="http://www.w3.org/2000/svg" xmlns:xlink="http://www.w3.org/1999/xlink">
    <!-- Generator: Sketch 46.2 (44496) - http://www.bohemiancoding.com/sketch -->
    <title>ic_crab</title>
    <desc>Created with Sketch.</desc>
    <defs></defs>
    <g id="Symbols" stroke="none" stroke-width="1" fill="none" fill-rule="evenodd">
        <g id="ic_crab">
            <rect id="Rectangle-1-Copy-1197" x="0" y="0" width="24" height="24"></rect>
            <path d="M2.4268,9.4219 C2.7238,10.3719 3.3748,11.1819 4.3628,11.8459 C4.5868,11.5019 5.0428,10.9529 5.8728,10.4269 C5.1688,10.0339 4.5558,9.5159 4.3398,8.8379 C4.1888,8.3669 4.2538,7.8969 4.3728,7.5059 C4.6068,7.6559 4.8538,7.7869 5.1268,7.8699 C5.8848,8.1009 6.6968,8.0279 7.4108,7.6469 L10.0598,6.2349 C10.3648,6.0719 10.5648,5.7619 10.5868,5.4159 C10.6088,5.0699 10.4498,4.7369 10.1678,4.5369 L7.7788,2.8429 L9.0298,2.1329 L10.5528,2.8949 L11.4478,1.1059 L9.4478,0.1059 C9.1488,-0.0431 8.7958,-0.0341 8.5068,0.1299 L4.5878,2.3529 C3.3928,2.9899 2.8198,4.3259 3.0728,5.5909 C2.7398,6.1089 1.8818,7.6769 2.4268,9.4219" id="Fill-2605" fill="#000000"></path>
            <path d="M14.9702,2.1328 L16.2212,2.8428 L13.8322,4.5368 C13.5502,4.7368 13.3912,5.0708 13.4132,5.4158 C13.4352,5.7618 13.6352,6.0718 13.9402,6.2348 L16.5892,7.6468 C17.2982,8.0258 18.1102,8.1028 18.8732,7.8698 C19.1472,7.7868 19.3952,7.6558 19.6282,7.5048 C19.7462,7.8918 19.8112,8.3568 19.6642,8.8258 C19.4502,9.5088 18.8352,10.0318 18.1272,10.4268 C18.9572,10.9528 19.4132,11.5018 19.6372,11.8458 C20.6252,11.1808 21.2762,10.3718 21.5732,9.4218 C22.1182,7.6768 21.2602,6.1088 20.9272,5.5908 C21.1812,4.3258 20.6112,2.9928 19.4342,2.3658 L15.4932,0.1308 C15.2042,-0.0342 14.8512,-0.0432 14.5532,0.1058 L12.5532,1.1058 L13.4472,2.8948 L14.9702,2.1328 Z" id="Fill-2606" fill="#000000"></path>
            <path d="M4.0498,13.4775 L0.8358,14.0135 L1.1648,15.9865 L4.4498,15.4385 C4.2648,14.7465 4.1348,14.0835 4.0498,13.4775" id="Fill-2607" fill="#000000"></path>
            <path d="M4.8716,16.7744 L1.6286,18.0714 L2.3716,19.9284 L5.6716,18.6084 C5.3576,18.0124 5.0946,17.3934 4.8716,16.7744" id="Fill-2608" fill="#000000"></path>
            <path d="M3.3755,22.2192 L4.6245,23.7812 L7.7095,21.3122 C7.2185,20.8672 6.7835,20.3562 6.3985,19.8012 L3.3755,22.2192 Z" id="Fill-2609" fill="#000000"></path>
            <path d="M19.9502,13.4775 C19.8652,14.0835 19.7362,14.7465 19.5512,15.4385 L22.8352,15.9865 L23.1642,14.0135 L19.9502,13.4775 Z" id="Fill-2610" fill="#000000"></path>
            <path d="M18.3286,18.6089 L21.6286,19.9289 L22.3716,18.0709 L19.1286,16.7749 C18.9056,17.3939 18.6426,18.0129 18.3286,18.6089" id="Fill-2611" fill="#000000"></path>
            <path d="M16.29,21.3125 L19.375,23.7805 L20.624,22.2195 L17.602,19.8005 C17.217,20.3565 16.782,20.8675 16.29,21.3125" id="Fill-2612" fill="#000000"></path>
            <path d="M14,15.25 C13.31,15.25 12.75,14.69 12.75,14 C12.75,13.31 13.31,12.75 14,12.75 C14.69,12.75 15.25,13.31 15.25,14 C15.25,14.69 14.69,15.25 14,15.25 M10,15.25 C9.31,15.25 8.75,14.69 8.75,14 C8.75,13.31 9.31,12.75 10,12.75 C10.69,12.75 11.25,13.31 11.25,14 C11.25,14.69 10.69,15.25 10,15.25 M18.895,12.553 C18.764,12.292 17.46,10 12,10 C6.54,10 5.236,12.292 5.105,12.553 C5.017,12.729 4.983,12.928 5.008,13.124 C5.053,13.486 6.184,22 12,22 C17.816,22 18.947,13.486 18.992,13.124 C19.017,12.928 18.983,12.729 18.895,12.553" id="Fill-2613" fill="#000000"></path>
        </g>
    </g>
</svg>