<?xml version="1.0" encoding="UTF-8"?>
<svg width="24px" height="24px" viewBox="0 0 24 24" version="1.1" xmlns="http://www.w3.org/2000/svg" xmlns:xlink="http://www.w3.org/1999/xlink">
    <!-- Generator: Sketch 46.2 (44496) - http://www.bohemiancoding.com/sketch -->
    <title>ic_candycane</title>
    <desc>Created with Sketch.</desc>
    <defs></defs>
    <g id="Symbols" stroke="none" stroke-width="1" fill="none" fill-rule="evenodd">
        <g id="ic_candycane">
            <rect id="Rectangle-1-Copy-994" x="0" y="0" width="24" height="24"></rect>
            <path d="M10,10 C10,11.1046 9.10457,12 8,12 C6.89543,12 6,11.1046 6,10 L6,8 C6,7.37389 6.0959,6.77018 6.27382,6.20275 L10,9.92894 L10,10 Z M12,2.00001 C12.7365,2.00001 13.4421,2.13272 14.094,2.37554 L11.9691,6.00024 C11.1441,6.01274 10.4403,6.52468 10.1466,7.24708 L7.24273,4.34324 C8.33971,2.91823 10.0626,2.00001 12,2.00001 Z M17.7592,6.31183 L14,10.0711 L14,8 C14,7.62473 13.8966,7.2736 13.7168,6.97352 L15.8251,3.37721 C16.735,4.13092 17.4187,5.14811 17.7592,6.31183 Z M18,13.0858 L14,17.0858 L14,12.8995 L18,8.89949 L18,13.0858 Z M18,20 C18,21.1046 17.1046,22 16,22 C14.8954,22 14,21.1046 14,20 L14,19.9142 L18,15.9142 L18,20 Z" id="Shape" fill="#000000" fill-rule="nonzero"></path>
        </g>
    </g>
</svg>