<?xml version="1.0" encoding="UTF-8"?>
<svg width="24px" height="24px" viewBox="0 0 24 24" version="1.1" xmlns="http://www.w3.org/2000/svg" xmlns:xlink="http://www.w3.org/1999/xlink">
    <!-- Generator: Sketch 46.2 (44496) - http://www.bohemiancoding.com/sketch -->
    <title>ic_candle</title>
    <desc>Created with Sketch.</desc>
    <defs></defs>
    <g id="Symbols" stroke="none" stroke-width="1" fill="none" fill-rule="evenodd">
        <g id="ic_candle">
            <rect id="Rectangle-1-Copy-994" x="0" y="0" width="24" height="24"></rect>
            <path d="M12.5,2 C10.8431,2 9.5,5.3431 9.5,7 C9.5,8.6569 10.8431,10 12.5,10 C14.1569,10 15.5,8.6569 15.5,7 C15.5,5.3431 14.1569,2 12.5,2 Z M12.5,6.5 C13.0523,6.5 13.5,6.9477 13.5,7.5 C13.5,8.0523 13.0523,8.5 12.5,8.5 C11.9477,8.5 11.5,8.0523 11.5,7.5 C11.5,6.9477 11.9477,6.5 12.5,6.5 Z M10,11 C9.446,11 9,11.446 9,12 L9,20 L7,20 C6.44772,20 6,19.5523 6,19 L6,18 C6,17.446 5.554,17 5,17 C4.446,17 4,17.446 4,18 L4,19 C4,20.6568 5.34315,22 7,22 L19,22 C19.554,22 20,21.554 20,21 C20,20.446 19.554,20 19,20 L16,20 L16,12 C16,11.446 15.554,11 15,11 L10,11 Z" id="Shape" fill="#000000" fill-rule="nonzero"></path>
        </g>
    </g>
</svg>