<svg xmlns="http://www.w3.org/2000/svg" width="24" height="24" viewBox="0 0 24 24">
  <g>
    <path d="M16,12 C14.728,12 13.579,12.49 12.697,13.273 C13.511,14.297 14,15.591 14,17 C14,18.409 13.511,19.703 12.697,20.727 C13.58,21.51 14.728,22 16,22 C18.762,22 21,19.761 21,17 C21,14.238 18.762,12 16,12"/>
    <path d="M8 12C5.239 12 3 14.238 3 17 3 19.761 5.239 22 8 22 10.762 22 13 19.761 13 17 13 14.238 10.762 12 8 12M9.3027 11.1455C9.9757 9.2515 11.7937 5.4075 15.7317 4.3025 14.1867 6.9525 14.3997 9.6305 14.7197 11.1405 15.1327 11.0505 15.5607 10.9995 15.9997 10.9995 16.2547 10.9995 16.5047 11.0205 16.7507 11.0515 16.4117 9.7455 15.9427 6.4715 18.7067 3.7075 18.9927 3.4205 19.0787 2.9915 18.9237 2.6175 18.7687 2.2435 18.4047 1.9995 17.9997 1.9995 10.6967 1.9995 7.9447 8.8035 7.2327 11.0545 7.4847 11.0225 7.7397 10.9995 7.9997 10.9995 8.4477 10.9995 8.8827 11.0525 9.3027 11.1455"/>
  </g>
</svg>
