<?xml version="1.0" encoding="UTF-8"?>
<svg width="24px" height="24px" viewBox="0 0 24 24" version="1.1" xmlns="http://www.w3.org/2000/svg" xmlns:xlink="http://www.w3.org/1999/xlink">
    <!-- Generator: Sketch 46.2 (44496) - http://www.bohemiancoding.com/sketch -->
    <title>ic_carrot</title>
    <desc>Created with Sketch.</desc>
    <defs></defs>
    <g id="Symbols" stroke="none" stroke-width="1" fill="none" fill-rule="evenodd">
        <g id="ic_carrot">
            <rect id="Rectangle-1-Copy-1212" x="0" y="0" width="24" height="24"></rect>
            <polygon id="Fill-3241" fill="#000000" points="17.2803 2.3936 15.4423 1.6056 13.7563 5.5386 15.2793 7.0616"></polygon>
            <polygon id="Fill-3242" fill="#000000" points="16.8242 8.6069 20.6032 4.8279 19.1892 3.4139 15.4102 7.1929"></polygon>
            <polygon id="Fill-3243" fill="#000000" points="21.623 6.7383 16.957 8.7393 18.481 10.2613 22.412 8.5763"></polygon>
            <path d="M14.0176,7.1719 C12.7186,5.8739 10.8296,7.5519 10.5286,7.8369 L13.3556,10.6629 L12.2946,11.7239 L9.5646,8.9929 C8.5646,10.2329 6.9416,12.3299 5.6656,14.3879 L7.6486,16.3699 L6.5876,17.4309 L4.8866,15.7289 C3.9046,17.5559 3.3966,19.1789 4.1186,19.9009 C5.2366,21.0189 8.5156,19.1909 11.3676,17.2099 L9.4656,15.3099 L10.5266,14.2489 L12.6036,16.3249 C14.5976,14.8569 16.1386,13.5369 16.1386,13.5369 C16.1386,13.5369 18.2606,11.4159 16.8456,10.0009 L14.0176,7.1719 Z" id="Fill-3244" fill="#000000"></path>
        </g>
    </g>
</svg>