<svg xmlns="http://www.w3.org/2000/svg" width="24" height="24" viewBox="0 0 24 24">
  <g fill-rule="evenodd">
    <polygon points="17.28 2.394 15.442 1.606 13.756 5.539 15.279 7.062"/>
    <polygon points="16.824 8.607 20.603 4.828 19.189 3.414 15.41 7.193"/>
    <polygon points="21.623 6.738 16.957 8.739 18.481 10.261 22.412 8.576"/>
    <path d="M14.0176,7.1719 C12.7186,5.8739 10.8296,7.5519 10.5286,7.8369 L13.3556,10.6629 L12.2946,11.7239 L9.5646,8.9929 C8.5646,10.2329 6.9416,12.3299 5.6656,14.3879 L7.6486,16.3699 L6.5876,17.4309 L4.8866,15.7289 C3.9046,17.5559 3.3966,19.1789 4.1186,19.9009 C5.2366,21.0189 8.5156,19.1909 11.3676,17.2099 L9.4656,15.3099 L10.5266,14.2489 L12.6036,16.3249 C14.5976,14.8569 16.1386,13.5369 16.1386,13.5369 C16.1386,13.5369 18.2606,11.4159 16.8456,10.0009 L14.0176,7.1719 Z"/>
  </g>
</svg>
