<?xml version="1.0" encoding="UTF-8"?>
<svg width="24px" height="24px" viewBox="0 0 24 24" version="1.1" xmlns="http://www.w3.org/2000/svg" xmlns:xlink="http://www.w3.org/1999/xlink">
    <!-- Generator: Sketch 46.2 (44496) - http://www.bohemiancoding.com/sketch -->
    <title>ic_cherry</title>
    <desc>Created with Sketch.</desc>
    <defs></defs>
    <g id="Symbols" stroke="none" stroke-width="1" fill="none" fill-rule="evenodd">
        <g id="ic_cherry">
            <rect id="Rectangle-1-Copy-1209" x="0" y="0" width="24" height="24"></rect>
            <path d="M16,12 C14.728,12 13.579,12.49 12.697,13.273 C13.511,14.297 14,15.591 14,17 C14,18.409 13.511,19.703 12.697,20.727 C13.58,21.51 14.728,22 16,22 C18.762,22 21,19.761 21,17 C21,14.238 18.762,12 16,12" id="Fill-546" fill="#000000"></path>
            <path d="M8,12 C5.239,12 3,14.238 3,17 C3,19.761 5.239,22 8,22 C10.762,22 13,19.761 13,17 C13,14.238 10.762,12 8,12" id="Fill-547" fill="#000000"></path>
            <path d="M9.3027,11.1455 C9.9757,9.2515 11.7937,5.4075 15.7317,4.3025 C14.1867,6.9525 14.3997,9.6305 14.7197,11.1405 C15.1327,11.0505 15.5607,10.9995 15.9997,10.9995 C16.2547,10.9995 16.5047,11.0205 16.7507,11.0515 C16.4117,9.7455 15.9427,6.4715 18.7067,3.7075 C18.9927,3.4205 19.0787,2.9915 18.9237,2.6175 C18.7687,2.2435 18.4047,1.9995 17.9997,1.9995 C10.6967,1.9995 7.9447,8.8035 7.2327,11.0545 C7.4847,11.0225 7.7397,10.9995 7.9997,10.9995 C8.4477,10.9995 8.8827,11.0525 9.3027,11.1455" id="Fill-548" fill="#000000"></path>
        </g>
    </g>
</svg>