<?xml version="1.0" encoding="UTF-8"?>
<svg width="24px" height="24px" viewBox="0 0 24 24" version="1.1" xmlns="http://www.w3.org/2000/svg" xmlns:xlink="http://www.w3.org/1999/xlink">
    <!-- Generator: Sketch 46.2 (44496) - http://www.bohemiancoding.com/sketch -->
    <title>ic_drill</title>
    <desc>Created with Sketch.</desc>
    <defs></defs>
    <g id="Symbols" stroke="none" stroke-width="1" fill="none" fill-rule="evenodd">
        <g id="ic_drill">
            <rect id="Rectangle-1-Copy-726" x="0" y="0" width="24" height="24"></rect>
            <path d="M11,13 L10,13 L10,11 L13,11 C13,12.103 12.103,13 11,13 M17,3 L6,3 C3.794,3 2,4.794 2,7 C2,8.745 3.13,10.217 4.692,10.762 L2.613,17 L10,17 L10,15 L11,15 C13.206,15 15,13.206 15,11 L17,11 C17.552,11 18,10.552 18,10 L18,4 C18,3.448 17.552,3 17,3" id="Fill-2446" fill="#000000"></path>
            <path d="M11,18 L2,18 C1.653,18 1.332,18.18 1.149,18.474 C0.967,18.769 0.951,19.137 1.105,19.447 L2.105,21.447 C2.275,21.786 2.621,22 3,22 L10,22 C10.379,22 10.725,21.786 10.895,21.447 L11.895,19.447 C12.049,19.137 12.033,18.769 11.851,18.474 C11.668,18.18 11.347,18 11,18" id="Fill-2447" fill="#000000"></path>
            <path d="M24,6 L20.822,6 C20.519,5.156 19.848,4.486 19,4.185 L19,9.816 C19.848,9.514 20.519,8.844 20.822,8 L24,8 L24,6 Z" id="Fill-2448" fill="#000000"></path>
        </g>
    </g>
</svg>