<?xml version="1.0" encoding="UTF-8"?>
<svg width="24px" height="24px" viewBox="0 0 24 24" version="1.1" xmlns="http://www.w3.org/2000/svg" xmlns:xlink="http://www.w3.org/1999/xlink">
    <!-- Generator: Sketch 46.2 (44496) - http://www.bohemiancoding.com/sketch -->
    <title>ic_duck</title>
    <desc>Created with Sketch.</desc>
    <defs></defs>
    <g id="Symbols" stroke="none" stroke-width="1" fill="none" fill-rule="evenodd">
        <g id="ic_duck">
            <polygon id="Shape" points="0 0 24 0 24 24 0 24"></polygon>
            <path d="M8.5,6 C7.67157,6 7,6.67158 7,7.5 C7,8.32843 7.67157,9 8.5,9 C9.32843,9 10,8.32843 10,7.5 C10,6.67158 9.32843,6 8.5,6 Z M10,3.00001 C12.7614,3.00001 15,5.23858 15,8.00001 C15,9.6969 14.1547,11.1964 12.8622,12.1003 C14.435,12.2471 16.2175,12.6088 18,13.5 C21,15 22,13 22,13 C22,13 21,22 15,22 L9,22 C9,22 4,22 4,17 C4,14.0007 6.99854,13.0005 6.00072,11.0015 C2,11 2,7.50001 2,7.50001 C3,8.00001 4.24326,7.98521 5.01213,7.64903 C5.19225,5.05137 7.35656,3.00001 10,3.00001 Z" id="Shape" fill="#000000" fill-rule="nonzero"></path>
        </g>
    </g>
</svg>