<svg xmlns="http://www.w3.org/2000/svg" width="24" height="24" viewBox="0 0 24 24">
  <path d="M2.99939,13.9981 C2.99939,18.9691 7.0284,22.9981 11.9994,22.9981 C11.9994,18.0271 7.97038,13.9981 2.99939,13.9981 Z M11.9994,6.49807 C13.3804,6.49807 14.4994,7.61707 14.4994,8.99807 C14.4994,10.37906 13.3804,11.4981 11.9994,11.4981 C10.6184,11.4981 9.49939,10.37906 9.49939,8.99807 C9.49939,7.61707 10.6184,6.49807 11.9994,6.49807 Z M5.60239,11.2481 C5.60239,12.6291 6.72107,13.7481 8.10239,13.7481 C8.62839,13.7481 9.11639,13.5831 9.51839,13.3061 C9.51439,13.3701 9.49939,13.4321 9.49939,13.4981 C9.49939,14.8791 10.6184,15.9981 11.9994,15.9981 C13.3804,15.9981 14.4994,14.8791 14.4994,13.4981 C14.4994,13.4321 14.4844,13.3701 14.4794,13.3061 C14.8824,13.5831 15.3704,13.7481 15.8964,13.7481 C17.2777,13.7481 18.3964,12.6291 18.3964,11.2481 C18.3964,10.25206 17.8104,9.40006 16.9684,8.99807 C17.8104,8.59608 18.3964,7.74407 18.3964,6.74807 C18.3964,5.36707 17.2777,4.24807 15.8964,4.24807 C15.3704,4.24807 14.8824,4.41306 14.4794,4.69007 C14.4844,4.62607 14.4994,4.56406 14.4994,4.49807 C14.4994,3.11707 13.3804,1.998068 11.9994,1.998068 C10.6184,1.998068 9.49939,3.11707 9.49939,4.49807 C9.49939,4.56406 9.51439,4.62607 9.51839,4.69007 C9.11639,4.41306 8.62839,4.24807 8.10239,4.24807 C6.72107,4.24807 5.60239,5.36707 5.60239,6.74807 C5.60239,7.74407 6.18839,8.59608 7.0304,8.99807 C6.18839,9.40006 5.60239,10.25206 5.60239,11.2481 Z M11.9994,22.9981 C16.9704,22.9981 20.9994,18.9691 20.9994,13.9981 C16.0284,13.9981 11.9994,18.0271 11.9994,22.9981 Z"/>
</svg>
