<svg xmlns="http://www.w3.org/2000/svg" width="24" height="24" viewBox="0 0 24 24">
  <g fill-rule="evenodd">
    <path d="M11.9995 5.9993C9.3355 5.9993 6.9995 8.3353 6.9995 10.9993 6.9995 12.4003 7.9995 15.9773 7.9995 15.9993L7.9995 19.9993C7.9995 22.3933 9.6065 24.0003 11.9995 24.0003 14.6625 24.0003 15.9995 21.4353 15.9995 19.9993 15.9995 18.9143 15.6295 18.0803 15.3045 17.3453 14.9165 16.4713 14.7255 15.9853 14.9485 15.3153 15.8895 12.4893 16.9995 12.3333 16.9995 9.9993 16.9995 7.6073 14.9905 5.9993 11.9995 5.9993M16.9595 1.02C16.1495.849 15.2615 1.804 14.9765 3.155 14.6905 4.506 15.1165 5.74 15.9275 5.913 16.7375 6.084 17.6265 5.126 17.9115 3.777 18.1965 2.424 17.7705 1.19 16.9595 1.02M12.4995 4.9993C13.3275 4.9993 13.9995 4.1033 13.9995 2.9993 13.9995 1.8953 13.3275.9993 12.4995.9993 11.6715.9993 10.9995 1.8953 10.9995 2.9993 10.9995 4.1033 11.6715 4.9993 12.4995 4.9993M8.9995 5.9993C9.5525 5.9993 9.9995 5.3293 9.9995 4.4993 9.9995 3.6703 9.5525 2.9993 8.9995 2.9993 8.4475 2.9993 7.9995 3.6703 7.9995 4.4993 7.9995 5.3293 8.4475 5.9993 8.9995 5.9993M5.3911 5.1509C4.8751 5.3469 4.6951 6.1319 4.9891 6.9069 5.2831 7.6829 5.9411 8.1509 6.4561 7.9549 6.9721 7.7599 7.1531 6.9719 6.8591 6.1969 6.5651 5.4229 5.9081 4.9539 5.3911 5.1509"/>
  </g>
</svg>
