<?xml version="1.0" encoding="UTF-8"?>
<svg width="24px" height="24px" viewBox="0 0 24 24" version="1.1" xmlns="http://www.w3.org/2000/svg" xmlns:xlink="http://www.w3.org/1999/xlink">
    <!-- Generator: Sketch 46.2 (44496) - http://www.bohemiancoding.com/sketch -->
    <title>ic_glasses</title>
    <desc>Created with Sketch.</desc>
    <defs></defs>
    <g id="Symbols" stroke="none" stroke-width="1" fill="none" fill-rule="evenodd">
        <g id="ic_glasses">
            <rect id="Rectangle-1-Copy-1317" x="0" y="0" width="24" height="24"></rect>
            <path d="M17,18 C15.897,18 15,17.103 15,16 C15,14.897 15.897,14 17,14 C18.103,14 19,14.897 19,16 C19,17.103 18.103,18 17,18 M7,18 C5.897,18 5,17.103 5,16 C5,14.897 5.897,14 7,14 C8.103,14 9,14.897 9,16 C9,17.103 8.103,18 7,18 M21.707,5.293 L19.707,3.293 L18.293,4.707 L20,6.414 L20,13.383 C19.266,12.542 18.2,12 17,12 C15.142,12 13.589,13.28 13.142,15 L10.858,15 C10.411,13.28 8.858,12 7,12 C5.8,12 4.734,12.542 4,13.383 L4,6.414 L5.707,4.707 L4.293,3.293 L2.293,5.293 C2.105,5.48 2,5.735 2,6 L2,16 C2,16.552 2.448,17 3,17 L3.142,17 C3.589,18.72 5.142,20 7,20 C8.858,20 10.411,18.72 10.858,17 L13.142,17 C13.589,18.72 15.142,20 17,20 C18.858,20 20.411,18.72 20.858,17 L21,17 C21.552,17 22,16.552 22,16 L22,6 C22,5.735 21.895,5.48 21.707,5.293" id="Fill-951" fill="#000000"></path>
        </g>
    </g>
</svg>