<?xml version="1.0" encoding="UTF-8"?>
<svg width="24px" height="24px" viewBox="0 0 24 24" version="1.1" xmlns="http://www.w3.org/2000/svg" xmlns:xlink="http://www.w3.org/1999/xlink">
    <!-- Generator: Sketch 46.2 (44496) - http://www.bohemiancoding.com/sketch -->
    <title>ic_ginger_bread_man</title>
    <desc>Created with Sketch.</desc>
    <defs></defs>
    <g id="Symbols" stroke="none" stroke-width="1" fill="none" fill-rule="evenodd">
        <g id="ic_ginger_bread_man">
            <rect id="Rectangle-1-Copy-1191" x="0" y="0" width="24" height="24"></rect>
            <path d="M18,10 L18,14 C19.104,14 20,13.104 20,12 C20,10.896 19.104,10 18,10" id="Fill-512" fill="#000000"></path>
            <path d="M6,10 C4.896,10 4,10.896 4,12 C4,13.104 4.896,14 6,14 L6,10 Z" id="Fill-513" fill="#000000"></path>
            <path d="M13.75,7 C13.336,7 13,6.664 13,6.25 C13,5.836 13.336,5.5 13.75,5.5 C14.164,5.5 14.5,5.836 14.5,6.25 C14.5,6.664 14.164,7 13.75,7 L13.75,7 Z M12,12.5 C11.586,12.5 11.25,12.164 11.25,11.75 C11.25,11.336 11.586,11 12,11 C12.414,11 12.75,11.336 12.75,11.75 C12.75,12.164 12.414,12.5 12,12.5 L12,12.5 Z M12,15 C11.586,15 11.25,14.664 11.25,14.25 C11.25,13.836 11.586,13.5 12,13.5 C12.414,13.5 12.75,13.836 12.75,14.25 C12.75,14.664 12.414,15 12,15 L12,15 Z M10.25,7 C9.836,7 9.5,6.664 9.5,6.25 C9.5,5.836 9.836,5.5 10.25,5.5 C10.664,5.5 11,5.836 11,6.25 C11,6.664 10.664,7 10.25,7 L10.25,7 Z M15.501,14 L17,14 L17,10 L14.62,10 C15.459,9.267 16,8.201 16,7 C16,4.791 14.209,3 12,3 C9.791,3 8,4.791 8,7 C8,8.201 8.541,9.267 9.38,10 L7,10 L7,14 L8.5,14 L7.102,18.497 C6.773,19.552 7.362,20.672 8.417,21 C9.472,21.328 10.594,20.739 10.922,19.685 L12,16.216 L13.079,19.685 C13.407,20.739 14.528,21.328 15.583,21 C16.638,20.672 17.227,19.552 16.899,18.497 L15.501,14 Z" id="Fill-514" fill="#000000"></path>
        </g>
    </g>
</svg>