<svg xmlns="http://www.w3.org/2000/svg" width="24" height="24" viewBox="0 0 24 24">
  <g fill-rule="evenodd">
    <path d="M18 10L18 14C19.104 14 20 13.104 20 12 20 10.896 19.104 10 18 10M6 10C4.896 10 4 10.896 4 12 4 13.104 4.896 14 6 14L6 10zM13.75 7C13.336 7 13 6.664 13 6.25 13 5.836 13.336 5.5 13.75 5.5 14.164 5.5 14.5 5.836 14.5 6.25 14.5 6.664 14.164 7 13.75 7L13.75 7zM12 12.5C11.586 12.5 11.25 12.164 11.25 11.75 11.25 11.336 11.586 11 12 11 12.414 11 12.75 11.336 12.75 11.75 12.75 12.164 12.414 12.5 12 12.5L12 12.5zM12 15C11.586 15 11.25 14.664 11.25 14.25 11.25 13.836 11.586 13.5 12 13.5 12.414 13.5 12.75 13.836 12.75 14.25 12.75 14.664 12.414 15 12 15L12 15zM10.25 7C9.836 7 9.5 6.664 9.5 6.25 9.5 5.836 9.836 5.5 10.25 5.5 10.664 5.5 11 5.836 11 6.25 11 6.664 10.664 7 10.25 7L10.25 7zM15.501 14L17 14 17 10 14.62 10C15.459 9.267 16 8.201 16 7 16 4.791 14.209 3 12 3 9.791 3 8 4.791 8 7 8 8.201 8.541 9.267 9.38 10L7 10 7 14 8.5 14 7.102 18.497C6.773 19.552 7.362 20.672 8.417 21 9.472 21.328 10.594 20.739 10.922 19.685L12 16.216 13.079 19.685C13.407 20.739 14.528 21.328 15.583 21 16.638 20.672 17.227 19.552 16.899 18.497L15.501 14z"/>
  </g>
</svg>
