<?xml version="1.0" encoding="UTF-8"?>
<svg width="24px" height="24px" viewBox="0 0 24 24" version="1.1" xmlns="http://www.w3.org/2000/svg" xmlns:xlink="http://www.w3.org/1999/xlink">
    <!-- Generator: Sketch 46.2 (44496) - http://www.bohemiancoding.com/sketch -->
    <title>ic_headphones</title>
    <desc>Created with Sketch.</desc>
    <defs></defs>
    <g id="Symbols" stroke="none" stroke-width="1" fill="none" fill-rule="evenodd">
        <g id="ic_headphones">
            <rect id="Rectangle-1-Copy-319" x="0" y="0" width="24" height="24"></rect>
            <path d="M11.9999,2.0029 C6.4859,2.0029 1.9999,6.4879 1.9999,12.0029 L1.9999,20.0029 C1.9999,21.1069 2.8949,22.0029 3.9999,22.0029 L5.9999,22.0029 C7.1039,22.0029 7.9999,21.1069 7.9999,20.0029 L7.9999,17.0029 C7.9999,15.8989 7.1039,15.0029 5.9999,15.0029 L3.9999,15.0029 L3.9999,12.0029 C3.9999,7.5909 7.5889,4.0029 11.9999,4.0029 C16.4109,4.0029 19.9999,7.5909 19.9999,12.0029 L19.9999,15.0029 L17.9999,15.0029 C16.8949,15.0029 15.9999,15.8989 15.9999,17.0029 L15.9999,20.0029 C15.9999,21.1069 16.8949,22.0029 17.9999,22.0029 L19.9999,22.0029 C21.1039,22.0029 21.9999,21.1069 21.9999,20.0029 L21.9999,12.0029 C21.9999,6.4879 17.5139,2.0029 11.9999,2.0029" id="Fill-2444" fill="#000000"></path>
        </g>
    </g>
</svg>