<?xml version="1.0" encoding="UTF-8"?>
<svg width="24px" height="24px" viewBox="0 0 24 24" version="1.1" xmlns="http://www.w3.org/2000/svg" xmlns:xlink="http://www.w3.org/1999/xlink">
    <!-- Generator: Sketch 46.2 (44496) - http://www.bohemiancoding.com/sketch -->
    <title>ic_ice_cream</title>
    <desc>Created with Sketch.</desc>
    <defs></defs>
    <g id="Symbols" stroke="none" stroke-width="1" fill="none" fill-rule="evenodd">
        <g id="ic_ice_cream">
            <rect id="Rectangle-1-Copy-1183" x="0" y="0" width="24" height="24"></rect>
            <g id="Fill-490-+-Fill-491" transform="translate(6.000000, 2.000000)" fill="#000000">
                <path d="M5.0713,19.3716 C5.2233,19.7506 5.5913,19.9996 6.0003,19.9996 C6.4083,19.9996 6.7763,19.7506 6.9283,19.3716 L10.6773,9.9996 L1.3223,9.9996 L5.0713,19.3716 Z" id="Fill-490"></path>
                <path d="M6,0 C2.687,0 0,2.687 0,6 L0,7 C0,8.104 0.896,9 2,9 C3.104,9 4,8.104 4,7 C4,8.104 4.896,9 6,9 C7.104,9 8,8.104 8,7 C8,8.104 8.896,9 10,9 C11.104,9 12,8.104 12,7 L12,6 C12,2.687 9.313,0 6,0" id="Fill-491"></path>
            </g>
        </g>
    </g>
</svg>