<?xml version="1.0" encoding="UTF-8"?>
<svg width="24px" height="24px" viewBox="0 0 24 24" version="1.1" xmlns="http://www.w3.org/2000/svg" xmlns:xlink="http://www.w3.org/1999/xlink">
    <!-- Generator: Sketch 46.2 (44496) - http://www.bohemiancoding.com/sketch -->
    <title>ic_key</title>
    <desc>Created with Sketch.</desc>
    <defs></defs>
    <g id="Symbols" stroke="none" stroke-width="1" fill="none" fill-rule="evenodd">
        <g id="ic_key">
            <rect id="Rectangle-1-Copy-111" x="0" y="0" width="24" height="24"></rect>
            <path d="M7,19 C5.896,19 4.999,18.104 5,17 C5,15.896 5.896,15 6.999,15 C8.104,14.999 8.999,15.896 9,17 C8.999,18.104 8.104,19 7,19 L7,19 Z M20.292,10.363 L21.706,8.949 L19.232,6.475 L20.646,5.062 L18.524,2.94 L9.035,12.431 C8.438,12.165 7.79,12.017 7.118,12.001 L7.002,12 C4.308,12 2.065,14.19 2.002,16.881 C1.969,18.217 2.459,19.484 3.381,20.451 C4.303,21.418 5.546,21.969 6.881,21.999 L7.003,22 C9.693,22 11.935,19.811 11.998,17.119 C12.021,16.157 11.765,15.234 11.279,14.429 L14.99,10.718 L17.463,13.194 L18.878,11.779 L16.404,9.304 L17.818,7.889 L20.292,10.363 Z" id="Fill-67" fill="#000000"></path>
        </g>
    </g>
</svg>