<?xml version="1.0" encoding="UTF-8"?>
<svg width="24px" height="24px" viewBox="0 0 24 24" version="1.1" xmlns="http://www.w3.org/2000/svg" xmlns:xlink="http://www.w3.org/1999/xlink">
    <!-- Generator: Sketch 46.2 (44496) - http://www.bohemiancoding.com/sketch -->
    <title>ic_logo</title>
    <desc>Created with Sketch.</desc>
    <defs></defs>
    <g id="Symbols" stroke="none" stroke-width="1" fill="none" fill-rule="evenodd">
        <g id="ic_logo">
            <rect id="Rectangle-4" x="0" y="0" width="24" height="24"></rect>
            <path d="M6.48522021,20.3432069 L7.9360653,18.8923618 C9.12709181,19.5961412 10.5163828,20 12,20 C16.418278,20 20,16.418278 20,12 C20,10.5163828 19.5961412,9.12709181 18.8923618,7.9360653 L20.3432069,6.48522021 C21.3902465,8.06608623 22,9.96183533 22,12 C22,17.5228475 17.5228475,22 12,22 C9.96183533,22 8.06608623,21.3902465 6.48522021,20.3432069 Z M3.65679308,17.5147798 C2.60975353,15.9339138 2,14.0381647 2,12 C2,6.4771525 6.4771525,2 12,2 C14.0381647,2 15.9339138,2.60975353 17.5147798,3.65679308 L16.0639347,5.10763818 C14.8729082,4.40385879 13.4836172,4 12,4 C7.581722,4 4,7.581722 4,12 C4,13.4836172 4.40385879,14.8729082 5.10763818,16.0639347 L3.65679308,17.5147798 Z" id="Combined-Shape" fill="#000000" fill-rule="nonzero"></path>
            <circle id="Oval" fill="#000000" fill-rule="nonzero" cx="12" cy="12" r="3"></circle>
        </g>
    </g>
</svg>