<?xml version="1.0" encoding="UTF-8"?>
<svg width="24px" height="24px" viewBox="0 0 24 24" version="1.1" xmlns="http://www.w3.org/2000/svg" xmlns:xlink="http://www.w3.org/1999/xlink">
    <!-- Generator: Sketch 46.2 (44496) - http://www.bohemiancoding.com/sketch -->
    <title>ic_mask</title>
    <desc>Created with Sketch.</desc>
    <defs></defs>
    <g id="Symbols" stroke="none" stroke-width="1" fill="none" fill-rule="evenodd">
        <g id="ic_mask">
            <rect id="Rectangle-1-Copy-1345" x="0" y="0" width="24" height="24"></rect>
            <g id="Fill-740-+-Fill-741" transform="translate(1.000000, 4.000000)" fill="#000000">
                <path d="M19,11.6289 L19,19.9999 L21,19.9999 L21,8.9009 C20.662,9.6659 20.228,10.3839 19.671,10.9999 C19.461,11.2319 19.234,11.4369 19,11.6289" id="Fill-740"></path>
                <path d="M18,8 L13,8 L13,6 L18,6 L18,8 Z M9,8 L4,8 L4,6 L9,6 L9,8 Z M21.058,0.9 C21.023,0.558 20.814,0.257 20.506,0.104 C20.197,-0.049 19.831,-0.031 19.538,0.149 C19.508,0.168 16.501,2 14.063,2 C12.85,2 11.861,2.905 11.063,3.656 C10.264,2.905 9.275,2 8.063,2 C5.625,2 2.617,0.167 2.587,0.149 C2.293,-0.031 1.928,-0.049 1.619,0.104 C1.311,0.257 1.102,0.558 1.067,0.9 C1.042,1.161 0.462,7.308 3.196,10.329 C4.199,11.437 5.5,12 7.063,12 C8.913,12 10.209,11.058 11.063,10.328 C11.916,11.058 13.212,12 15.063,12 C16.625,12 17.926,11.437 18.929,10.329 C21.663,7.308 21.083,1.161 21.058,0.9 L21.058,0.9 Z" id="Fill-741"></path>
            </g>
        </g>
    </g>
</svg>