<?xml version="1.0" encoding="UTF-8"?>
<svg width="24px" height="24px" viewBox="0 0 24 24" version="1.1" xmlns="http://www.w3.org/2000/svg" xmlns:xlink="http://www.w3.org/1999/xlink">
    <!-- Generator: Sketch 46.2 (44496) - http://www.bohemiancoding.com/sketch -->
    <title>ic_mustache</title>
    <desc>Created with Sketch.</desc>
    <defs></defs>
    <g id="Symbols" stroke="none" stroke-width="1" fill="none" fill-rule="evenodd">
        <g id="ic_mustache">
            <rect id="Rectangle-1-Copy-407" x="0" y="0" width="24" height="24"></rect>
            <path d="M10.6387,10.585 C9.7987,10.116 8.7697,10.141 7.9517,10.647 C3.5837,13.347 0.9997,9.902 0.9997,9.902 C0.9997,9.902 1.9997,16.902 8.9997,15.902 C10.6407,15.668 11.9997,14.559 11.9997,12.902 C11.9997,11.94 11.4787,11.053 10.6387,10.585" id="Fill-1808" fill="#000000"></path>
            <path d="M16.0479,10.6465 C15.2309,10.1405 14.2009,10.1165 13.3609,10.5845 C12.5219,11.0525 11.9999,11.9405 11.9999,12.9025 C11.9999,14.5585 13.3589,15.6675 14.9999,15.9025 C21.9999,16.9025 22.9999,9.9025 22.9999,9.9025 C22.9999,9.9025 20.4159,13.3465 16.0479,10.6465" id="Fill-1809" fill="#000000"></path>
        </g>
    </g>
</svg>