<svg xmlns="http://www.w3.org/2000/svg" width="24" height="24" viewBox="0 0 24 24">
  <g fill-rule="evenodd">
    <path d="M10.6387 10.585C9.7987 10.116 8.7697 10.141 7.9517 10.647 3.5837 13.347.9997 9.902.9997 9.902.9997 9.902 1.9997 16.902 8.9997 15.902 10.6407 15.668 11.9997 14.559 11.9997 12.902 11.9997 11.94 11.4787 11.053 10.6387 10.585M16.0479 10.6465C15.2309 10.1405 14.2009 10.1165 13.3609 10.5845 12.5219 11.0525 11.9999 11.9405 11.9999 12.9025 11.9999 14.5585 13.3589 15.6675 14.9999 15.9025 21.9999 16.9025 22.9999 9.9025 22.9999 9.9025 22.9999 9.9025 20.4159 13.3465 16.0479 10.6465"/>
  </g>
</svg>
