<?xml version="1.0" encoding="UTF-8"?>
<svg width="24px" height="24px" viewBox="0 0 24 24" version="1.1" xmlns="http://www.w3.org/2000/svg" xmlns:xlink="http://www.w3.org/1999/xlink">
    <!-- Generator: Sketch 46.2 (44496) - http://www.bohemiancoding.com/sketch -->
    <title>ic_pacman</title>
    <desc>Created with Sketch.</desc>
    <defs></defs>
    <g id="Symbols" stroke="none" stroke-width="1" fill="none" fill-rule="evenodd">
        <g id="ic_pacman">
            <rect id="Rectangle-1-Copy-1390" x="0" y="0" width="24" height="24"></rect>
            <path d="M11.5,8.998 C10.672,8.998 10,8.326 10,7.498 C10,6.67 10.672,5.998 11.5,5.998 C12.328,5.998 13,6.67 13,7.498 C13,8.326 12.328,8.998 11.5,8.998 L11.5,8.998 Z M14.414,12 L20.056,6.358 C20.446,5.969 20.446,5.335 20.056,4.945 C18.16,3.046 15.654,2 13,2 C7.486,2 3,6.486 3,12 C3,17.514 7.486,22 13,22 C15.654,22 18.16,20.954 20.056,19.055 C20.446,18.665 20.446,18.032 20.056,17.642 L14.414,12 Z" id="Fill-799" fill="#000000"></path>
        </g>
    </g>
</svg>