<svg xmlns="http://www.w3.org/2000/svg" width="24" height="24" viewBox="0 0 24 24">
  <path d="M12,2 C13.1046,2 14,2.89543 14,4 C14,4.74028 13.5978,5.38663 13,5.73244 L13,7.00002 L14,7.00002 C17.866,7.00002 21,10.134 21,14 L22,14 C22.5522,14 23,14.4477 23,15 L23,18 C23,18.5523 22.5522,19 22,19 L21,19 L21,20 C21,21.1046 20.1046,22 19,22 L5,22 C3.89543,22 3,21.1046 3,20 L3,19 L2,19 C1.44771,19 0.999999,18.5523 0.999999,18 L0.999999,15 C0.999999,14.4477 1.44771,14 2,14 L3,14 C3,10.134 6.134,7.00002 10,7.00002 L11,7.00002 L11,5.73244 C10.4022,5.38663 10,4.74028 10,4 C10,2.89543 10.8954,2 12,2 Z M7.5,13 C6.11929,13 5,14.1193 5,15.5 C5,16.8807 6.11929,18 7.5,18 C8.88071,18 10,16.8807 10,15.5 C10,14.1193 8.88071,13 7.5,13 Z M16.5,13 C15.1193,13 14,14.1193 14,15.5 C14,16.8807 15.1193,18 16.5,18 C17.8807,18 19,16.8807 19,15.5 C19,14.1193 17.8807,13 16.5,13 Z"/>
</svg>
