<?xml version="1.0" encoding="UTF-8"?>
<svg width="24px" height="24px" viewBox="0 0 24 24" version="1.1" xmlns="http://www.w3.org/2000/svg" xmlns:xlink="http://www.w3.org/1999/xlink">
    <!-- Generator: Sketch 46.2 (44496) - http://www.bohemiancoding.com/sketch -->
    <title>ic_strawberry</title>
    <desc>Created with Sketch.</desc>
    <defs></defs>
    <g id="Symbols" stroke="none" stroke-width="1" fill="none" fill-rule="evenodd">
        <g id="ic_strawberry">
            <rect id="Rectangle-1-Copy-1205" x="0" y="0" width="24" height="24"></rect>
            <path d="M12,4 C12,0 9.042,0.042 5,0 C5.854,3.271 8.132,3.988 12,4" id="Fill-992" fill="#000000"></path>
            <path d="M20,0 C15.958,0.042 13,0 13,4 C16.868,3.988 19.146,3.271 20,0" id="Fill-993" fill="#000000"></path>
            <path d="M16,14.25 C15.31,14.25 14.75,13.691 14.75,13 C14.75,12.31 15.31,11.75 16,11.75 C16.69,11.75 17.25,12.31 17.25,13 C17.25,13.691 16.69,14.25 16,14.25 M14,17.25 C13.31,17.25 12.75,16.691 12.75,16 C12.75,15.31 13.31,14.75 14,14.75 C14.69,14.75 15.25,15.31 15.25,16 C15.25,16.691 14.69,17.25 14,17.25 M12,20.25 C11.31,20.25 10.75,19.691 10.75,19 C10.75,18.31 11.31,17.75 12,17.75 C12.69,17.75 13.25,18.31 13.25,19 C13.25,19.691 12.69,20.25 12,20.25 M8.75,16 C8.75,15.31 9.31,14.75 10,14.75 C10.69,14.75 11.25,15.31 11.25,16 C11.25,16.691 10.69,17.25 10,17.25 C9.31,17.25 8.75,16.691 8.75,16 M8,14.25 C7.31,14.25 6.75,13.691 6.75,13 C6.75,12.31 7.31,11.75 8,11.75 C8.69,11.75 9.25,12.31 9.25,13 C9.25,13.691 8.69,14.25 8,14.25 M10,8.75 C10.69,8.75 11.25,9.31 11.25,10 C11.25,10.691 10.69,11.25 10,11.25 C9.31,11.25 8.75,10.691 8.75,10 C8.75,9.31 9.31,8.75 10,8.75 M13.25,13 C13.25,13.691 12.69,14.25 12,14.25 C11.31,14.25 10.75,13.691 10.75,13 C10.75,12.31 11.31,11.75 12,11.75 C12.69,11.75 13.25,12.31 13.25,13 M14,8.75 C14.69,8.75 15.25,9.31 15.25,10 C15.25,10.691 14.69,11.25 14,11.25 C13.31,11.25 12.75,10.691 12.75,10 C12.75,9.31 13.31,8.75 14,8.75 M12,5 C7,5 4,8.687 4,12 C4,16 8.687,23 12,23 C15.313,23 20,16 20,12 C20,8.687 17,5 12,5" id="Fill-994" fill="#000000"></path>
        </g>
    </g>
</svg>