<?xml version="1.0" encoding="UTF-8"?>
<svg width="24px" height="24px" viewBox="0 0 24 24" version="1.1" xmlns="http://www.w3.org/2000/svg" xmlns:xlink="http://www.w3.org/1999/xlink">
    <!-- Generator: Sketch 46.2 (44496) - http://www.bohemiancoding.com/sketch -->
    <title>ic_shirt</title>
    <desc>Created with Sketch.</desc>
    <defs></defs>
    <g id="Symbols" stroke="none" stroke-width="1" fill="none" fill-rule="evenodd">
        <g id="ic_shirt">
            <rect id="Rectangle-1-Copy-1291" x="0" y="0" width="24" height="24"></rect>
            <g id="Fill-2950" transform="translate(2.000000, 4.000000)" fill="#000000">
                <path d="M10,3 C8.896,3 8,2.104 8,1 L12,1 C12,2.104 11.104,3 10,3 M19.6,3.2 L15.6,0.2 C15.427,0.07 15.216,0 15,0 L5,0 C4.784,0 4.573,0.07 4.4,0.2 L0.4,3.2 C-0.024,3.519 -0.127,4.113 0.168,4.555 L2.168,7.555 C2.447,7.974 2.996,8.119 3.447,7.895 L4,7.618 L4,15 C4,15.552 4.448,16 5,16 L15,16 C15.552,16 16,15.552 16,15 L16,7.618 L16.553,7.895 C17.004,8.119 17.553,7.974 17.832,7.555 L19.832,4.555 C20.127,4.113 20.024,3.519 19.6,3.2"></path>
            </g>
        </g>
    </g>
</svg>