<svg xmlns="http://www.w3.org/2000/svg" width="24" height="24" viewBox="0 0 24 24">
  <g fill-rule="evenodd">
    <path d="M12 4C12 0 9.042.042 5 0 5.854 3.271 8.132 3.988 12 4M20 0C15.958.042 13 0 13 4 16.868 3.988 19.146 3.271 20 0M16 14.25C15.31 14.25 14.75 13.691 14.75 13 14.75 12.31 15.31 11.75 16 11.75 16.69 11.75 17.25 12.31 17.25 13 17.25 13.691 16.69 14.25 16 14.25M14 17.25C13.31 17.25 12.75 16.691 12.75 16 12.75 15.31 13.31 14.75 14 14.75 14.69 14.75 15.25 15.31 15.25 16 15.25 16.691 14.69 17.25 14 17.25M12 20.25C11.31 20.25 10.75 19.691 10.75 19 10.75 18.31 11.31 17.75 12 17.75 12.69 17.75 13.25 18.31 13.25 19 13.25 19.691 12.69 20.25 12 20.25M8.75 16C8.75 15.31 9.31 14.75 10 14.75 10.69 14.75 11.25 15.31 11.25 16 11.25 16.691 10.69 17.25 10 17.25 9.31 17.25 8.75 16.691 8.75 16M8 14.25C7.31 14.25 6.75 13.691 6.75 13 6.75 12.31 7.31 11.75 8 11.75 8.69 11.75 9.25 12.31 9.25 13 9.25 13.691 8.69 14.25 8 14.25M10 8.75C10.69 8.75 11.25 9.31 11.25 10 11.25 10.691 10.69 11.25 10 11.25 9.31 11.25 8.75 10.691 8.75 10 8.75 9.31 9.31 8.75 10 8.75M13.25 13C13.25 13.691 12.69 14.25 12 14.25 11.31 14.25 10.75 13.691 10.75 13 10.75 12.31 11.31 11.75 12 11.75 12.69 11.75 13.25 12.31 13.25 13M14 8.75C14.69 8.75 15.25 9.31 15.25 10 15.25 10.691 14.69 11.25 14 11.25 13.31 11.25 12.75 10.691 12.75 10 12.75 9.31 13.31 8.75 14 8.75M12 5C7 5 4 8.687 4 12 4 16 8.687 23 12 23 15.313 23 20 16 20 12 20 8.687 17 5 12 5"/>
  </g>
</svg>
