<?xml version="1.0" encoding="UTF-8"?>
<svg width="24px" height="24px" viewBox="0 0 24 24" version="1.1" xmlns="http://www.w3.org/2000/svg" xmlns:xlink="http://www.w3.org/1999/xlink">
    <!-- Generator: Sketch 46.2 (44496) - http://www.bohemiancoding.com/sketch -->
    <title>ic_search</title>
    <desc>Created with Sketch.</desc>
    <defs></defs>
    <g id="Symbols" stroke="none" stroke-width="1" fill="none" fill-rule="evenodd">
        <g id="ic_search">
            <path d="M10.5,15 C8.01,15 6,12.99 6,10.5 C6,8.01 8.01,6 10.5,6 C12.99,6 15,8.01 15,10.5 C15,12.99 12.99,15 10.5,15 L10.5,15 Z M15.765,14.266 C16.53,13.197 17,11.906 17,10.5 C17,6.91 14.09,4 10.5,4 C6.91,4 4,6.91 4,10.5 C4,14.09 6.91,17 10.5,17 C11.906,17 13.197,16.53 14.266,15.765 L17.999,19.489 L19.489,17.999 L15.765,14.266 Z" id="Fill-1" fill="#000000"></path>
            <rect id="Rectangle-5" x="0" y="0" width="24" height="24"></rect>
        </g>
    </g>
</svg>