<?xml version="1.0" encoding="UTF-8"?>
<svg width="24px" height="24px" viewBox="0 0 24 24" version="1.1" xmlns="http://www.w3.org/2000/svg" xmlns:xlink="http://www.w3.org/1999/xlink">
    <!-- Generator: Sketch 46.2 (44496) - http://www.bohemiancoding.com/sketch -->
    <title>ic_scissors</title>
    <desc>Created with Sketch.</desc>
    <defs></defs>
    <g id="Symbols" stroke="none" stroke-width="1" fill="none" fill-rule="evenodd">
        <g id="ic_scissors">
            <rect id="Rectangle-1-Copy-994" x="0" y="0" width="24" height="24"></rect>
            <g id="content-cut" transform="translate(2.000000, 2.000000)" fill-rule="nonzero" fill="#000000">
                <path d="M17,1 L11,7 L13,9 L20,2 L20,1 L17,1 Z M10,10.5 C9.72,10.5 9.5,10.28 9.5,10 C9.5,9.72 9.72,9.5 10,9.5 C10.28,9.5 10.5,9.72 10.5,10 C10.5,10.28 10.28,10.5 10,10.5 Z M4,18 C2.9,18 2,17.11 2,16 C2,14.89 2.9,14 4,14 C5.1,14 6,14.89 6,16 C6,17.11 5.1,18 4,18 Z M4,6 C2.9,6 2,5.11 2,4 C2,2.89 2.9,2 4,2 C5.1,2 6,2.89 6,4 C6,5.11 5.1,6 4,6 Z M7.64,5.64 C7.87,5.14 8,4.59 8,4 C8,1.79 6.21,0 4,0 C1.79,0 0,1.79 0,4 C0,6.21 1.79,8 4,8 C4.59,8 5.14,7.87 5.64,7.64 L8,10 L5.64,12.36 C5.14,12.13 4.59,12 4,12 C1.79,12 0,13.79 0,16 C0,18.21 1.79,20 4,20 C6.21,20 8,18.21 8,16 C8,15.41 7.87,14.86 7.64,14.36 L10,12 L17,19 L20,19 L20,18 L7.64,5.64 Z" id="Shape"></path>
            </g>
        </g>
    </g>
</svg>