<?xml version="1.0" encoding="UTF-8"?>
<svg width="24px" height="24px" viewBox="0 0 24 24" version="1.1" xmlns="http://www.w3.org/2000/svg" xmlns:xlink="http://www.w3.org/1999/xlink">
    <!-- Generator: Sketch 46.2 (44496) - http://www.bohemiancoding.com/sketch -->
    <title>ic_sword</title>
    <desc>Created with Sketch.</desc>
    <defs></defs>
    <g id="Symbols" stroke="none" stroke-width="1" fill="none" fill-rule="evenodd">
        <g id="ic_sword">
            <rect id="Rectangle-1-Copy-994" x="0" y="0" width="24" height="24"></rect>
            <path d="M22.707,1.2949 C22.479,1.0659 22.156,0.9619 21.835,1.0159 L15.835,2.0159 C15.582,2.0579 15.354,2.1959 15.2,2.4019 L7.143,13.1429 L8.47,14.4699 L17.97,4.9699 L19.03,6.0299 L9.53,15.5299 L10.857,16.8579 L21.6,8.8019 C21.806,8.6479 21.944,8.4199 21.986,8.1659 L22.986,2.1659 C23.04,1.8479 22.936,1.5239 22.707,1.2949" id="Fill-983" fill="#000000"></path>
            <path d="M11.1924,18.708 L5.2944,12.812 C5.1074,12.624 5.0004,12.365 5.0004,12.102 L5.0004,10.002 L3.0004,10.002 L3.0004,12.102 C3.0004,12.891 3.3194,13.664 3.8794,14.225 L5.1204,15.465 L1.2934,19.293 C0.9024,19.684 0.9024,20.316 1.2934,20.707 L3.2934,22.707 C3.4884,22.902 3.7444,23 4.0004,23 C4.2554,23 4.5114,22.902 4.7074,22.707 L8.5354,18.879 L9.7784,20.122 C10.3454,20.69 11.0994,21.002 11.9004,21.002 L14.0004,21.002 L14.0004,19.002 L11.9004,19.002 C11.6334,19.002 11.3814,18.897 11.1924,18.708" id="Fill-984" fill="#000000"></path>
        </g>
    </g>
</svg>