<svg xmlns="http://www.w3.org/2000/svg" width="24" height="24" viewBox="0 0 24 24">
  <path d="M12,7 C10.896,7 10,6.104 10,5 L14,5 C14,6.104 13.104,7 12,7 M21.6,7.2 L17.6,4.2 C17.427,4.07 17.216,4 17,4 L7,4 C6.784,4 6.573,4.07 6.4,4.2 L2.4,7.2 C1.976,7.519 1.873,8.113 2.168,8.555 L4.168,11.555 C4.447,11.974 4.996,12.119 5.447,11.895 L6,11.618 L6,19 C6,19.552 6.448,20 7,20 L17,20 C17.552,20 18,19.552 18,19 L18,11.618 L18.553,11.895 C19.004,12.119 19.553,11.974 19.832,11.555 L21.832,8.555 C22.127,8.113 22.024,7.519 21.6,7.2"/>
</svg>
