<svg xmlns="http://www.w3.org/2000/svg" width="24" height="24" viewBox="0 0 24 24">
  <path fill-rule="evenodd" d="M5,5.0264 L3.414,5.0264 L5,3.4404 L5,5.0264 Z M23,15.0264 L18,10.0264 L14.707,13.3194 L7,5.6124 L7,1.0264 C7,0.6224 6.756,0.2574 6.383,0.1024 C6.008,-0.0526 5.579,0.0334 5.293,0.3194 L0.293,5.3194 C0.007,5.6064 -0.079,6.0354 0.076,6.4094 C0.231,6.7824 0.596,7.0264 1,7.0264 L5.586,7.0264 L13.293,14.7344 L10,18.0264 L15,23.0264 C16.562,24.5924 22,24.0264 23,23.0264 C24,22.0264 24.562,16.5924 23,15.0264 L23,15.0264 Z"/>
</svg>
