<?xml version="1.0" encoding="UTF-8"?>
<svg width="24px" height="24px" viewBox="0 0 24 24" version="1.1" xmlns="http://www.w3.org/2000/svg" xmlns:xlink="http://www.w3.org/1999/xlink">
    <!-- Generator: Sketch 46.2 (44496) - http://www.bohemiancoding.com/sketch -->
    <title>ic_tree</title>
    <desc>Created with Sketch.</desc>
    <defs></defs>
    <g id="Symbols" stroke="none" stroke-width="1" fill="none" fill-rule="evenodd">
        <g id="ic_tree">
            <rect id="Rectangle-1-Copy-442" x="0" y="0" width="24" height="24"></rect>
            <path d="M17.9634,16.4453 L15.0004,12.0003 L15.5794,12.0003 C15.9524,12.0003 16.2944,11.7923 16.4664,11.4623 C16.6384,11.1313 16.6124,10.7323 16.3984,10.4263 L14.0004,7.0003 C14.2914,7.0003 14.5584,6.8383 14.6924,6.5793 C14.8274,6.3213 14.8064,6.0093 14.6394,5.7713 L12.0004,2.0003 L9.3604,5.7713 C9.1934,6.0093 9.1734,6.3213 9.3074,6.5793 C9.4424,6.8383 9.7094,7.0003 10.0004,7.0003 L7.6014,10.4263 C7.3874,10.7323 7.3614,11.1313 7.5334,11.4623 C7.7064,11.7923 8.0484,12.0003 8.4214,12.0003 L9.0004,12.0003 L6.0364,16.4453 C5.8324,16.7523 5.8134,17.1473 5.9864,17.4723 C6.1614,17.7973 6.4994,18.0003 6.8684,18.0003 L17.1314,18.0003 C17.5004,18.0003 17.8394,17.7973 18.0134,17.4723 C18.1874,17.1473 18.1684,16.7523 17.9634,16.4453" id="Fill-2663" fill="#000000"></path>
            <polygon id="Fill-2664" fill="#000000" points="11 23 13 23 13 19 11 19"></polygon>
        </g>
    </g>
</svg>