<svg xmlns="http://www.w3.org/2000/svg" width="24" height="24" viewBox="0 0 24 24">
  <g fill-rule="evenodd">
    <path d="M6 17C4.896 17 4 17.896 4 19 4 20.104 4.896 21 6 21 7.104 21 8 20.104 8 19 8 17.896 7.104 17 6 17M11 17C9.896 17 9 17.896 9 19 9 20.104 9.896 21 11 21 12.104 21 13 20.104 13 19 13 17.896 12.104 17 11 17M16 17C14.896 17 14 17.896 14 19 14 20.104 14.896 21 16 21 17.104 21 18 20.104 18 19 18 17.896 17.104 17 16 17"/>
    <polygon points="9 4 3 4 3 5 9 5"/>
    <path d="M19,11 L15,11 L15,8 L19,8 L19,11 Z M12,5 L12,7 L13,7 L13,10 L8,10 L9,6 L3,6 L4,10 L1,13 L1,16 L3.14,18.141 C3.512,16.906 4.644,16 6,16 C7.044,16 7.963,16.536 8.5,17.346 C9.037,16.536 9.956,16 11,16 C12.044,16 12.963,16.536 13.5,17.346 C14.037,16.536 14.956,16 16,16 C17.656,16 19,17.344 19,19 L21,19 L21,7 L22,7 L22,5 L12,5 Z"/>
  </g>
</svg>
