<svg xmlns="http://www.w3.org/2000/svg" xmlns:xlink="http://www.w3.org/1999/xlink" version="1.1" x="0px" y="0px" viewBox="0 0 10 10" enable-background="new 0 0 10 10" xml:space="preserve"><g><path d="M5.001,0.542c-2.458,0-4.459,2.001-4.459,4.459c0,2.457,2.001,4.457,4.459,4.457c2.457,0,4.457-2,4.457-4.457   C9.458,2.543,7.458,0.542,5.001,0.542z M5.001,8.96c-2.184,0-3.96-1.777-3.96-3.959c0-2.184,1.776-3.96,3.96-3.96   c2.182,0,3.959,1.776,3.959,3.96C8.96,7.183,7.183,8.96,5.001,8.96z"></path><path d="M5,1.458C3.047,1.458,1.458,3.047,1.458,5S3.047,8.545,5,8.545S8.545,6.953,8.545,5S6.953,1.458,5,1.458z M5,8.443   C3.103,8.443,1.558,6.899,1.558,5c0-1.897,1.545-3.442,3.442-3.442c1.899,0,3.443,1.545,3.443,3.442   C8.443,6.899,6.899,8.443,5,8.443z"></path><path d="M5,1.919c-1.699,0-3.081,1.382-3.081,3.082c0,1.699,1.382,3.08,3.081,3.08c1.7,0,3.081-1.381,3.081-3.08   C8.081,3.301,6.7,1.919,5,1.919z M5,7.982c-1.644,0-2.981-1.336-2.981-2.981c0-1.645,1.338-2.982,2.981-2.982   c1.646,0,2.982,1.338,2.982,2.982C7.982,6.646,6.646,7.982,5,7.982z"></path><path d="M5.001,2.442C3.589,2.442,2.442,3.589,2.442,5c0,1.41,1.146,2.56,2.559,2.56C6.41,7.56,7.56,6.41,7.56,5   C7.56,3.589,6.41,2.442,5.001,2.442z M5.001,7.458C3.645,7.458,2.543,6.356,2.543,5c0-1.355,1.102-2.459,2.458-2.459   c1.355,0,2.457,1.104,2.457,2.459C7.458,6.356,6.356,7.458,5.001,7.458z"></path><path d="M4.95,3.558c-0.116,0-0.212,0.113-0.212,0.23S4.803,3.95,4.919,3.95c0.117,0,0.273-0.062,0.25-0.293   C5.163,3.595,5.068,3.558,4.95,3.558z"></path><circle cx="4.298" cy="5.088" r="0.212"></circle><path d="M6.062,5.685c0.105-0.067,0.295-0.08,0.295-0.198c0-0.116-0.063-0.188-0.195-0.151C6.048,5.366,5.934,5.37,5.934,5.486   C5.934,5.604,5.962,5.748,6.062,5.685z"></path><path d="M5.993,6.099c-0.116,0-0.294,0.055-0.294,0.173c0,0.116,0.236,0.161,0.294,0.251c0.065,0.099,0.213-0.094,0.213-0.212   C6.206,6.193,6.112,6.099,5.993,6.099z"></path><path d="M5.703,4.825c0.158,0.091,0.187-0.2,0.232-0.376c0.051-0.188-0.174-0.293-0.354-0.293c-0.182,0-0.207,0.159-0.207,0.341   S5.494,4.706,5.703,4.825z"></path><path d="M4.95,4.941c-0.097,0-0.175,0.179-0.175,0.275c0,0.096,0.078,0.174,0.175,0.174c0.098,0,0.12-0.103,0.12-0.198   C5.07,5.095,5.048,4.941,4.95,4.941z"></path><path d="M4.208,4.624c0-0.041-0.04-0.031-0.082-0.031c-0.04,0-0.074,0.033-0.074,0.075c0,0.041,0.034,0.075,0.074,0.075   C4.168,4.743,4.208,4.665,4.208,4.624z"></path><path d="M4.707,4.66c0,0.042,0.034,0.077,0.075,0.077s0.119-0.004,0.119-0.045S4.823,4.586,4.782,4.586S4.707,4.62,4.707,4.66z"></path><path d="M5.817,4.96c-0.043,0-0.105,0.021-0.105,0.063c0,0.04,0.115,0.111,0.155,0.111c0.041,0,0.023-0.061,0.023-0.101   C5.891,4.992,5.857,4.96,5.817,4.96z"></path><circle cx="6.015" cy="5.866" r="0.075"></circle><path d="M5.325,6.099c-0.042,0-0.075,0.032-0.075,0.075c0,0.041,0.084,0.079,0.124,0.079c0.043,0,0.025-0.038,0.025-0.079   C5.399,6.131,5.366,6.099,5.325,6.099z"></path><path d="M4.646,5.685c0.04,0.013,0.082-0.01,0.094-0.05c0.012-0.039-0.012-0.082-0.051-0.093C4.648,5.529,4.589,5.599,4.577,5.64   C4.565,5.677,4.606,5.673,4.646,5.685z"></path><circle cx="3.77" cy="4.335" r="0.075"></circle><path d="M4.114,4.237c0.152,0,0.287-0.135,0.287-0.287c0-0.15-0.073-0.28-0.225-0.28c-0.152,0-0.274,0.122-0.274,0.274   C3.902,4.095,3.964,4.237,4.114,4.237z"></path><path d="M4.813,5.891C4.653,5.984,4.446,5.904,4.446,6.09c0,0.187,0.231,0.368,0.418,0.368c0.185,0,0.18-0.07,0.18-0.256   S4.993,5.784,4.813,5.891z"></path><path d="M5.774,5.978c0-0.062-0.05-0.111-0.113-0.111c-0.061,0-0.112,0.05-0.112,0.111c0,0.063,0.039,0.063,0.101,0.063   C5.712,6.04,5.774,6.04,5.774,5.978z"></path><path d="M5.37,5.737c0.056-0.078,0.235-0.134,0.235-0.222S5.458,5.421,5.37,5.421c-0.087,0-0.157,0.069-0.157,0.158   C5.213,5.666,5.32,5.808,5.37,5.737z"></path><path d="M4.747,4.401C4.888,4.438,4.882,4.293,4.882,4.23c0-0.061-0.073-0.054-0.135-0.054c-0.063,0-0.113,0.052-0.113,0.112   C4.634,4.352,4.687,4.386,4.747,4.401z"></path><path d="M4.389,5.454c-0.042,0.004-0.1,0.085-0.098,0.127c0.002,0.041,0.038,0.072,0.08,0.069c0.042-0.002,0.071-0.038,0.07-0.079   C4.438,5.529,4.431,5.453,4.389,5.454z"></path><path d="M4.108,5.628c0.027-0.144-0.116-0.126-0.18-0.122C3.868,5.511,3.88,5.582,3.885,5.645c0.004,0.062,0.058,0.107,0.119,0.104   C4.066,5.744,4.098,5.689,4.108,5.628z"></path><path d="M5.457,3.987c0.061-0.031,0.16-0.061,0.16-0.122c0-0.063-0.017-0.121-0.113-0.112C5.441,3.758,5.391,3.802,5.391,3.865   C5.391,3.927,5.399,4.016,5.457,3.987z"></path><path d="M5.462,5.158c0.062,0,0.119-0.16,0.119-0.223c0-0.062-0.138-0.031-0.2-0.031c-0.062,0-0.03,0.08-0.03,0.142   C5.351,5.108,5.399,5.158,5.462,5.158z"></path><path d="M6.167,5.086c0.063,0,0.181-0.07,0.181-0.131c0-0.063-0.094-0.12-0.155-0.12c-0.063,0-0.068,0.057-0.068,0.12   C6.124,5.016,6.104,5.086,6.167,5.086z"></path><path d="M6.253,5.854c-0.047,0.04-0.109,0.073-0.069,0.12C6.226,6.02,6.355,6.063,6.401,6.021C6.448,5.98,6.429,5.873,6.387,5.826   C6.347,5.779,6.3,5.813,6.253,5.854z"></path><path d="M4.14,6.05c-0.063,0-0.111,0.049-0.111,0.111c0,0.062,0.056,0.186,0.117,0.186c0.063,0,0.012-0.151,0.106-0.186   C4.311,6.139,4.201,6.05,4.14,6.05z"></path></g></svg>