<svg xmlns="http://www.w3.org/2000/svg" xmlns:xlink="http://www.w3.org/1999/xlink" version="1.1" x="0px" y="0px" viewBox="0 0 100 100" style="enable-background:new 0 0 100 100;" xml:space="preserve"><path d="M65.967,45.616c-8.991-6.221-18.936-3.466-20.283-3.068c2.252-1.818,5.617-4.938,8.525-9.632  c2.989-4.825,5.973-9.642,4.761-15.278c-1.357-6.31-7.331-10.662-12.843-12.068c-6.695-1.707-14.676,0.432-18.932,6.311  c-1.229,1.698-4.643,7.155-2.436,13.175c1.356,3.698,4.952,7.929,10.075,8.193c3.728,0.192,8.258-1.717,9.743-5.536  c1.121-2.883,0.606-7.115-1.771-8.303c-1.295-0.648-3.363-0.503-4.318,0.554c-0.723,0.8-0.333,1.598-1.218,2.546  c-0.635,0.68-1.765,1.265-2.768,0.996c-1.571-0.421-2.028-2.719-2.104-3.1c-0.696-3.502,2.198-6.672,2.878-7.418  c2.185-2.394,6.028-4.696,10.628-4.318c4.755,0.391,10.047,3.621,11.182,8.857c0.747,3.447-0.606,6.381-1.218,7.529  c0.277-1.213,0.788-4.212-0.554-7.529c-0.497-1.23-1.801-4.457-5.093-5.757c-2.032-0.803-5.476-1.13-6.876,0.791  c-0.801,1.1-0.818,2.78-0.25,4.062c1.156,2.607,4.022,1.952,6.998,5.311c0.72,0.813,1.649,1.888,1.937,3.499  c0.365,2.041-0.5,3.813-1.145,4.937c-3.232,5.628-9.411,10.186-9.411,10.186c-7.889,5.854-13.643,15.152-15.251,23.556  c-0.393,2.052-1.439,7.928,1.079,14.64c0.681,1.815,2.985,7.711,8.968,11.736c3.165,2.129,6.23,2.975,7.699,3.368  c2.189,0.586,4.2,0.715,8.133,0.95c9.527,0.569,12.339-0.198,14.362-1.075c1.638-0.71,3.691-1.635,4.017-3.465  c0.293-1.645-0.896-3.543-2.436-4.207c-1.167-0.503-2.416-0.246-6.33,1.673c-6.44,3.158-6.685,4.241-9.498,4.749  c-2.916,0.526-5.389-0.144-7.623-0.75c-1.523-0.413-4.186-1.16-6.884-3.126c-1.07-0.779-5.91-4.305-7.112-10.871  c-0.298-1.627-1.109-7.464,2.624-12.247c2.06-2.638,6.129-5.759,9.027-4.671c1.882,0.707,1.577,2.553,3.97,3.921  c2.075,1.186,5.15,1.425,7.623,0c3.13-1.803,4.511-5.818,3.624-8.748c-1.76-5.813-11.945-5.702-12.449-5.691  c-7.399,0.168-12.325,5.311-13.618,6.753c0.806-1.507,5.146-9.264,14.614-11.957c1.956-0.556,10.96-3.117,18.701,2.646  c4.774,3.554,8.93,10.172,7.748,17.496C70.909,74.888,60.91,80.634,54.209,80.19c-1.047-0.069-5.218-0.345-6.753-3.1  c-0.5-0.897-0.92-2.415-0.234-3.356c0.947-1.3,3.492-0.799,4.374-0.625c2.101,0.414,3.029,1.339,3.999,1.75  c3.697,1.563,12.051-2.65,14.122-9.998c1.87-6.636-2.25-12.752-6.124-15.621c-3.513-2.602-7.338-2.916-8.83-3.039  c-5.155-0.423-9.339,1.412-9.291,1.664c0.046,0.238,3.867-1.138,8.958-0.225c1.816,0.326,5.08,0.911,7.913,3.349  c3.11,2.676,6.197,8.011,4.499,13.497c-1.6,5.171-7.02,9.078-10.622,8.248c-1.62-0.373-1.714-1.437-4.124-2.25  c-0.873-0.294-4.745-1.6-7.373,0.5c-2.285,1.826-2.744,5.518-1.625,7.998c2.166,4.8,10.108,4.755,11.122,4.749  c8.721-0.05,20.269-6.852,21.62-18.246C77.24,53.676,66.605,46.057,65.967,45.616z M31.163,15.06  c-0.624,1.316-1.967,4.15-0.875,7.123c0.214,0.581,1.032,2.808,3.249,3.624c1.802,0.663,3.795,0.126,5.061-0.812  c1.755-1.3,1.861-3.18,2.749-3.124c0.719,0.045,1.327,1.319,1.437,2.374c0.277,2.669-2.549,4.748-2.812,4.936  c-2.708,1.937-6.906,1.966-9.873,0c-4.069-2.697-4.361-8.182-3.562-11.497c1.149-4.765,5.066-7.182,6.186-7.873  c2.839-1.752,5.605-2.106,7.061-2.187C38.208,8.207,33.471,10.191,31.163,15.06z M51.721,20.184  c-2.724-2.027-4.774-1.992-5.936-4.062c-0.13-0.231-0.948-1.69-0.375-2.562c0.666-1.013,2.879-0.735,4.249-0.187  c2.4,0.959,3.464,3.245,3.886,4.154c0.995,2.14,0.974,4.149,0.863,5.282C53.918,22.184,53.038,21.164,51.721,20.184z M61.959,90.597  c1.012-0.708,1.655-1.215,2.768-1.55c0.964-0.29,2.508-0.519,2.768,0c0.23,0.458-0.617,1.349-1.107,1.771  c-0.792,0.682-1.711,1.05-4.429,1.55c-0.919,0.169-2.163,0.375-3.654,0.554C59.897,92,61.126,91.18,61.959,90.597z M35.72,56.608  c0.697-0.569,5.6-4.458,11.957-3.654c1.757,0.222,4.961,0.628,6.311,3.1c0.842,1.541,1.109,4.154-0.443,5.536  c-0.972,0.865-2.484,1.094-3.654,0.664c-1.43-0.526-1.43-1.701-2.879-2.989c-2.162-1.923-5.064-1.888-5.536-1.882  c-2.642,0.032-4.471,1.383-6.643,2.989c-1.258,0.93-3.048,2.474-4.734,4.864C30.603,63.506,31.993,59.652,35.72,56.608z"></path></svg>