<svg xmlns="http://www.w3.org/2000/svg" xmlns:xlink="http://www.w3.org/1999/xlink" version="1.1" x="0px" y="0px" viewBox="0 0 512 512" enable-background="new 0 0 512 512" xml:space="preserve"><g><g><g><path d="M507.975,463.98H4.025c-2.211,0-4-1.789-4-4s1.789-4,4-4h503.95c2.211,0,4,1.789,4,4S510.186,463.98,507.975,463.98z"></path></g></g><g><g><path d="M92.016,447.982c-2.211,0-4-1.789-4-4V315.994c0-2.211,1.789-4,4-4h71.993c2.21,0,3.999,1.789,3.999,4s-1.789,4-3.999,4     H96.016v123.988C96.016,446.193,94.227,447.982,92.016,447.982z"></path></g></g><g><g><path d="M331.992,447.982c-2.211,0-4-1.789-4-4V271.998H184.007v171.984c0,2.211-1.789,4-4,4s-4-1.789-4-4V268     c0-2.211,1.789-4,4-4h151.985c2.211,0,4,1.789,4,4v175.982C335.992,446.193,334.203,447.982,331.992,447.982z"></path></g></g><g><g><path d="M124.013,447.982c-2.211,0-4-1.789-4-4V315.994c0-2.211,1.789-4,4-4c2.21,0,3.999,1.789,3.999,4v127.988     C128.012,446.193,126.224,447.982,124.013,447.982z"></path></g></g><g><g><path d="M164.009,375.988h-23.998c-2.21,0-4-1.789-4-4V351.99c0-8.826,7.175-15.998,15.999-15.998s15.998,7.172,15.998,15.998     v19.998C168.008,374.199,166.22,375.988,164.009,375.988z M144.011,367.99h15.998v-16c0-4.404-3.589-7.998-7.999-7.998     s-7.999,3.594-7.999,7.998V367.99z"></path></g></g><g><g><path d="M164.009,431.982h-23.998c-2.21,0-4-1.789-4-3.998v-19.998c0-8.828,7.175-16,15.999-16s15.998,7.172,15.998,16v19.998     C168.008,430.193,166.22,431.982,164.009,431.982z M144.011,423.984h15.998v-15.998c0-4.406-3.589-8-7.999-8     s-7.999,3.594-7.999,8V423.984z"></path></g></g><g><g><path d="M108.015,431.982h-8c-2.21,0-4-1.789-4-3.998c0-2.211,1.789-4,4-4h4v-15.998c0-3.438-2.184-6.484-5.43-7.578     c-2.093-0.703-3.214-2.977-2.507-5.07c0.707-2.094,2.98-3.227,5.07-2.508c6.5,2.195,10.866,8.289,10.866,15.156v19.998     C112.014,430.193,110.225,431.982,108.015,431.982z"></path></g></g><g><g><path d="M108.015,375.988h-8c-2.21,0-4-1.789-4-4s1.789-3.998,4-3.998h4v-16c0-3.436-2.184-6.482-5.43-7.576     c-2.093-0.703-3.214-2.977-2.507-5.07c0.707-2.094,2.98-3.211,5.07-2.508c6.5,2.195,10.866,8.289,10.866,15.154v19.998     C112.014,374.199,110.225,375.988,108.015,375.988z"></path></g></g><g><g><path d="M419.984,447.982c-2.211,0-4-1.789-4-4V319.994H347.99c-2.211,0-4-1.789-4-4s1.789-4,4-4h71.994     c2.211,0,3.998,1.789,3.998,4v127.988C423.982,446.193,422.195,447.982,419.984,447.982z"></path></g></g><g><g><path d="M387.986,447.982c-2.211,0-4-1.789-4-4V315.994c0-2.211,1.789-4,4-4s4,1.789,4,4v127.988     C391.986,446.193,390.197,447.982,387.986,447.982z"></path></g></g><g><g><path d="M371.988,375.988H347.99c-2.211,0-4-1.789-4-4V351.99c0-8.826,7.172-15.998,16-15.998     c8.826,0,15.998,7.172,15.998,15.998v19.998C375.988,374.199,374.199,375.988,371.988,375.988z M351.99,367.99h15.998v-16     c0-4.404-3.594-7.998-7.998-7.998c-4.406,0-8,3.594-8,7.998V367.99z"></path></g></g><g><g><path d="M371.988,431.982H347.99c-2.211,0-4-1.789-4-3.998v-19.998c0-8.828,7.172-16,16-16c8.826,0,15.998,7.172,15.998,16     v19.998C375.988,430.193,374.199,431.982,371.988,431.982z M351.99,423.984h15.998v-15.998c0-4.406-3.594-8-7.998-8     c-4.406,0-8,3.594-8,8V423.984z"></path></g></g><g><g><path d="M411.984,431.982h-8c-2.209,0-3.998-1.789-3.998-3.998v-19.998c0-6.875,4.365-12.961,10.865-15.156     c2.102-0.719,4.359,0.414,5.07,2.508c0.703,2.094-0.422,4.367-2.508,5.07c-3.25,1.094-5.43,4.141-5.43,7.578v15.998h4     c2.211,0,4,1.789,4,4C415.984,430.193,414.195,431.982,411.984,431.982z"></path></g></g><g><g><path d="M411.984,375.988h-8c-2.209,0-3.998-1.789-3.998-4V351.99c0-6.873,4.365-12.959,10.865-15.154     c2.102-0.719,4.359,0.414,5.07,2.508c0.703,2.094-0.422,4.367-2.508,5.07c-3.25,1.094-5.43,4.141-5.43,7.576v16h4     c2.211,0,4,1.787,4,3.998S414.195,375.988,411.984,375.988z"></path></g></g><g><g><path d="M299.996,447.982c-2.211,0-4-1.789-4-4v-59.994c0-22.053-17.943-39.996-39.996-39.996     c-24.298,0-39.996,15.701-39.996,39.996v59.994c0,2.211-1.789,4-4,4s-4-1.789-4-4v-59.994c0-28.709,19.288-47.996,47.996-47.996     c26.467,0,47.996,21.529,47.996,47.996v59.994C303.996,446.193,302.207,447.982,299.996,447.982z"></path></g></g><g><g><path d="M212.004,351.99c-2.211,0-4-1.789-4-3.998v-23.998c0-2.211,1.789-4,4-4s4,1.789,4,4v23.998     C216.004,350.201,214.215,351.99,212.004,351.99z"></path></g></g><g><g><path d="M299.996,327.994h-87.992c-2.211,0-4-1.789-4-4s1.789-4,4-4h87.992c2.211,0,4,1.789,4,4S302.207,327.994,299.996,327.994     z"></path></g></g><g><g><path d="M299.996,344.625c-2.211,0-4-1.789-4-4v-16.631c0-2.211,1.789-4,4-4s4,1.789,4,4v16.631     C303.996,342.836,302.207,344.625,299.996,344.625z"></path></g></g><g><g><path d="M283.998,407.986h-55.996c-2.21,0-3.999-1.789-3.999-4s1.789-4,3.999-4h55.996c2.209,0,3.998,1.789,3.998,4     S286.207,407.986,283.998,407.986z"></path></g></g><g><g><path d="M256,391.986c-2.21,0-4-1.789-4-3.998v-16c0-2.211,1.789-3.998,4-3.998c2.211,0,4,1.787,4,3.998v16     C260,390.197,258.211,391.986,256,391.986z"></path></g></g><g><g><path d="M256,439.982c-2.21,0-4-1.789-4-4v-15.998c0-2.211,1.789-4,4-4c2.211,0,4,1.789,4,4v15.998     C260,438.193,258.211,439.982,256,439.982z"></path></g></g><g><g><path d="M92.016,319.994c-2.211,0-4-1.789-4-4v-39.996c0-2.211,1.789-4,4-4s4,1.789,4,4v39.996     C96.016,318.205,94.227,319.994,92.016,319.994z"></path></g></g><g><g><path d="M419.984,319.994c-2.211,0-4-1.789-4-4v-39.996c0-2.211,1.789-4,4-4s3.998,1.789,3.998,4v39.996     C423.982,318.205,422.195,319.994,419.984,319.994z"></path></g></g><g><g><path d="M379.988,287.998c-2.211,0-4-1.789-4-4c0-6.617-5.383-12-12-12c-6.615,0-11.998,5.383-11.998,12c0,2.211-1.789,4-4,4     s-4-1.789-4-4c0-11.031,8.969-19.998,19.998-19.998c11.031,0,19.998,8.967,19.998,19.998     C383.986,286.209,382.199,287.998,379.988,287.998z"></path></g></g><g><g><path d="M347.99,303.996c-2.211,0-4-1.789-4-4v-15.998c0-2.211,1.789-4,4-4s4,1.789,4,4v15.998     C351.99,302.207,350.201,303.996,347.99,303.996z"></path></g></g><g><g><path d="M379.988,303.996c-2.211,0-4-1.789-4-4v-15.998c0-2.211,1.789-4,4-4s3.998,1.789,3.998,4v15.998     C383.986,302.207,382.199,303.996,379.988,303.996z"></path></g></g><g><g><path d="M363.988,303.996c-2.209,0-3.998-1.789-3.998-4v-8c0-2.211,1.789-3.998,3.998-3.998c2.211,0,4,1.787,4,3.998v8     C367.988,302.207,366.199,303.996,363.988,303.996z"></path></g></g><g><g><path d="M379.988,287.998H347.99c-2.211,0-4-1.789-4-4s1.789-4,4-4h31.998c2.211,0,3.998,1.789,3.998,4     S382.199,287.998,379.988,287.998z"></path></g></g><g><g><path d="M363.988,271.998c-2.209,0-3.998-1.789-3.998-3.998v-8c0-2.211,1.789-4,3.998-4c2.211,0,4,1.789,4,4v8     C367.988,270.209,366.199,271.998,363.988,271.998z"></path></g></g><g><g><path d="M164.009,287.998c-2.211,0-4-1.789-4-4c0-6.617-5.382-12-11.999-12c-6.616,0-11.999,5.383-11.999,12c0,2.211-1.789,4-4,4     s-4-1.789-4-4c0-11.031,8.972-19.998,19.998-19.998c11.026,0,19.998,8.967,19.998,19.998     C168.008,286.209,166.22,287.998,164.009,287.998z"></path></g></g><g><g><path d="M132.012,303.996c-2.211,0-4-1.789-4-4v-15.998c0-2.211,1.789-4,4-4s4,1.789,4,4v15.998     C136.012,302.207,134.223,303.996,132.012,303.996z"></path></g></g><g><g><path d="M164.009,303.996c-2.211,0-4-1.789-4-4v-15.998c0-2.211,1.789-4,4-4c2.21,0,3.999,1.789,3.999,4v15.998     C168.008,302.207,166.22,303.996,164.009,303.996z"></path></g></g><g><g><path d="M148.01,303.996c-2.21,0-3.999-1.789-3.999-4v-8c0-2.211,1.789-3.998,3.999-3.998c2.211,0,4,1.787,4,3.998v8     C152.01,302.207,150.221,303.996,148.01,303.996z"></path></g></g><g><g><path d="M164.009,287.998h-31.997c-2.211,0-4-1.789-4-4s1.789-4,4-4h31.997c2.21,0,3.999,1.789,3.999,4     S166.22,287.998,164.009,287.998z"></path></g></g><g><g><path d="M148.01,271.998c-2.21,0-3.999-1.789-3.999-3.998v-8c0-2.211,1.789-4,3.999-4c2.211,0,4,1.789,4,4v8     C152.01,270.209,150.221,271.998,148.01,271.998z"></path></g></g><g><g><path d="M108.015,318.744c-2.211,0-4-1.789-4-4v-14.748c0-2.211,1.789-4,4-4c2.21,0,4,1.789,4,4v14.748     C112.014,316.955,110.225,318.744,108.015,318.744z"></path></g></g><g><g><path d="M403.984,318.744c-2.209,0-3.998-1.789-3.998-4v-14.748c0-2.211,1.789-4,3.998-4c2.211,0,4,1.789,4,4v14.748     C407.984,316.955,406.195,318.744,403.984,318.744z"></path></g></g><g><g><path d="M331.992,256c-0.875,0-1.758-0.289-2.5-0.879c-1.719-1.379-2-3.894-0.625-5.62c0.328-0.402,32.029-40.805,17.537-82.941     c-18.506-53.795-91.291-86.558-92.021-86.886c-2.02-0.895-2.934-3.254-2.039-5.273c0.895-2.015,3.257-2.917,5.273-2.042     c3.125,1.382,76.703,34.477,96.35,91.6c15.943,46.359-17.428,88.761-18.85,90.542C334.32,255.489,333.164,256,331.992,256z"></path></g></g><g><g><path d="M179.808,256c-1.172,0-2.332-0.512-3.121-1.5c-1.43-1.781-34.801-44.183-18.854-90.542     c19.643-57.123,93.226-90.218,96.351-91.6c2.003-0.891,4.382,0.02,5.273,2.042c0.895,2.02-0.02,4.379-2.039,5.273     c-0.73,0.328-73.52,33.09-92.022,86.886c-14.491,42.137,17.213,82.539,17.538,82.941c1.375,1.726,1.098,4.241-0.629,5.62     C181.57,255.711,180.687,256,179.808,256z"></path></g></g><g><g><path d="M256,80.018c-2.21,0-4-1.789-4-4V28.023c0-2.211,1.789-4,4-4c2.211,0,4,1.789,4,4v47.995     C260,78.229,258.211,80.018,256,80.018z"></path></g></g><g><g><path d="M331.992,216.004H180.007c-2.211,0-4-1.789-4-4s1.789-4,4-4h151.985c2.211,0,4,1.789,4,4     S334.203,216.004,331.992,216.004z"></path></g></g><g><g><path d="M323.994,232.003H188.006c-2.21,0-3.999-1.789-3.999-4c0-2.211,1.789-4,3.999-4h135.988c2.209,0,3.998,1.789,3.998,4     C327.992,230.214,326.203,232.003,323.994,232.003z"></path></g></g><g><g><path d="M275.998,104.015h-39.996c-2.21,0-4-1.789-4-3.999c0-2.211,1.789-4,4-4h39.996c2.211,0,4,1.789,4,4     C279.998,102.227,278.209,104.015,275.998,104.015z"></path></g></g><g><g><path d="M196.006,232.003c-2.21,0-4-1.789-4-4v-4c0-2.21,1.789-4,4-4s4,1.789,4,4v4     C200.005,230.214,198.216,232.003,196.006,232.003z"></path></g></g><g><g><path d="M220.003,232.003c-2.211,0-4-1.789-4-4v-4c0-2.21,1.789-4,4-4s4,1.789,4,4v4     C224.003,230.214,222.214,232.003,220.003,232.003z"></path></g></g><g><g><path d="M244.001,232.003c-2.211,0-4-1.789-4-4v-4c0-2.21,1.789-4,4-4c2.21,0,3.999,1.789,3.999,4v4     C248,230.214,246.212,232.003,244.001,232.003z"></path></g></g><g><g><path d="M267.998,232.003c-2.211,0-3.998-1.789-3.998-4v-4c0-2.21,1.787-4,3.998-4s4,1.789,4,4v4     C271.998,230.214,270.209,232.003,267.998,232.003z"></path></g></g><g><g><path d="M291.996,232.003c-2.211,0-4-1.789-4-4v-4c0-2.21,1.789-4,4-4s4,1.789,4,4v4     C295.996,230.214,294.207,232.003,291.996,232.003z"></path></g></g><g><g><path d="M315.994,232.003c-2.211,0-4-1.789-4-4v-4c0-2.21,1.789-4,4-4s4,1.789,4,4v4     C319.994,230.214,318.205,232.003,315.994,232.003z"></path></g></g><g><g><path d="M507.975,487.977H4.025c-2.211,0-4-1.787-4-3.998s1.789-4,4-4h503.95c2.211,0,4,1.789,4,4     S510.186,487.977,507.975,487.977z"></path></g></g><g><g><path d="M4.025,487.977c-2.211,0-4-1.787-4-3.998V459.98c0-2.211,1.789-4,4-4s4,1.789,4,4v23.998     C8.024,486.189,6.236,487.977,4.025,487.977z"></path></g></g><g><g><path d="M507.975,487.977c-2.211,0-4-1.787-4-3.998V459.98c0-2.211,1.789-4,4-4s4,1.789,4,4v23.998     C511.975,486.189,510.186,487.977,507.975,487.977z"></path></g></g><g><g><g><path d="M28.022,447.982c-2.21,0-4-1.789-4-4V264H8.024v179.982c0,2.211-1.789,4-4,4s-4-1.789-4-4V260c0-2.211,1.789-4,4-4      h23.998c2.21,0,4,1.789,4,4v183.982C32.022,446.193,30.233,447.982,28.022,447.982z"></path></g></g><g><g><path d="M68.019,447.982c-2.21,0-4-1.789-4-4V327.994H56.02v115.988c0,2.211-1.789,4-4,4s-4-1.789-4-4V323.994      c0-2.211,1.789-4,4-4h15.999c2.21,0,4,1.789,4,4v119.988C72.018,446.193,70.229,447.982,68.019,447.982z"></path></g></g><g><g><path d="M28.183,244.001c-0.059-0.004-0.105-0.008-0.16,0H4.025c-2.211,0-4-1.789-4-4c0-8.823,7.175-15.999,15.999-15.999      c8.39,0,15.291,6.492,15.947,14.714c0.137,0.402,0.211,0.836,0.211,1.285C32.182,242.212,30.389,244.001,28.183,244.001z       M9.098,236.002h13.851c-1.383-2.391-3.969-4-6.925-4C13.067,232.003,10.481,233.612,9.098,236.002z"></path></g></g><g><g><path d="M16.024,264c-2.211,0-4-1.789-4-4v-7.999c0-2.211,1.789-4,4-4c2.21,0,3.999,1.789,3.999,4V260      C20.023,262.211,18.234,264,16.024,264z"></path></g></g><g><g><path d="M4.025,264c-2.211,0-4-1.789-4-4v-7.999c0-2.211,1.789-4,4-4s4,1.789,4,4V260C8.024,262.211,6.236,264,4.025,264z"></path></g></g><g><g><path d="M28.022,264c-2.21,0-4-1.789-4-4v-7.999c0-2.211,1.789-4,4-4s4,1.789,4,4V260C32.022,262.211,30.233,264,28.022,264z"></path></g></g><g><g><path d="M16.024,232.003c-2.211,0-4-1.789-4-4v-8c0-2.21,1.789-4,4-4c2.21,0,3.999,1.789,3.999,4v8      C20.023,230.214,18.234,232.003,16.024,232.003z"></path></g></g><g><g><path d="M68.019,311.994c-2.21,0-4-1.789-4-3.998c0-2.203-1.793-4-4-4c-2.207,0-3.999,1.797-3.999,4      c0,2.209-1.789,3.998-4,3.998s-4-1.789-4-3.998c0-6.617,5.382-12,11.999-12c6.617,0,11.999,5.383,11.999,12      C72.018,310.205,70.229,311.994,68.019,311.994z"></path></g></g><g><g><path d="M52.02,327.994c-2.211,0-4-1.789-4-4v-8c0-2.211,1.789-4,4-4s4,1.789,4,4v8C56.02,326.205,54.231,327.994,52.02,327.994      z"></path></g></g><g><g><path d="M68.019,327.994c-2.21,0-4-1.789-4-4v-8c0-2.211,1.789-4,4-4s4,1.789,4,4v8      C72.018,326.205,70.229,327.994,68.019,327.994z"></path></g></g><g><g><path d="M60.019,303.996c-2.21,0-3.999-1.789-3.999-4v-8c0-2.211,1.789-3.998,3.999-3.998c2.211,0,4,1.787,4,3.998v8      C64.019,302.207,62.23,303.996,60.019,303.996z"></path></g></g><g><g><path d="M28.022,319.994H4.025c-2.211,0-4-1.789-4-4s1.789-4,4-4h23.998c2.21,0,4,1.789,4,4S30.233,319.994,28.022,319.994z"></path></g></g><g><g><path d="M28.022,375.988H4.025c-2.211,0-4-1.789-4-4s1.789-3.998,4-3.998h23.998c2.21,0,4,1.787,4,3.998      S30.233,375.988,28.022,375.988z"></path></g></g><g><g><path d="M68.019,359.99H52.02c-2.211,0-4-1.789-4-4s1.789-4,4-4h15.999c2.21,0,4,1.789,4,4S70.229,359.99,68.019,359.99z"></path></g></g><g><g><path d="M68.019,391.986H52.02c-2.211,0-4-1.789-4-3.998c0-2.211,1.789-4,4-4h15.999c2.21,0,4,1.789,4,4      C72.018,390.197,70.229,391.986,68.019,391.986z"></path></g></g></g><g><g><g><path d="M507.975,447.982c-2.211,0-4-1.789-4-4V264h-15.998v179.982c0,2.211-1.789,4-4,4c-2.209,0-3.998-1.789-3.998-4V260      c0-2.211,1.789-4,3.998-4h23.998c2.211,0,4,1.789,4,4v183.982C511.975,446.193,510.186,447.982,507.975,447.982z"></path></g></g><g><g><path d="M459.98,447.982c-2.211,0-4-1.789-4-4V327.994h-8v115.988c0,2.211-1.789,4-4,4c-2.209,0-3.998-1.789-3.998-4V323.994      c0-2.211,1.789-4,3.998-4h16c2.211,0,3.998,1.789,3.998,4v119.988C463.979,446.193,462.191,447.982,459.98,447.982z"></path></g></g><g><g><path d="M507.975,244.001h-23.998c-2.209,0-3.998-1.789-3.998-4c0-8.823,7.17-15.999,15.998-15.999      c8.826,0,15.998,7.175,15.998,15.999C511.975,242.212,510.186,244.001,507.975,244.001z M489.055,236.002h13.842      c-1.373-2.391-3.967-4-6.92-4S490.43,233.612,489.055,236.002z"></path></g></g><g><g><path d="M495.977,264c-2.211,0-4-1.789-4-4v-7.999c0-2.211,1.789-4,4-4s4,1.789,4,4V260      C499.977,262.211,498.188,264,495.977,264z"></path></g></g><g><g><path d="M507.975,264c-2.211,0-4-1.789-4-4v-7.999c0-2.211,1.789-4,4-4s4,1.789,4,4V260      C511.975,262.211,510.186,264,507.975,264z"></path></g></g><g><g><path d="M483.977,264c-2.209,0-3.998-1.789-3.998-4v-7.999c0-2.211,1.789-4,3.998-4c2.211,0,4,1.789,4,4V260      C487.977,262.211,486.188,264,483.977,264z"></path></g></g><g><g><path d="M495.977,232.003c-2.211,0-4-1.789-4-4v-8c0-2.21,1.789-4,4-4s4,1.789,4,4v8      C499.977,230.214,498.188,232.003,495.977,232.003z"></path></g></g><g><g><path d="M459.98,311.994c-2.211,0-4-1.789-4-3.998c0-2.203-1.797-4-4-4s-4,1.797-4,4c0,2.209-1.789,3.998-4,3.998      c-2.209,0-3.998-1.789-3.998-3.998c0-6.617,5.381-12,11.998-12s11.998,5.383,11.998,12      C463.979,310.205,462.191,311.994,459.98,311.994z"></path></g></g><g><g><path d="M459.98,327.994c-2.211,0-4-1.789-4-4v-8c0-2.211,1.789-4,4-4s3.998,1.789,3.998,4v8      C463.979,326.205,462.191,327.994,459.98,327.994z"></path></g></g><g><g><path d="M443.98,327.994c-2.209,0-3.998-1.789-3.998-4v-8c0-2.211,1.789-4,3.998-4c2.211,0,4,1.789,4,4v8      C447.98,326.205,446.191,327.994,443.98,327.994z"></path></g></g><g><g><path d="M451.98,303.996c-2.211,0-4-1.789-4-4v-8c0-2.211,1.789-3.998,4-3.998s4,1.787,4,3.998v8      C455.98,302.207,454.191,303.996,451.98,303.996z"></path></g></g><g><g><path d="M507.975,319.994h-23.998c-2.209,0-3.998-1.789-3.998-4s1.789-4,3.998-4h23.998c2.211,0,4,1.789,4,4      S510.186,319.994,507.975,319.994z"></path></g></g><g><g><path d="M507.975,375.988h-23.998c-2.209,0-3.998-1.789-3.998-4s1.789-3.998,3.998-3.998h23.998c2.211,0,4,1.787,4,3.998      S510.186,375.988,507.975,375.988z"></path></g></g><g><g><path d="M459.98,359.99h-16c-2.209,0-3.998-1.789-3.998-4s1.789-4,3.998-4h16c2.211,0,3.998,1.789,3.998,4      S462.191,359.99,459.98,359.99z"></path></g></g><g><g><path d="M459.98,391.986h-16c-2.209,0-3.998-1.789-3.998-3.998c0-2.211,1.789-4,3.998-4h16c2.211,0,3.998,1.789,3.998,4      C463.979,390.197,462.191,391.986,459.98,391.986z"></path></g></g></g><g><g><path d="M32.022,487.977c-2.211,0-4-1.787-4-3.998v-8c0-2.211,1.789-4,4-4s4,1.789,4,4v8     C36.022,486.189,34.233,487.977,32.022,487.977z"></path></g></g><g><g><path d="M64.019,471.979c-2.211,0-4-1.789-4-3.998v-8c0-2.211,1.789-4,4-4c2.21,0,4,1.789,4,4v8     C68.019,470.189,66.229,471.979,64.019,471.979z"></path></g></g><g><g><path d="M96.016,487.977c-2.21,0-4-1.787-4-3.998v-8c0-2.211,1.789-4,4-4s4,1.789,4,4v8     C100.015,486.189,98.226,487.977,96.016,487.977z"></path></g></g><g><g><path d="M128.012,471.979c-2.21,0-3.999-1.789-3.999-3.998v-8c0-2.211,1.789-4,3.999-4c2.211,0,4,1.789,4,4v8     C132.012,470.189,130.223,471.979,128.012,471.979z"></path></g></g><g><g><path d="M160.009,487.977c-2.21,0-4-1.787-4-3.998v-8c0-2.211,1.789-4,4-4c2.211,0,4,1.789,4,4v8     C164.009,486.189,162.22,487.977,160.009,487.977z"></path></g></g><g><g><path d="M192.006,471.979c-2.211,0-4-1.789-4-3.998v-8c0-2.211,1.789-4,4-4s4,1.789,4,4v8     C196.006,470.189,194.217,471.979,192.006,471.979z"></path></g></g><g><g><path d="M224.003,487.977c-2.211,0-4-1.787-4-3.998v-8c0-2.211,1.789-4,4-4c2.21,0,3.999,1.789,3.999,4v8     C228.002,486.189,226.214,487.977,224.003,487.977z"></path></g></g><g><g><path d="M256,471.979c-2.21,0-4-1.789-4-3.998v-8c0-2.211,1.789-4,4-4c2.211,0,4,1.789,4,4v8     C260,470.189,258.211,471.979,256,471.979z"></path></g></g><g><g><path d="M287.996,487.977c-2.211,0-3.998-1.787-3.998-3.998v-8c0-2.211,1.787-4,3.998-4s4,1.789,4,4v8     C291.996,486.189,290.207,487.977,287.996,487.977z"></path></g></g><g><g><path d="M319.994,471.979c-2.211,0-4-1.789-4-3.998v-8c0-2.211,1.789-4,4-4s4,1.789,4,4v8     C323.994,470.189,322.205,471.979,319.994,471.979z"></path></g></g><g><g><path d="M351.99,487.977c-2.211,0-4-1.787-4-3.998v-8c0-2.211,1.789-4,4-4s4,1.789,4,4v8     C355.99,486.189,354.201,487.977,351.99,487.977z"></path></g></g><g><g><path d="M383.986,471.979c-2.209,0-3.998-1.789-3.998-3.998v-8c0-2.211,1.789-4,3.998-4c2.211,0,4,1.789,4,4v8     C387.986,470.189,386.197,471.979,383.986,471.979z"></path></g></g><g><g><path d="M415.984,487.977c-2.211,0-4-1.787-4-3.998v-8c0-2.211,1.789-4,4-4s4,1.789,4,4v8     C419.984,486.189,418.195,487.977,415.984,487.977z"></path></g></g><g><g><path d="M447.98,471.979c-2.211,0-4-1.789-4-3.998v-8c0-2.211,1.789-4,4-4s4,1.789,4,4v8     C451.98,470.189,450.191,471.979,447.98,471.979z"></path></g></g><g><g><path d="M479.979,487.977c-2.211,0-4-1.787-4-3.998v-8c0-2.211,1.789-4,4-4s3.998,1.789,3.998,4v8     C483.977,486.189,482.189,487.977,479.979,487.977z"></path></g></g></g></svg>